<?xml version="1.0" encoding="UTF-8"?> <svg xmlns="http://www.w3.org/2000/svg" id="Layer_1" data-name="Layer 1" viewBox="0 0 530 160"><defs><style>.cls-1{fill:#222227;}</style></defs><path class="cls-1" d="M271.9,76.68,269.07,52.1h5.41l1.62,18.46h.06L285.5,52.1h5.61L278,76.68Z"></path><path class="cls-1" d="M304.08,52.1l4.1,24.58h-5.37L302,71.21h-9.2l-3.09,5.47h-5.68L298.54,52.1Zm-2.55,15.08-1.2-9.77h-.07L295,67.18Z"></path><path class="cls-1" d="M327,52.1a11.82,11.82,0,0,1,3,.3,5.85,5.85,0,0,1,2.33,1.1,5.05,5.05,0,0,1,1.48,2,8,8,0,0,1,.51,3,6.81,6.81,0,0,1-.41,2.38,6.28,6.28,0,0,1-1.17,2A6.67,6.67,0,0,1,331,64.39a6.22,6.22,0,0,1-2.27.76v.07a3.08,3.08,0,0,1,2,1.67,6.69,6.69,0,0,1,.51,2.67c0,.55,0,1.21-.08,2s-.09,1.53-.09,2.29c0,.55,0,1.07.07,1.56a4.94,4.94,0,0,0,.28,1.29h-5.27c-.07-.29-.13-.57-.17-.84a4.28,4.28,0,0,1-.07-.81,20.9,20.9,0,0,1,.14-2.49,23.39,23.39,0,0,0,.13-2.5,3.58,3.58,0,0,0-.25-1.46,2.37,2.37,0,0,0-.73-.92,2.76,2.76,0,0,0-1.12-.46,7.9,7.9,0,0,0-1.44-.12h-5.1l-2,9.6h-5.38l5.13-24.58Zm-3.65,11.12a9.52,9.52,0,0,0,2.1-.22,5.84,5.84,0,0,0,1.77-.69,3.69,3.69,0,0,0,1.25-1.2,3.39,3.39,0,0,0,.46-1.78,3.34,3.34,0,0,0-.33-1.6,2.27,2.27,0,0,0-.88-.91,3.52,3.52,0,0,0-1.27-.41A10.52,10.52,0,0,0,325,56.3h-5.14l-1.44,6.92Z"></path><path class="cls-1" d="M336,52.1h5.54l3.69,10.47,7.64-10.47h6.37l-12,15.29-1.89,9.29h-5.45l2-9.53Z"></path><path class="cls-1" d="M381.09,52.1a19.77,19.77,0,0,1,3.34.25,6.94,6.94,0,0,1,2.52.87A4.28,4.28,0,0,1,388.53,55a6.47,6.47,0,0,1,.55,2.87,6.6,6.6,0,0,1-.31,2,5.6,5.6,0,0,1-.91,1.75,5.12,5.12,0,0,1-1.45,1.29,4.7,4.7,0,0,1-1.94.66v.07a4.64,4.64,0,0,1,2.7,1.84,5.4,5.4,0,0,1,.95,3.15,7.56,7.56,0,0,1-.78,3.51,7.17,7.17,0,0,1-2.08,2.51,9.43,9.43,0,0,1-3,1.52,12.12,12.12,0,0,1-3.54.51H365.64l5.13-24.58Zm-2.61,20.38a4.53,4.53,0,0,0,3-1,3.61,3.61,0,0,0,1.19-3,2.33,2.33,0,0,0-1.41-2.36,4,4,0,0,0-1.38-.37c-.5,0-1-.06-1.48-.06h-5.3l-1.45,6.74ZM380,62.05a4.16,4.16,0,0,0,2.56-.81,2.82,2.82,0,0,0,1.09-2.42,2.22,2.22,0,0,0-.78-2,3.56,3.56,0,0,0-2.08-.54H375.1l-1.2,5.75Z"></path><path class="cls-1" d="M408,52.1l4.1,24.58h-5.37L406,71.21h-9.19l-3.1,5.47H388L402.47,52.1Zm-2.54,15.08-1.21-9.77h-.07l-5.3,9.77Z"></path><path class="cls-1" d="M430.94,52.1a11.87,11.87,0,0,1,3,.3,5.75,5.75,0,0,1,2.32,1.1,5,5,0,0,1,1.49,2,8,8,0,0,1,.51,3,7,7,0,0,1-.41,2.38,6.48,6.48,0,0,1-3,3.47,6.28,6.28,0,0,1-2.27.76v.07a3.06,3.06,0,0,1,2,1.67,6.69,6.69,0,0,1,.51,2.67c0,.55,0,1.21-.08,2s-.09,1.53-.09,2.29a15.44,15.44,0,0,0,.07,1.56,4.94,4.94,0,0,0,.28,1.29h-5.27c-.07-.29-.13-.57-.17-.84a4.28,4.28,0,0,1-.07-.81,20.9,20.9,0,0,1,.14-2.49,23.39,23.39,0,0,0,.13-2.5,3.41,3.41,0,0,0-.26-1.46,2.35,2.35,0,0,0-.72-.92A2.76,2.76,0,0,0,428,67.2a7.9,7.9,0,0,0-1.44-.12h-5.1l-2,9.6h-5.37L419.2,52.1Zm-3.65,11.12a9.52,9.52,0,0,0,2.1-.22,6.11,6.11,0,0,0,1.78-.69,3.72,3.72,0,0,0,1.23-1.2,3.3,3.3,0,0,0,.47-1.78,3.34,3.34,0,0,0-.33-1.6,2.27,2.27,0,0,0-.88-.91,3.52,3.52,0,0,0-1.27-.41,10.55,10.55,0,0,0-1.52-.11h-5.12l-1.45,6.92Z"></path><path class="cls-1" d="M279.49,96.48a7.34,7.34,0,0,0-4.94-1.58,9.71,9.71,0,0,0-4.84,1.15,10.7,10.7,0,0,0-3.42,3,13.11,13.11,0,0,0-2.05,4.27,17.94,17.94,0,0,0-.67,4.9,9.84,9.84,0,0,0,.55,3.41,7,7,0,0,0,4.16,4.27,9.42,9.42,0,0,0,3.41.59,8,8,0,0,0,2.77-.49,8.22,8.22,0,0,0,2.41-1.37,9.17,9.17,0,0,0,1.89-2.19A11.11,11.11,0,0,0,280,109.6h2.34a12.89,12.89,0,0,1-1.31,3.53,10,10,0,0,1-2.27,2.82,10.27,10.27,0,0,1-3.23,1.86,12.62,12.62,0,0,1-4.24.67,11.46,11.46,0,0,1-4.28-.76,8.8,8.8,0,0,1-3.17-2.12,9,9,0,0,1-2-3.28,12.88,12.88,0,0,1-.67-4.27,17.91,17.91,0,0,1,.89-5.68,15.17,15.17,0,0,1,2.61-4.84,12.84,12.84,0,0,1,4.21-3.37,12.26,12.26,0,0,1,5.64-1.26,12,12,0,0,1,3.6.53A8.4,8.4,0,0,1,281.07,95,7.24,7.24,0,0,1,283,97.58a9,9,0,0,1,.74,3.62H281.4A6.12,6.12,0,0,0,279.49,96.48Z"></path><path class="cls-1" d="M291.26,117.72a8.64,8.64,0,0,1-5.12-5.4,12.62,12.62,0,0,1-.68-4.27,17.92,17.92,0,0,1,.9-5.68A15,15,0,0,1,289,97.53a12.9,12.9,0,0,1,4.2-3.37,12.33,12.33,0,0,1,5.65-1.26,11.59,11.59,0,0,1,4.23.74,9,9,0,0,1,3.22,2.08,9.15,9.15,0,0,1,2,3.24,12,12,0,0,1,.71,4.23,19.16,19.16,0,0,1-.88,5.77,14.53,14.53,0,0,1-2.6,4.89,12.43,12.43,0,0,1-10,4.63A11.48,11.48,0,0,1,291.26,117.72Zm14.94-17.49a7.67,7.67,0,0,0-1.44-2.8,6.8,6.8,0,0,0-2.46-1.86,8.42,8.42,0,0,0-3.51-.67A9.68,9.68,0,0,0,294,96.05a10.74,10.74,0,0,0-3.43,3,12.89,12.89,0,0,0-2,4.27,17.57,17.57,0,0,0-.68,4.9,10.08,10.08,0,0,0,.55,3.41,7.39,7.39,0,0,0,1.6,2.6,7.19,7.19,0,0,0,2.57,1.67,9.38,9.38,0,0,0,3.41.59,8.84,8.84,0,0,0,4.49-1.14,11.45,11.45,0,0,0,3.37-2.94,13.35,13.35,0,0,0,2.14-4.1,14.89,14.89,0,0,0,.74-4.56A12.45,12.45,0,0,0,306.2,100.23Z"></path><path class="cls-1" d="M317.75,93.42l9.81,22h.07l4.55-22h2.27L329.08,118H326.5l-9.82-22h-.07L312,118H309.8l5.3-24.58Z"></path><path class="cls-1" d="M356,93.42l-.41,2h-8.43L342.26,118h-2.34l4.92-22.59h-8.43l.41-2Z"></path><path class="cls-1" d="M369,93.42A6.77,6.77,0,0,1,373.85,95a6,6,0,0,1,1.67,4.57,6.85,6.85,0,0,1-.47,2.53,6.61,6.61,0,0,1-1.31,2.09,6.44,6.44,0,0,1-2,1.44,7,7,0,0,1-2.5.66v.07a3.47,3.47,0,0,1,2.44,1.54,5.49,5.49,0,0,1,.7,2.86,18.33,18.33,0,0,1-.18,2.58,19.86,19.86,0,0,0-.17,2.55,9.65,9.65,0,0,0,.07,1.1,2.24,2.24,0,0,0,.34,1H370a.85.85,0,0,1-.17-.43,6.24,6.24,0,0,1-.1-.8c0-.28,0-.55,0-.81s0-.41,0-.48a14.82,14.82,0,0,1,.17-2.2,13.59,13.59,0,0,0,.17-2.2,5.17,5.17,0,0,0-.74-2.88,2.93,2.93,0,0,0-2.63-1.12H358L355.69,118h-2.34l5.23-24.58Zm-2.27,11.67a9.05,9.05,0,0,0,2.5-.33,6,6,0,0,0,2-1,4.76,4.76,0,0,0,1.38-1.67,5.28,5.28,0,0,0,.5-2.37,4.72,4.72,0,0,0-1-3.24A4.18,4.18,0,0,0,369,95.41h-8.44l-2.06,9.68Z"></path><path class="cls-1" d="M382.45,117.72a8.67,8.67,0,0,1-3.16-2.12,9,9,0,0,1-2-3.28,13.14,13.14,0,0,1-.67-4.27,17.92,17.92,0,0,1,.9-5.68,15,15,0,0,1,2.61-4.84,12.9,12.9,0,0,1,4.2-3.37A12.3,12.3,0,0,1,390,92.9a11.59,11.59,0,0,1,4.23.74,9.13,9.13,0,0,1,3.22,2.08,9,9,0,0,1,2,3.24,12,12,0,0,1,.71,4.23,18.86,18.86,0,0,1-.88,5.77,14.71,14.71,0,0,1-2.6,4.89,12.84,12.84,0,0,1-4.21,3.37,12.66,12.66,0,0,1-5.77,1.26A11.48,11.48,0,0,1,382.45,117.72Zm14.94-17.49a7.67,7.67,0,0,0-1.44-2.8,6.8,6.8,0,0,0-2.46-1.86A8.44,8.44,0,0,0,390,94.9a9.71,9.71,0,0,0-4.84,1.15,10.81,10.81,0,0,0-3.42,3,13.11,13.11,0,0,0-2,4.27,18.33,18.33,0,0,0-.67,4.9,9.83,9.83,0,0,0,.56,3.41,7,7,0,0,0,4.16,4.27,9.42,9.42,0,0,0,3.41.59,8.84,8.84,0,0,0,4.49-1.14,11.45,11.45,0,0,0,3.37-2.94,13.57,13.57,0,0,0,2.14-4.1,14.89,14.89,0,0,0,.74-4.56A12.81,12.81,0,0,0,397.39,100.23Z"></path><path class="cls-1" d="M408.81,93.42,404,116h13.6l-.48,2H401.16l5.31-24.58Z"></path><path class="cls-1" d="M256.1,153.33a3.27,3.27,0,0,0,1.1,1.4,4.72,4.72,0,0,0,1.72.74,9.91,9.91,0,0,0,2.17.22,7.16,7.16,0,0,0,1.65-.2,5.29,5.29,0,0,0,1.5-.63,3.48,3.48,0,0,0,1.1-1.06,2.82,2.82,0,0,0,.43-1.59,2,2,0,0,0-.55-1.46,4.87,4.87,0,0,0-1.43-1,11.83,11.83,0,0,0-2-.72l-2.26-.66a19.12,19.12,0,0,1-2.27-.82,7.7,7.7,0,0,1-2-1.24,5.66,5.66,0,0,1-1.41-1.86,6.09,6.09,0,0,1-.53-2.69,6.79,6.79,0,0,1,.85-3.51,7.33,7.33,0,0,1,2.24-2.36,10.19,10.19,0,0,1,3.12-1.34,14.46,14.46,0,0,1,3.53-.43,14.12,14.12,0,0,1,3.56.43,8,8,0,0,1,2.92,1.4,6.81,6.81,0,0,1,2,2.46,8,8,0,0,1,.74,3.63h-5.13a3.83,3.83,0,0,0-.29-1.74,3,3,0,0,0-.93-1.15,3.82,3.82,0,0,0-1.43-.64,7.57,7.57,0,0,0-1.75-.19,7.39,7.39,0,0,0-1.54.16,4.43,4.43,0,0,0-1.39.51,2.94,2.94,0,0,0-1,1,2.62,2.62,0,0,0-.38,1.44,1.9,1.9,0,0,0,.68,1.5,5.5,5.5,0,0,0,1.61,1,12,12,0,0,0,1.95.62l1.61.36a20.07,20.07,0,0,1,2.65.88,7.09,7.09,0,0,1,2.09,1.29,5.58,5.58,0,0,1,1.36,1.93,7.16,7.16,0,0,1,.48,2.79,7.33,7.33,0,0,1-.91,3.75,7.65,7.65,0,0,1-2.35,2.51,9.88,9.88,0,0,1-3.21,1.4,15.58,15.58,0,0,1-3.55.43q-5.16,0-7.69-2.1c-1.69-1.4-2.53-3.61-2.53-6.61h5.13A4.68,4.68,0,0,0,256.1,153.33Z"></path><path class="cls-1" d="M296.58,134.72l-.93,4.55H282.29l-1.1,5.27h12.36l-.9,4.2H280.3l-1.28,6h13.56l-1,4.55H272.69l5.13-24.59Z"></path><path class="cls-1" d="M312.52,134.72a11.82,11.82,0,0,1,3,.3,5.85,5.85,0,0,1,2.33,1.1,5.12,5.12,0,0,1,1.48,2,8,8,0,0,1,.51,3,6.81,6.81,0,0,1-.41,2.38,6.28,6.28,0,0,1-1.17,2,6.7,6.7,0,0,1-1.79,1.47,6.27,6.27,0,0,1-2.27.75v.07a3.08,3.08,0,0,1,2,1.67,6.69,6.69,0,0,1,.51,2.67c0,.55,0,1.21-.08,2s-.09,1.53-.09,2.29a15.44,15.44,0,0,0,.07,1.56,5.11,5.11,0,0,0,.28,1.3h-5.27c-.07-.3-.13-.58-.17-.85a4.28,4.28,0,0,1-.07-.81,21,21,0,0,1,.14-2.49,23.39,23.39,0,0,0,.13-2.5,3.58,3.58,0,0,0-.25-1.46,2.27,2.27,0,0,0-.73-.91,2.64,2.64,0,0,0-1.12-.47,8,8,0,0,0-1.44-.12h-5.1l-2,9.61h-5.37l5.13-24.59Zm-3.65,11.12a9.52,9.52,0,0,0,2.1-.22,5.84,5.84,0,0,0,1.77-.69,3.57,3.57,0,0,0,1.24-1.2,3.29,3.29,0,0,0,.47-1.77,3.38,3.38,0,0,0-.33-1.61,2.27,2.27,0,0,0-.88-.91A3.52,3.52,0,0,0,312,139a10.54,10.54,0,0,0-1.51-.1h-5.14l-1.44,6.91Z"></path><path class="cls-1" d="M331.11,134.72l-5.2,24.59h-5.4l5.16-24.59Z"></path><path class="cls-1" d="M354.59,134.72l-.94,4.55H340.3l-1.1,5.27h12.35l-.89,4.2H338.3l-1.27,6h13.56l-1,4.55H330.69l5.13-24.59Z"></path><path class="cls-1" d="M359.37,153.33a3.27,3.27,0,0,0,1.1,1.4,4.8,4.8,0,0,0,1.72.74,9.91,9.91,0,0,0,2.17.22,7.31,7.31,0,0,0,1.66-.2,5.11,5.11,0,0,0,1.49-.63,3.38,3.38,0,0,0,1.1-1.06,2.82,2.82,0,0,0,.43-1.59,2,2,0,0,0-.55-1.46,4.81,4.81,0,0,0-1.42-1,12,12,0,0,0-2-.72l-2.26-.66a19.78,19.78,0,0,1-2.27-.82,7.88,7.88,0,0,1-2-1.24,6,6,0,0,1-1.41-1.86,6.23,6.23,0,0,1-.53-2.69,6.69,6.69,0,0,1,.86-3.51,7.22,7.22,0,0,1,2.24-2.36,10,10,0,0,1,3.11-1.34,14.52,14.52,0,0,1,3.53-.43,14.06,14.06,0,0,1,3.56.43,8,8,0,0,1,2.93,1.4,6.79,6.79,0,0,1,2,2.46,8,8,0,0,1,.75,3.63h-5.13a3.82,3.82,0,0,0-.3-1.74,3.07,3.07,0,0,0-.92-1.15,3.86,3.86,0,0,0-1.44-.64,7.57,7.57,0,0,0-1.75-.19,7.39,7.39,0,0,0-1.54.16,4.53,4.53,0,0,0-1.39.51,2.94,2.94,0,0,0-1,1,2.61,2.61,0,0,0-.37,1.44,1.92,1.92,0,0,0,.67,1.5,5.77,5.77,0,0,0,1.61,1,12.27,12.27,0,0,0,2,.62l1.62.36a20.57,20.57,0,0,1,2.65.88,7,7,0,0,1,2.08,1.29,5.33,5.33,0,0,1,1.36,1.93,7.16,7.16,0,0,1,.48,2.79,7.24,7.24,0,0,1-.91,3.75,7.72,7.72,0,0,1-2.34,2.51,9.94,9.94,0,0,1-3.22,1.4,15.5,15.5,0,0,1-3.54.43c-3.45,0-6-.7-7.7-2.1s-2.53-3.61-2.53-6.61h5.13A4.81,4.81,0,0,0,359.37,153.33Z"></path><path class="cls-1" d="M81,.15c-22.51,0-41.84,7.9-57.48,23.49S0,58.23,0,80s8,40.76,23.78,56.4,34.91,23.47,56.92,23.47a80.07,80.07,0,0,0,30.36-5.78l5.11-2.07-3.08-4.57a63.28,63.28,0,0,1-8.62-18.91l-1.27-4.84-4.67,1.8A48.18,48.18,0,1,1,81.28,32.34a47.7,47.7,0,0,1,21.82,5.34l5.52,2.83.95-6.1a61.17,61.17,0,0,1,7.09-20.53L119,9.74l-4.27-2.07A77.46,77.46,0,0,0,81,.15"></path><path class="cls-1" d="M217.43,77.34c-7.57-6.81-21.44-10.88-33.67-14.47l-.43-.13c-7.9-2.33-16.86-5-19.27-7.36-3.25-3.23-4.45-6.05-4.45-10.39A13.83,13.83,0,0,1,164,34.44c2.92-2.85,6.47-4.18,11.18-4.18h1a15.35,15.35,0,0,1,14.42,9.2l.08.15a15.18,15.18,0,0,1,.79,5.44l-.39,5.11,32.16-.07.11-5.25A42.87,42.87,0,0,0,209.8,13.17C200.77,4.44,189.48,0,176.25,0h-1.09c-13.55,0-25,4.4-33.92,13.09A42.93,42.93,0,0,0,127.83,45c0,11.68,3.85,20.78,13.31,31.38C147,83,160.63,87,174.08,91c7.52,2.2,17.83,5.22,19.75,7.43,3.88,4.42,6.12,8,6.12,13.16a16.6,16.6,0,0,1-5.69,13c-3.88,3.56-8.78,5.29-15,5.29h-4.55a20.81,20.81,0,0,1-14.68-5.35,18.37,18.37,0,0,1-4-5.12s-.15-.36-.51-1.09A17.86,17.86,0,0,0,140,107.47l-18.68-.09v4.51c0,13.16,5.22,24.58,15.38,34,9.83,9,22,13.74,36.33,14.1l6.54,0,4.45-.15v0c13.26-.89,24.52-5.54,33.5-13.83,10.14-9.32,15.29-20.9,15.29-34.43,0-10.52-1.87-22-15.42-34.2"></path></svg> 