<?xml version="1.0" encoding="UTF-8"?> <!-- Generator: Adobe Illustrator 25.2.3, SVG Export Plug-In . SVG Version: 6.00 Build 0) --> <svg xmlns="http://www.w3.org/2000/svg" xmlns:xlink="http://www.w3.org/1999/xlink" version="1.1" id="Layer_1" x="0px" y="0px" viewBox="0 0 541.3 158.6" style="enable-background:new 0 0 541.3 158.6;" xml:space="preserve"> <style type="text/css"> .st0{fill:#222227;} </style> <g> <polygon class="st0" points="445.9,89.1 445.9,89.1 438.9,89.1 450.2,69.3 453.2,85.1 456.7,85.1 453,66.3 448.9,66.3 426.5,103.9 430.2,103.9 437.1,92.1 454.5,92.1 456.7,103.9 460.4,103.9 457.5,89.1 "></polygon> <polygon class="st0" points="537.1,66.3 524.8,81 526.2,84.1 541.3,66.3 "></polygon> <polygon class="st0" points="522,84.4 522,84.4 521.8,84 519.3,78.2 519.3,78.1 514.2,66.3 510.1,66.3 519.6,87.8 516.5,103.9 520.1,103.9 523.3,87.5 523.3,87.4 "></polygon> <g> <path class="st0" d="M499.8,68.6c-1.9-1.6-5-2.3-9.2-2.3h-15l-0.6,3.1h3.6l0,0H490c1.2,0,2.4,0.1,3.4,0.3c1.1,0.2,2,0.6,2.8,1.1 c0.8,0.5,1.3,1.2,1.7,2.1c0.3,0.9,0.4,2.1,0.1,3.4c-0.3,1.3-0.7,2.5-1.4,3.4c-0.7,0.9-1.5,1.7-2.5,2.3c-1,0.6-2.1,1.1-3.3,1.3 c-1.2,0.3-2.5,0.4-3.8,0.4h-11.3l2-10.5h-3.6l-5.9,30.6l3.6,0l3.3-17.1h11.4c0.9,0,1.7,0.1,2.6,0.2c0.8,0.1,1.5,0.3,2.1,0.6 c0.6,0.3,1.1,0.8,1.5,1.4c0.4,0.6,0.6,1.4,0.6,2.4c0,0.7-0.1,1.7-0.3,2.8c-0.2,1.1-0.3,2.3-0.5,3.5c-0.1,1.2-0.3,2.4-0.3,3.5 c-0.1,1.1,0.1,2,0.3,2.6l4,0l0.1-0.3c-0.2-0.2-0.4-0.4-0.5-0.8c-0.1-0.3-0.2-0.8-0.2-1.4c0-0.6,0-1.4,0.1-2.3 c0.1-0.9,0.3-2.1,0.5-3.6c0.2-1,0.3-2,0.4-3c0.1-1,0.1-2,0-3c-0.1-0.9-0.5-1.8-0.9-2.5c-0.5-0.7-1.3-1.3-2.3-1.7 c2.4-1,4.2-2.2,5.5-3.6c1.2-1.4,2.1-3.3,2.6-5.7C502.3,72.7,501.7,70.1,499.8,68.6"></path> </g> <polygon class="st0" points="425.6,66.3 411.6,92.2 410.9,93.6 407.6,99.7 407.6,99.7 405.3,103.9 408.8,103.9 429.4,66.3 "></polygon> <polygon class="st0" points="406.6,93.2 402.6,66.3 398.8,66.3 403.9,98.3 "></polygon> <g> <path class="st0" d="M402.5,126l-1.1,6.3h5.1c1.3,0,2.4-0.3,3.2-0.9c0.9-0.6,1.4-1.4,1.6-2.4c0-0.1,0-0.2,0.1-0.4 c0-0.2,0.1-0.3,0.1-0.3c0-1-0.4-1.6-1.2-1.9c-0.8-0.2-1.9-0.4-3.5-0.4H402.5z M400.2,139.1l-1.2,7h5.4c1.7,0,3.1-0.3,4.1-0.8 c1-0.5,1.6-1.4,1.8-2.7c0-0.1,0-0.3,0.1-0.4c0-0.2,0.1-0.3,0.1-0.4c0-1.1-0.5-1.9-1.5-2.2c-1-0.3-2.6-0.5-4.8-0.5H400.2z M385,154.9l6.7-37.7h18c2,0,3.9,0.1,5.5,0.4c1.6,0.2,3.1,0.7,4.3,1.2c1.2,0.6,2.2,1.4,2.9,2.4c0.7,1,1,2.2,1,3.6 c0,0.6-0.1,1.2-0.2,1.9c-0.3,1.8-1.1,3.4-2.3,4.8c-1.2,1.4-2.6,2.6-4.1,3.4c1.6,0.4,2.8,1.2,3.7,2.4c0.9,1.2,1.3,2.6,1.3,4.3 c0,0.6-0.1,1.2-0.2,1.9c-0.7,4-2.6,6.9-5.7,8.7c-3.1,1.8-7.3,2.7-12.5,2.7H385z"></path> </g> <path class="st0" d="M446.9,128.6l1.6,13.5h-7.8L446.9,128.6z M442.7,117.2l-20.2,37.7h12.1l2.3-5h12.3l0.6,5h12.3l-6.9-37.7H442.7 z"></path> <g> <path class="st0" d="M482.1,133.5h4.9c2,0,3.5-0.3,4.6-0.8c1.1-0.6,1.7-1.5,1.9-2.7c0-0.1,0-0.2,0.1-0.4c0-0.2,0.1-0.3,0.1-0.4 c0-1.1-0.4-1.8-1.2-2.4c-0.8-0.5-1.9-0.8-3.2-0.8h-5.8L482.1,133.5z M480.6,141.8l-2.3,13.1h-12.4l6.6-37.7h17.8 c5.4,0,9.3,0.6,11.6,1.9c2.3,1.3,3.5,3.3,3.5,6.2c0,0.8-0.1,1.6-0.3,2.6c-0.4,2.3-1.3,4.2-2.6,5.9c-1.3,1.6-3.1,2.8-5.3,3.4 c1.8,0.7,3.1,1.4,3.9,2.2c0.8,0.8,1.1,2.1,1.1,4c0,1-0.1,2.3-0.4,3.8c-0.1,0.5-0.1,0.9-0.2,1.3c-0.4,2.2-0.6,3.5-0.6,4 c0,0.8,0.3,1.3,0.9,1.3l-0.2,1.2h-12.5v-0.4c0-0.3-0.1-0.5-0.1-0.7c0-1.4,0.2-3.2,0.6-5.5c0.2-1.2,0.4-2.2,0.4-2.9 c0-1.3-0.4-2.3-1.3-2.8c-0.8-0.5-2.4-0.8-4.6-0.8H480.6z"></path> <path class="st0" d="M340.6,89.4l-31.2-0.3l-8,30.2l-21.7-0.2l8-30.2l-31.2-0.3l4.9-19l31.2,0.3l7.8-29.1l21.7,0.2l-7.7,29.1 l31.2,0.3L340.6,89.4z M249.2,56.8h-33.9c0.2-3.4-1.1-5.8-3.7-7.3c-2.3-1.3-5.2-1.9-8.9-1.9c-7.6,0-11.7,2-12.5,6.1 c-0.5,2.8,0.7,4.9,3.8,6.5c3.1,1.5,8.1,3.2,15.2,4.8c6.1,1.6,11,3.1,15,4.4c3.9,1.3,7.7,3.2,11.2,5.7c3.5,2.4,6.1,5.6,7.9,9.4 c1.7,3.9,2,8.6,0.9,14.3c-2.3,12-8.7,21.1-19.2,27.4c-10.5,6.3-23.5,9.4-39,9.4c-7,0-13.2-0.9-18.8-2.8 c-5.5-1.9-10.1-4.5-13.7-7.8c-3.6-3.3-6.2-7.1-7.7-11.4c-1.5-4.3-1.9-8.9-1.2-13.8h34.2c0,3.8,1.4,6.6,4.2,8.5 c2.6,1.8,5.8,2.7,9.6,2.7c4.6,0,8.3-0.7,11.2-2.1c2.9-1.4,4.7-3.3,5.1-5.8c0.5-2.8-0.7-4.9-3.7-6.4c-3-1.5-8-3.1-15.1-4.8 c-6.1-1.5-11.1-2.9-15.1-4.2c-4-1.3-7.7-3.3-11.3-5.7c-3.6-2.5-6.2-5.8-7.9-9.8c-1.7-4.1-2-9.1-0.8-15c2.1-11,8.1-19.4,18-25.3 c9.8-5.9,21.8-8.8,35.9-8.8c7.4,0,13.7,0.9,19,2.6c5.3,1.7,9.5,4.1,12.7,7.2c3.2,3.1,5.5,6.7,6.9,10.8 C249,47.6,249.6,52.1,249.2,56.8 M120.7,123.8c-10.9,7.9-23.5,11.8-38,11.8c-8.9,0-16.7-1.3-23.3-3.9c-6.7-2.6-12-6.3-16.1-11.3 c-4.1-4.9-6.8-10.9-8-17.9c-1.3-7-1.1-14.8,0.6-23.4c1.7-8.5,4.5-16.3,8.7-23.2c4.1-6.9,9.1-12.9,15.1-17.8 c5.9-4.9,12.4-8.7,19.5-11.3c7.1-2.6,14.5-3.9,22-3.9c16.4,0,28.6,3.8,36.5,11.4c7.9,7.6,11.1,18.4,9.8,32.3h-33.9 c0.6-5.5-0.6-9.9-3.4-12.9c-2.8-3.1-7-4.6-12.6-4.6c-6.4,0-11.8,2.6-16.4,8c-4.6,5.3-7.8,13.1-9.8,23.3c-0.8,4.2-1.2,7.9-1.3,11.3 c-0.1,3.4,0.4,6.4,1.4,9.2c1,2.7,2.8,4.9,5.3,6.4c2.6,1.5,6,2.3,10.4,2.3c5.4,0,10-1.7,13.7-5c3.7-3.3,6.4-7.7,8.2-13.2h34.4 C139.2,105.1,131.6,115.9,120.7,123.8 M373.7,13.4c-4.7-6-12-9.7-19.8-9.7H51c-9.4,0-20.7,6.4-24.3,18.8L26.1,25L0.8,123.6 c-1.9,7.5-0.3,15.5,4.5,21.6c4.8,6.2,12.1,9.7,19.8,9.7h302.9c11.5,0,21.5-7.8,24.3-18.8l25.9-101 C380.2,27.6,378.5,19.5,373.7,13.4"></path> </g> </g> </svg> 