<?xml version="1.0" encoding="UTF-8"?> <!-- Generator: Adobe Illustrator 26.0.2, SVG Export Plug-In . SVG Version: 6.00 Build 0) --> <svg xmlns="http://www.w3.org/2000/svg" xmlns:xlink="http://www.w3.org/1999/xlink" version="1.1" id="Layer_1" x="0px" y="0px" viewBox="0 0 234.3 38.4" style="enable-background:new 0 0 234.3 38.4;" xml:space="preserve"> <style type="text/css"> .st0{fill:#231F20;} </style> <path class="st0" d="M5.5,29.1c0.7,0,1.4,0.2,2,0.6c0.5,0.5,0.8,1.2,0.7,1.9c0,0.3-0.1,0.6-0.2,0.9c-0.1,0.3-0.3,0.7-0.6,0.9 c-0.3,0.3-0.7,0.6-1.1,0.7c-0.5,0.2-1.1,0.3-1.7,0.3H2l-0.8,3.7H0l1.9-9.1L5.5,29.1z M5,33.5c0.6,0,1.1-0.1,1.5-0.5 C6.8,32.6,7,32.1,7,31.6c0-0.2,0-0.5-0.1-0.7c-0.1-0.2-0.2-0.3-0.3-0.5c-0.2-0.1-0.3-0.2-0.6-0.2c-0.2-0.1-0.4-0.1-0.6-0.1H2.9 l-0.7,3.3H5z"></path> <path class="st0" d="M16.4,29.1l-0.2,1h-5L10.6,33h4.7l-0.2,1h-4.7l-0.7,3.1h5.1l-0.2,1H8.2l1.9-9.1L16.4,29.1z"></path> <path class="st0" d="M21.4,29.1c0.4,0,0.7,0,1.1,0.1c0.4,0.1,0.7,0.2,1,0.4c0.3,0.2,0.5,0.4,0.7,0.7c0.2,0.3,0.3,0.7,0.2,1.1 c0,0.3-0.1,0.6-0.2,0.9c-0.1,0.3-0.2,0.5-0.4,0.8c-0.2,0.2-0.4,0.4-0.6,0.5c-0.3,0.1-0.5,0.2-0.8,0.3l0,0c0.2,0.1,0.4,0.1,0.5,0.3 c0.1,0.1,0.2,0.3,0.3,0.5c0.1,0.2,0.1,0.4,0.1,0.6c0,0.2,0,0.4,0,0.7c0,0.2,0,0.4-0.1,0.6s-0.1,0.4-0.1,0.6c0,0.2,0,0.4,0,0.6 c0,0.2,0.1,0.4,0.2,0.5h-1.3C22,37.9,22,37.7,22,37.4c0-0.4,0-0.8,0.1-1.2c0.1-0.3,0.1-0.7,0-1c0-0.2-0.1-0.4-0.2-0.6 c-0.1-0.1-0.2-0.2-0.3-0.3c-0.1,0-0.3-0.1-0.4-0.1H18l-0.8,3.9H16l1.9-9.1L21.4,29.1z M21,33.3c0.4,0,0.8,0,1.1-0.2 c0.3-0.1,0.5-0.3,0.7-0.5c0.2-0.2,0.3-0.4,0.3-0.6c0-0.2,0.1-0.4,0.1-0.5c0-0.2,0-0.5-0.1-0.7c-0.1-0.2-0.2-0.3-0.4-0.4 c-0.2-0.1-0.4-0.2-0.6-0.2c-0.2,0-0.4-0.1-0.7-0.1h-2.5l-0.7,3.2H21z"></path> <path class="st0" d="M32.6,29.1l-0.2,1h-4.8L27,33h4.2L31,34h-4.2l-0.9,4.2h-1.2l1.9-9.1L32.6,29.1z"></path> <path class="st0" d="M32.8,32.3c0.2-0.6,0.6-1.2,1-1.8c0.4-0.5,1-0.9,1.6-1.2c0.7-0.3,1.4-0.5,2.1-0.5c0.5,0,1.1,0.1,1.6,0.3 c0.5,0.2,0.9,0.5,1.2,0.9c0.3,0.4,0.6,0.8,0.8,1.3c0.2,0.5,0.3,1,0.3,1.6c0,0.7-0.1,1.4-0.4,2.1c-0.2,0.6-0.6,1.2-1,1.8 c-0.4,0.5-0.9,0.9-1.5,1.2c-0.6,0.3-1.3,0.5-2,0.5c-1.1,0.1-2.1-0.3-2.9-1c-0.7-0.8-1.1-1.9-1-2.9C32.4,33.8,32.5,33,32.8,32.3z M33.8,35.6c0.1,0.3,0.3,0.7,0.5,0.9c0.2,0.3,0.5,0.5,0.8,0.6c0.4,0.2,0.8,0.2,1.2,0.2c0.6,0,1.1-0.1,1.6-0.4c0.5-0.2,0.8-0.6,1.2-1 c0.3-0.4,0.6-0.9,0.7-1.4c0.2-0.5,0.3-1.1,0.3-1.6c0-0.4-0.1-0.8-0.2-1.2c-0.1-0.3-0.3-0.7-0.5-1c-0.2-0.3-0.5-0.5-0.8-0.6 c-0.3-0.2-0.7-0.2-1.1-0.2c-0.6,0-1.2,0.1-1.7,0.4c-0.5,0.2-0.9,0.6-1.2,1c-0.3,0.4-0.6,0.9-0.7,1.4c-0.2,0.5-0.2,1.1-0.2,1.6 C33.6,34.8,33.7,35.2,33.8,35.6L33.8,35.6z"></path> <path class="st0" d="M47.1,29.1c0.4,0,0.7,0,1.1,0.1c0.4,0.1,0.7,0.2,1,0.4c0.3,0.2,0.5,0.4,0.7,0.7c0.2,0.3,0.3,0.7,0.2,1.1 c0,0.3,0,0.6-0.2,0.9c-0.1,0.3-0.2,0.5-0.4,0.8c-0.2,0.2-0.4,0.4-0.6,0.5c-0.3,0.2-0.5,0.2-0.8,0.3l0,0c0.2,0.1,0.4,0.1,0.5,0.3 c0.1,0.1,0.2,0.3,0.3,0.5C49,34.8,49,35,49,35.2c0,0.2,0,0.4,0,0.7c0,0.2,0,0.4-0.1,0.6s-0.1,0.4-0.1,0.6c0,0.2,0,0.4,0,0.6 c0,0.2,0.1,0.4,0.2,0.5h-1.3c-0.1-0.2-0.1-0.5-0.1-0.8c0-0.4,0-0.8,0.1-1.2c0.1-0.3,0.1-0.7,0.1-1c0-0.2-0.1-0.4-0.2-0.6 c-0.1-0.1-0.2-0.2-0.3-0.3c-0.1,0-0.3-0.1-0.4-0.1h-3.2l-0.8,3.9h-1.2l1.9-9.1L47.1,29.1z M46.7,33.3c0.4,0,0.8,0,1.2-0.2 c0.3-0.1,0.5-0.3,0.7-0.5c0.1-0.2,0.3-0.4,0.3-0.6c0-0.2,0.1-0.4,0.1-0.5c0-0.2,0-0.5-0.2-0.7c-0.1-0.2-0.2-0.3-0.4-0.4 c-0.2-0.1-0.4-0.2-0.6-0.2c-0.2,0-0.4-0.1-0.7-0.1h-2.5l-0.7,3.2H46.7z"></path> <path class="st0" d="M54,29.1l1.2,7.8l0,0l4.5-7.8h1.7l-1.9,9.1h-1.2l1.9-8l0,0l-4.6,8h-1.2l-1.2-8l0,0l-1.6,8h-1.2l1.9-9.1L54,29.1 z"></path> <path class="st0" d="M67.5,29.1l1.6,9.1h-1.2l-0.4-2.7h-3.8L62,38.2h-1.3l5.5-9.1H67.5z M67.3,34.4l-0.7-4.3l0,0l-2.4,4.3H67.3z"></path> <path class="st0" d="M73.2,29.1l3.2,7.5l0,0l1.6-7.5h1.2l-1.9,9.1h-1.3l-3.2-7.5l0,0l-1.5,7.5H70l1.9-9.1H73.2z"></path> <path class="st0" d="M86.1,37.5c-0.8,0.6-1.7,0.9-2.7,0.9c-1.1,0.1-2.1-0.3-2.9-1c-0.7-0.8-1.1-1.9-1-2.9c0-0.7,0.1-1.4,0.3-2.1 c0.2-0.6,0.6-1.2,1-1.8c0.4-0.5,1-0.9,1.6-1.2c0.7-0.3,1.4-0.5,2.1-0.5c0.5,0,0.9,0.1,1.4,0.2c0.4,0.1,0.8,0.3,1.1,0.6 c0.3,0.3,0.6,0.6,0.7,1c0.2,0.4,0.3,0.9,0.3,1.3h-1.2c0-0.6-0.2-1.2-0.6-1.6c-0.5-0.4-1-0.5-1.6-0.5c-0.6,0-1.2,0.1-1.7,0.4 c-0.5,0.2-0.9,0.6-1.2,1c-0.3,0.4-0.6,0.9-0.7,1.5c-0.2,0.5-0.2,1.1-0.2,1.6c0,0.4,0.1,0.8,0.2,1.2c0.1,0.3,0.3,0.7,0.5,0.9 c0.2,0.3,0.5,0.5,0.8,0.6c0.4,0.2,0.8,0.2,1.2,0.2c0.7,0,1.3-0.2,1.8-0.6c0.5-0.4,0.8-1,1-1.7h1.2C87.3,36,86.8,36.9,86.1,37.5z"></path> <path class="st0" d="M96.5,29.1l-0.2,1h-5L90.7,33h4.7l-0.2,1h-4.7l-0.7,3.1h5.1l-0.2,1h-6.3l1.9-9.1L96.5,29.1z"></path> <path class="st0" d="M100.5,38.2l1.6-9.2h7.1l-0.4,2.1h-4.1l-0.3,1.7h3.3l-0.4,2.2h-3.3l-0.6,3.2L100.5,38.2z"></path> <path class="st0" d="M112.4,35l-0.6,3.2h-3l1.6-9.2h4.3c1-0.1,1.9,0.1,2.8,0.5c0.5,0.3,0.9,0.9,0.8,1.5c0,0.2,0,0.4-0.1,0.6 c-0.1,0.5-0.3,1-0.6,1.4c-0.3,0.4-0.8,0.7-1.3,0.8c0.4,0.1,0.7,0.3,1,0.5c0.2,0.3,0.3,0.6,0.3,1c0,0.3,0,0.6-0.1,0.9 c0,0.1,0,0.2-0.1,0.3c-0.1,0.3-0.1,0.7-0.1,1c0,0.2,0.1,0.3,0.2,0.3v0.3h-3v-0.1c0-0.1,0-0.1,0-0.2c0-0.4,0.1-0.9,0.1-1.3 c0.1-0.2,0.1-0.5,0.1-0.7c0-0.3-0.1-0.5-0.3-0.7c-0.3-0.2-0.7-0.2-1.1-0.2L112.4,35z M112.7,33h1.2c0.4,0,0.8,0,1.1-0.2 c0.3-0.1,0.4-0.4,0.5-0.7c0,0,0-0.1,0-0.1c0,0,0-0.1,0-0.1c0-0.2-0.1-0.4-0.3-0.6c-0.2-0.1-0.5-0.2-0.8-0.2H113L112.7,33z"></path> <path class="st0" d="M118.9,38.2l1.6-9.2h7.5l-0.4,2.1h-4.5l-0.2,1.3h3.8l-0.4,2.1h-3.8l-0.3,1.4h4.6l-0.4,2.1L118.9,38.2z"></path> <path class="st0" d="M128.1,38.2l1.6-9.2h7.5l-0.4,2.1h-4.5l-0.2,1.3h3.8l-0.4,2.1h-3.8l-0.3,1.4h4.6l-0.4,2.1L128.1,38.2z"></path> <path class="st0" d="M143.1,31.7c0-0.3-0.1-0.5-0.3-0.6c-0.2-0.1-0.5-0.2-0.8-0.2c-0.6,0-1,0.2-1.1,0.5v0.1c0,0.2,0.1,0.4,0.4,0.5 c0.4,0.2,0.8,0.3,1.2,0.4c0.5,0.1,0.9,0.2,1.2,0.3c0.3,0.1,0.6,0.2,0.9,0.4c0.3,0.2,0.5,0.4,0.7,0.7c0.2,0.3,0.3,0.6,0.3,1 c0,0.2,0,0.3,0,0.5c-0.2,1-0.8,1.9-1.6,2.3c-1,0.6-2.1,0.8-3.3,0.8c-0.5,0-1-0.1-1.5-0.2c-0.4-0.1-0.8-0.3-1.1-0.6 c-0.3-0.2-0.5-0.5-0.7-0.9c-0.2-0.4-0.3-0.9-0.2-1.4h2.9c0,0.3,0.1,0.6,0.4,0.7c0.2,0.2,0.5,0.2,0.8,0.2c0.3,0,0.6,0,0.9-0.2 c0.2-0.1,0.4-0.3,0.4-0.5c0,0,0,0,0,0l0,0c0-0.2-0.2-0.4-0.4-0.5c-0.4-0.2-0.8-0.3-1.2-0.4c-0.5-0.1-0.9-0.2-1.2-0.3 c-0.3-0.1-0.6-0.2-0.9-0.4c-0.3-0.2-0.5-0.4-0.7-0.7c-0.2-0.3-0.3-0.6-0.3-1c0-0.2,0-0.3,0.1-0.5c0.1-0.9,0.7-1.7,1.5-2.2 c0.9-0.5,1.9-0.8,3-0.8c0.5,0,1,0.1,1.6,0.2c0.4,0.1,0.8,0.3,1.1,0.6c0.3,0.3,0.5,0.6,0.6,0.9c0.1,0.4,0.2,0.8,0.2,1.2L143.1,31.7z"></path> <path class="st0" d="M147.5,29h8.4l-0.4,2.4h-2.7l-1.2,6.8h-3l1.2-6.8h-2.7L147.5,29z"></path> <path class="st0" d="M161.1,38.2h-3l0.6-3.3l-2.4-5.8h3.4l1,3.1l2.1-3.1h3.3l-4.4,5.8L161.1,38.2z"></path> <path class="st0" d="M165.6,38.2l1.6-9.2h3l-1.2,7h4.1l-0.4,2.1L165.6,38.2z"></path> <path class="st0" d="M174,38.2l1.6-9.2h7.5l-0.4,2.1h-4.5l-0.3,1.3h3.8l-0.4,2.1h-3.8l-0.2,1.4h4.6l-0.4,2.1L174,38.2z"></path> <g> <path class="st0" d="M26,24.9h-8.8l-0.3-3.1h-6.6l-1.5,3.1H0L13.4,0.6H22L26,24.9z M18.3,23.8h6.3L21,1.8h-6.9L2,23.8h6l1.5-3.1 h8.5L18.3,23.8z M17.7,17.1h-6.4L16.6,6L17.7,17.1z M13.2,15.9h3.2l-0.5-5.5L13.2,15.9z"></path> <path class="st0" d="M38,25.6c-1.5,0-3-0.2-4.4-0.8c-1.3-0.5-2.5-1.3-3.4-2.4c-0.9-1.2-1.6-2.5-1.8-4c-0.3-1.8-0.3-3.6,0.1-5.4 c0.3-1.8,1-3.6,1.9-5.2c0.9-1.6,2-2.9,3.3-4.1c1.3-1.1,2.9-2,4.5-2.6c1.7-0.6,3.6-1,5.4-1c3,0,5.4,0.8,7.3,2.4 c1.8,1.6,2.7,3.9,2.6,6.8v0.6h-8.4l-0.1-0.5c0-0.7-0.3-1.3-0.8-1.8c-0.5-0.4-1.2-0.7-1.9-0.6c-1.3,0-2.4,0.6-3.2,1.6 c-1,1.4-1.7,3-2,4.7c-0.2,0.8-0.2,1.5-0.2,2.3c0,0.6,0.1,1.2,0.4,1.7c0.2,0.5,0.5,0.8,1,1.1c0.6,0.3,1.3,0.4,1.9,0.4 c0.8,0,1.6-0.2,2.3-0.7c0.4-0.2,0.7-0.5,1-0.8h-3l1.2-6.2h11.6l-2.7,14h-6l0.1-1.5c-0.7,0.5-1.5,0.9-2.2,1.2 C41.1,25.3,39.6,25.6,38,25.6z M43.6,1.2c-1.7,0-3.4,0.3-5,0.9c-1.5,0.6-2.9,1.4-4.2,2.5c-1.2,1.1-2.3,2.4-3.1,3.8 c-0.8,1.5-1.4,3.2-1.8,4.9c-0.4,1.6-0.4,3.3-0.1,4.9c0.4,2.5,2.1,4.6,4.5,5.5c1.3,0.5,2.6,0.7,3.9,0.7c1.4,0,2.8-0.2,4.1-0.7 c1.1-0.5,2.1-1.1,3-1.9l1.1-1.1L46,23.8h3.8L52,12.2h-9.2L42.1,16h3.5l-0.4,0.8c-0.4,0.9-1.2,1.7-2.1,2.2c-0.9,0.5-1.8,0.8-2.8,0.9 c-0.9,0-1.8-0.2-2.5-0.6c-0.7-0.4-1.2-0.9-1.5-1.6c-0.3-0.7-0.4-1.4-0.5-2.2c0-0.9,0.1-1.7,0.2-2.6c0.3-1.9,1.1-3.7,2.2-5.2 c1-1.3,2.5-2.1,4.1-2c1,0,2,0.3,2.7,0.9c0.6,0.5,1,1.3,1.1,2h6.1c0-2.3-0.8-4.1-2.2-5.3C48.5,1.9,46.3,1.2,43.6,1.2z"></path> <path class="st0" d="M73,24.9h-8.8L69,0.6h11.6c3.4,0,5.9,0.8,7.4,2.2s2.1,3.6,1.5,6.3c-0.4,2.5-1.8,4.8-3.8,6.3 c-2,1.5-4.6,2.3-8,2.3h-3.3L73,24.9z M65.7,23.8h6.4l1.4-7.2h4.3c3.1,0,5.5-0.7,7.3-2c1.8-1.4,3-3.4,3.3-5.6c0.4-2.3,0-4-1.2-5.2 s-3.5-1.9-6.6-1.9H69.9L65.7,23.8z M78.1,12.3h-3.9L75.5,6h2.6c0.5,0,1,0,1.5,0.1c0.5,0.1,0.9,0.2,1.4,0.4c0.5,0.2,0.8,0.5,1.1,1 c0.3,0.5,0.4,1.1,0.2,1.7c-0.1,1-0.7,1.9-1.5,2.4C80,12.1,79.1,12.4,78.1,12.3z M75.7,11.2h2.4c0.7,0,1.4-0.2,2-0.5 c0.5-0.4,0.9-1,1-1.7c0.1-0.3,0.1-0.6-0.1-0.8c-0.1-0.2-0.3-0.4-0.6-0.5c-0.3-0.2-0.7-0.3-1-0.3c-0.4-0.1-0.9-0.1-1.3-0.1h-1.7 L75.7,11.2z"></path> <path class="st0" d="M110.8,24.9h-8.7l-0.1-0.5c-0.1-0.6-0.1-1.1,0-1.7c0.1-0.7,0.2-1.6,0.4-2.6c0.1-0.6,0.2-1.2,0.2-1.9 c0-0.3-0.1-0.6-0.2-0.8c-0.2-0.2-0.5-0.4-0.8-0.4c-0.6-0.1-1.3-0.2-1.9-0.2h-1.8l-1.6,8.1h-8.8l4.7-24.3h11.4c4,0,6.6,0.6,8,1.7 c1.5,1.1,2,3.1,1.5,5.6c-0.3,1.4-0.9,2.8-1.8,3.9c-0.6,0.7-1.3,1.3-2.2,1.7c0.1,0.1,0.3,0.1,0.4,0.2c0.5,0.3,0.9,0.7,1.1,1.1 c0.3,0.6,0.5,1.3,0.5,2c0,1-0.1,1.9-0.3,2.9c-0.2,1.1-0.4,2.1-0.5,3.2v0.1h0.7L110.8,24.9z M103.2,23.8h6.3 c-0.1-0.3-0.2-0.6-0.2-0.8c0.1-1.2,0.3-2.3,0.5-3.4c0.2-0.9,0.3-1.8,0.3-2.6c0-0.5-0.1-1-0.3-1.4c-0.2-0.3-0.4-0.6-0.7-0.8 c-0.5-0.3-1-0.5-1.5-0.7l-1.7-0.7l1.8-0.5c1.2-0.3,2.2-0.9,3-1.9c0.8-1,1.3-2.1,1.5-3.3c0.4-2.1,0-3.6-1.1-4.4 c-1.2-0.9-3.7-1.4-7.3-1.4H93.3l-4.3,22h6.4l1.6-8.1h2.8c0.8,0,1.5,0.1,2.3,0.2c1.1,0.2,1.9,1.3,1.8,2.4c0,0.7-0.1,1.4-0.2,2.1 c-0.2,0.9-0.3,1.8-0.4,2.5C103.2,23.3,103.2,23.5,103.2,23.8L103.2,23.8z M101.4,11.8h-3.7L98.8,6h4c0.9-0.1,1.8,0.2,2.5,0.8 c0.7,0.6,0.9,1.5,0.7,2.4c-0.1,0.9-0.7,1.7-1.5,2.1C103.5,11.7,102.5,11.9,101.4,11.8z M99.2,10.6h2.3c0.9,0,1.7-0.1,2.5-0.4 c0.5-0.2,0.8-0.7,0.9-1.3c0.2-0.8-0.1-1.1-0.3-1.2c-0.5-0.4-1.1-0.5-1.7-0.5h-3L99.2,10.6z"></path> <path class="st0" d="M124.6,25.6c-1.7,0-3.4-0.3-5-0.9c-1.4-0.5-2.7-1.4-3.6-2.6c-1-1.2-1.6-2.7-1.8-4.2c-0.3-1.8-0.2-3.6,0.1-5.4 c0.3-1.8,1-3.5,1.9-5.1c0.9-1.5,2-2.9,3.4-4c1.3-1.1,2.9-2,4.5-2.5c1.7-0.6,3.5-0.9,5.3-0.9c1.8,0,3.7,0.3,5.3,1l0,0 c1.4,0.6,2.6,1.6,3.5,2.9c0.9,1.2,1.4,2.6,1.6,4.1c0.2,1.6,0.2,3.2-0.1,4.7c-0.3,1.9-1,3.7-2,5.4c-1.8,3.1-4.6,5.4-8,6.6 C128.1,25.3,126.3,25.6,124.6,25.6z M129.3,1.2c-1.7,0-3.3,0.3-4.9,0.8c-3.1,1-5.7,3.2-7.3,6c-0.8,1.5-1.4,3.1-1.8,4.7 c-0.4,1.6-0.4,3.3-0.1,5c0.2,1.3,0.8,2.6,1.6,3.7c0.8,1,1.9,1.8,3.1,2.2c1.5,0.5,3,0.8,4.6,0.8c1.6,0,3.2-0.3,4.8-0.8 c1.5-0.5,3-1.3,4.2-2.3c1.3-1,2.4-2.3,3.2-3.7c0.9-1.5,1.5-3.2,1.9-5c0.3-1.4,0.3-2.9,0.1-4.3c-0.2-1.3-0.7-2.5-1.5-3.6 c-0.8-1.1-1.8-2-3.1-2.5l0,0C132.6,1.5,131,1.1,129.3,1.2z M125.7,19.9c-0.9,0-1.7-0.2-2.4-0.7c-0.6-0.5-1.1-1.1-1.3-1.9 c-0.2-0.7-0.4-1.5-0.3-2.3c0-0.8,0.1-1.7,0.3-2.5c0.2-0.8,0.4-1.6,0.7-2.4c0.3-0.8,0.7-1.5,1.2-2.2c0.5-0.7,1.1-1.2,1.9-1.6l0,0 c0.8-0.4,1.6-0.7,2.5-0.7c0.8,0,1.6,0.2,2.3,0.6c0.6,0.4,1.1,1,1.4,1.7c0.3,0.7,0.5,1.5,0.5,2.3c0,0.8-0.1,1.7-0.2,2.5 c-0.3,1.9-1,3.6-2.2,5.1C128.9,19.2,127.3,19.9,125.7,19.9z M126.2,7.3c-0.6,0.3-1.1,0.8-1.5,1.3c-0.4,0.6-0.8,1.2-1.1,1.9 c-0.3,0.7-0.5,1.5-0.7,2.2c-0.1,0.7-0.2,1.5-0.2,2.3c0,0.7,0.1,1.3,0.3,1.9c0.2,0.5,0.5,1,0.9,1.3c0.5,0.3,1.1,0.5,1.7,0.5 c1.3,0,2.5-0.5,3.3-1.6c1-1.4,1.7-2.9,1.9-4.6c0.2-0.7,0.2-1.5,0.2-2.2c0-0.6-0.1-1.3-0.4-1.8c-0.2-0.5-0.5-0.9-1-1.2 c-0.5-0.3-1.1-0.5-1.7-0.4C127.5,6.8,126.8,7,126.2,7.3L126.2,7.3z"></path> </g> </svg> 