<?xml version="1.0" encoding="UTF-8"?> <svg xmlns="http://www.w3.org/2000/svg" id="Layer_1" data-name="Layer 1" viewBox="0 0 169.35 38.42"><defs><style>.cls-1{fill:#231f20;}</style></defs><path class="cls-1" d="M5.55,29a3,3,0,0,1,2,.63,2.43,2.43,0,0,1,.7,1.91,3,3,0,0,1-.17.93,2.54,2.54,0,0,1-.57,1,2.94,2.94,0,0,1-1.09.73,4.17,4.17,0,0,1-1.69.29H2l-.8,3.77H0L1.93,29ZM5,33.41a2.06,2.06,0,0,0,1.53-.52,1.86,1.86,0,0,0,.51-1.35,1.9,1.9,0,0,0-.12-.72,1.14,1.14,0,0,0-.33-.46,1.16,1.16,0,0,0-.48-.25A1.81,1.81,0,0,0,5.55,30H3l-.71,3.38Z"></path><path class="cls-1" d="M13.87,29a5.35,5.35,0,0,1,1.13.11,2.77,2.77,0,0,1,1,.38,2,2,0,0,1,.68.72,2.28,2.28,0,0,1,.25,1.13,2.64,2.64,0,0,1-.15.89,2.77,2.77,0,0,1-.43.75,2.33,2.33,0,0,1-.65.56,2.24,2.24,0,0,1-.85.28v0a1.17,1.17,0,0,1,.5.28,1.44,1.44,0,0,1,.31.46,2.13,2.13,0,0,1,.14.59,3.75,3.75,0,0,1,0,.67c0,.21,0,.41-.08.61s-.06.41-.08.61a2.91,2.91,0,0,0,0,.59,1.41,1.41,0,0,0,.17.55H14.5a2.68,2.68,0,0,1-.1-.76,5.2,5.2,0,0,1,.13-1.21,4.05,4.05,0,0,0,.05-1,1.37,1.37,0,0,0-.18-.59.72.72,0,0,0-.35-.28,1.06,1.06,0,0,0-.42-.09H10.42l-.83,3.93H8.37l2-9.21Zm-.47,4.24a3,3,0,0,0,1.17-.19,1.94,1.94,0,0,0,.69-.47,1.43,1.43,0,0,0,.33-.6,2,2,0,0,0,.08-.56,1.41,1.41,0,0,0-.15-.69,1.13,1.13,0,0,0-.41-.43,1.68,1.68,0,0,0-.57-.21,3.71,3.71,0,0,0-.67-.06H11.32l-.68,3.21Z"></path><path class="cls-1" d="M18,32.26a5.49,5.49,0,0,1,1-1.79,4.66,4.66,0,0,1,3.71-1.69,4,4,0,0,1,1.61.31,3.44,3.44,0,0,1,1.21.87,3.7,3.7,0,0,1,.76,1.29,4.73,4.73,0,0,1,.27,1.61A6.68,6.68,0,0,1,26.18,35a5.81,5.81,0,0,1-1,1.78A4.75,4.75,0,0,1,23.63,38a4.5,4.5,0,0,1-2.07.46,3.9,3.9,0,0,1-2.92-1.05,4.07,4.07,0,0,1-1-3A6.52,6.52,0,0,1,18,32.26ZM19,35.62a2.69,2.69,0,0,0,.5,1,2.28,2.28,0,0,0,.84.61,3,3,0,0,0,1.21.22,3.19,3.19,0,0,0,1.62-.4,3.76,3.76,0,0,0,1.16-1,4.56,4.56,0,0,0,.71-1.45,5.81,5.81,0,0,0,.24-1.64,4,4,0,0,0-.17-1.21,2.59,2.59,0,0,0-.5-1,2.46,2.46,0,0,0-.82-.64,2.51,2.51,0,0,0-1.13-.24,3.24,3.24,0,0,0-1.68.41,3.8,3.8,0,0,0-1.2,1.05,4.61,4.61,0,0,0-.71,1.46,5.9,5.9,0,0,0-.24,1.66A4,4,0,0,0,19,35.62Z"></path><path class="cls-1" d="M32.84,38.15a4.25,4.25,0,0,1-1.48.27,3.88,3.88,0,0,1-2.92-1.05,4.07,4.07,0,0,1-1-3,6.52,6.52,0,0,1,.35-2.13,5.31,5.31,0,0,1,1-1.79,4.75,4.75,0,0,1,1.59-1.24,4.88,4.88,0,0,1,2.12-.45,5.57,5.57,0,0,1,1.44.18,3.23,3.23,0,0,1,1.18.56,2.55,2.55,0,0,1,.79,1,3,3,0,0,1,.29,1.38H35a2,2,0,0,0-.2-.92,1.83,1.83,0,0,0-.54-.63,2.18,2.18,0,0,0-.78-.38,3.77,3.77,0,0,0-1-.12,3.22,3.22,0,0,0-1.68.41,3.8,3.8,0,0,0-1.2,1.05,4.63,4.63,0,0,0-.72,1.46,6.27,6.27,0,0,0-.23,1.66,4.31,4.31,0,0,0,.16,1.23,2.71,2.71,0,0,0,.51,1,2.28,2.28,0,0,0,.84.61,3,3,0,0,0,1.21.22,3.33,3.33,0,0,0,1.28-.22,2.82,2.82,0,0,0,1-.61,3.46,3.46,0,0,0,.67-1,6.82,6.82,0,0,0,.43-1.23H31.75l.2-1h4l-1,4.85h-.77l-.08-.91A3.39,3.39,0,0,1,32.84,38.15Z"></path><path class="cls-1" d="M42.31,29a5.35,5.35,0,0,1,1.13.11,2.77,2.77,0,0,1,1,.38,2,2,0,0,1,.68.72,2.28,2.28,0,0,1,.25,1.13,2.64,2.64,0,0,1-.15.89,2.77,2.77,0,0,1-.43.75,2.33,2.33,0,0,1-.65.56,2.24,2.24,0,0,1-.85.28v0a1.17,1.17,0,0,1,.5.28,1.44,1.44,0,0,1,.31.46,2.13,2.13,0,0,1,.14.59,3,3,0,0,1,0,.67,6,6,0,0,1-.07.61c0,.21-.06.41-.08.61a2.91,2.91,0,0,0,0,.59,1.41,1.41,0,0,0,.17.55H42.94a2.36,2.36,0,0,1-.1-.76A5.2,5.2,0,0,1,43,36.24a4.05,4.05,0,0,0,.05-1,1.37,1.37,0,0,0-.18-.59.77.77,0,0,0-.35-.28,1.06,1.06,0,0,0-.42-.09H38.86L38,38.21H36.81L38.76,29Zm-.47,4.24A3,3,0,0,0,43,33.05a1.94,1.94,0,0,0,.69-.47A1.55,1.55,0,0,0,44,32a2,2,0,0,0,.08-.56,1.41,1.41,0,0,0-.15-.69,1.13,1.13,0,0,0-.41-.43,1.77,1.77,0,0,0-.57-.21,3.71,3.71,0,0,0-.67-.06H39.76l-.68,3.21Z"></path><path class="cls-1" d="M54,29l-.21,1H48.62L48,33h4.78l-.21,1H47.78l-.67,3.19H52.3l-.23,1H45.65l2-9.21Z"></path><path class="cls-1" d="M60,30.81a1.44,1.44,0,0,0-.42-.59,1.71,1.71,0,0,0-.68-.32,4,4,0,0,0-.88-.09,3.68,3.68,0,0,0-.71.08,2.61,2.61,0,0,0-.69.27,1.54,1.54,0,0,0-.52.46,1.14,1.14,0,0,0-.21.7,1.26,1.26,0,0,0,.12.57,1.27,1.27,0,0,0,.31.42,2.27,2.27,0,0,0,.48.29c.19.07.38.14.59.2l1.24.34a5.69,5.69,0,0,1,.82.29,2.69,2.69,0,0,1,.71.45,1.94,1.94,0,0,1,.5.71,2.65,2.65,0,0,1,.19,1,2.31,2.31,0,0,1-.33,1.25,2.79,2.79,0,0,1-.85.86,3.74,3.74,0,0,1-1.15.51,5.09,5.09,0,0,1-1.26.17,5.6,5.6,0,0,1-1.52-.19,3.14,3.14,0,0,1-1.19-.57,2.48,2.48,0,0,1-.73-1,3.23,3.23,0,0,1-.19-1.47h1.23A2.57,2.57,0,0,0,55,36.24a1.57,1.57,0,0,0,.5.68,2,2,0,0,0,.79.37,4.62,4.62,0,0,0,1,.11,3.53,3.53,0,0,0,.85-.1,2.48,2.48,0,0,0,.74-.32,1.61,1.61,0,0,0,.52-.55,1.56,1.56,0,0,0,.2-.8,1.26,1.26,0,0,0-.13-.6,1.1,1.1,0,0,0-.35-.42,2.09,2.09,0,0,0-.53-.3c-.19-.07-.4-.14-.63-.2l-1.25-.34a5,5,0,0,1-.79-.3,2.63,2.63,0,0,1-.66-.47,2,2,0,0,1-.45-.65,2.29,2.29,0,0,1-.17-.9,2.21,2.21,0,0,1,.3-1.17,2.66,2.66,0,0,1,.77-.83,3.42,3.42,0,0,1,1.07-.51,4.89,4.89,0,0,1,2.52,0,3.21,3.21,0,0,1,1.08.53,2.52,2.52,0,0,1,.73.91,2.88,2.88,0,0,1,.23,1.33H60.15A2.23,2.23,0,0,0,60,30.81Z"></path><path class="cls-1" d="M68.38,30.81a1.37,1.37,0,0,0-.43-.59,1.59,1.59,0,0,0-.68-.32,3.94,3.94,0,0,0-.87-.09,3.51,3.51,0,0,0-.71.08,2.82,2.82,0,0,0-.7.27,1.64,1.64,0,0,0-.52.46,1.14,1.14,0,0,0-.2.7,1.26,1.26,0,0,0,.11.57,1.3,1.3,0,0,0,.32.42,1.86,1.86,0,0,0,.48.29l.58.2,1.24.34a5.82,5.82,0,0,1,.83.29,2.86,2.86,0,0,1,.71.45,2.21,2.21,0,0,1,.5.71,2.66,2.66,0,0,1,.18,1,2.31,2.31,0,0,1-.33,1.25,2.87,2.87,0,0,1-.84.86,3.79,3.79,0,0,1-1.16.51,5,5,0,0,1-1.26.17,5.65,5.65,0,0,1-1.52-.19,3.09,3.09,0,0,1-1.18-.57,2.5,2.5,0,0,1-.74-1A3.24,3.24,0,0,1,62,35.19h1.22a2.76,2.76,0,0,0,.14,1.05,1.66,1.66,0,0,0,.5.68,2,2,0,0,0,.8.37,4.62,4.62,0,0,0,1,.11,3.44,3.44,0,0,0,.84-.1,2.37,2.37,0,0,0,.74-.32,1.64,1.64,0,0,0,.53-.55,1.56,1.56,0,0,0,.2-.8,1.4,1.4,0,0,0-.13-.6,1.22,1.22,0,0,0-.36-.42,2,2,0,0,0-.52-.3l-.63-.2-1.26-.34a5.24,5.24,0,0,1-.78-.3,2.63,2.63,0,0,1-.66-.47,2,2,0,0,1-.45-.65,2.29,2.29,0,0,1-.17-.9,2.21,2.21,0,0,1,.3-1.17,2.62,2.62,0,0,1,.76-.83,3.58,3.58,0,0,1,1.08-.51,4.86,4.86,0,0,1,2.51,0,3.21,3.21,0,0,1,1.08.53,2.52,2.52,0,0,1,.73.91,2.76,2.76,0,0,1,.24,1.33H68.51A2.25,2.25,0,0,0,68.38,30.81Z"></path><path class="cls-1" d="M73.43,29l-1.94,9.21H70.27L72.2,29Z"></path><path class="cls-1" d="M74.36,32.26a5.49,5.49,0,0,1,1-1.79A4.89,4.89,0,0,1,77,29.23a4.8,4.8,0,0,1,2.11-.45,4,4,0,0,1,1.61.31,3.44,3.44,0,0,1,1.21.87,3.89,3.89,0,0,1,.77,1.29,5,5,0,0,1,.26,1.61A6.4,6.4,0,0,1,82.58,35a5.81,5.81,0,0,1-1,1.78A4.75,4.75,0,0,1,80,38a4.5,4.5,0,0,1-2.07.46A3.9,3.9,0,0,1,75,37.37a4.07,4.07,0,0,1-1-3A6.52,6.52,0,0,1,74.36,32.26Zm1,3.36a2.69,2.69,0,0,0,.5,1,2.32,2.32,0,0,0,.85.61,3,3,0,0,0,1.2.22,3.19,3.19,0,0,0,1.62-.4,3.76,3.76,0,0,0,1.16-1,4.56,4.56,0,0,0,.71-1.45,5.81,5.81,0,0,0,.24-1.64,4.32,4.32,0,0,0-.16-1.21,2.76,2.76,0,0,0-.51-1,2.36,2.36,0,0,0-.82-.64,2.51,2.51,0,0,0-1.13-.24,3.27,3.27,0,0,0-1.68.41,3.8,3.8,0,0,0-1.2,1.05,4.83,4.83,0,0,0-.71,1.46,5.9,5.9,0,0,0-.24,1.66A4,4,0,0,0,75.41,35.62Z"></path><path class="cls-1" d="M86.68,29,90,36.63h0L91.53,29h1.19l-2,9.21H89.45l-3.26-7.57h0L84.6,38.21H83.41l2-9.21Z"></path><path class="cls-1" d="M97.18,38.21l1.64-9.29h7.23l-.38,2.17h-4.19l-.29,1.69h3.33L104.14,35h-3.33l-.58,3.26Z"></path><path class="cls-1" d="M109.24,35l-.57,3.24h-3l1.64-9.29h4.39a6.26,6.26,0,0,1,2.86.48,1.6,1.6,0,0,1,.85,1.52,3.91,3.91,0,0,1-.06.64,3.11,3.11,0,0,1-.65,1.45,2.48,2.48,0,0,1-1.31.83,2.79,2.79,0,0,1,1,.54,1.38,1.38,0,0,1,.29,1,5,5,0,0,1-.11.93,2.88,2.88,0,0,1,0,.33,9.13,9.13,0,0,0-.14,1c0,.21.08.31.23.31l0,.28h-3.09v-.09c0-.07,0-.12,0-.16a9.15,9.15,0,0,1,.14-1.37,4.06,4.06,0,0,0,.09-.73.76.76,0,0,0-.31-.69,2.24,2.24,0,0,0-1.12-.2Zm.36-2h1.2a2.6,2.6,0,0,0,1.13-.2.87.87,0,0,0,.47-.67.65.65,0,0,1,0-.11.44.44,0,0,0,0-.09.66.66,0,0,0-.29-.58,1.4,1.4,0,0,0-.79-.19h-1.42Z"></path><path class="cls-1" d="M115.86,38.21l1.64-9.29h7.58l-.39,2.17h-4.53l-.23,1.33h3.83l-.37,2.17h-3.83L119.3,36H124l-.39,2.17Z"></path><path class="cls-1" d="M125.19,38.21l1.63-9.29h7.58L134,31.09h-4.53l-.23,1.33h3.84l-.38,2.17h-3.83L128.62,36h4.71l-.39,2.17Z"></path><path class="cls-1" d="M137.93,35l-.57,3.24h-3.05L136,28.92h4.39a6.23,6.23,0,0,1,2.86.48,1.61,1.61,0,0,1,.86,1.52,3.6,3.6,0,0,1-.72,2.09,2.48,2.48,0,0,1-1.31.83,2.76,2.76,0,0,1,1,.54,1.38,1.38,0,0,1,.28,1,4.93,4.93,0,0,1-.1.93c0,.12,0,.23,0,.33a7.78,7.78,0,0,0-.15,1c0,.21.08.31.24.31l-.06.28h-3.08v-.09a1,1,0,0,1,0-.16,8,8,0,0,1,.14-1.37,4.06,4.06,0,0,0,.09-.73.76.76,0,0,0-.31-.69,2.27,2.27,0,0,0-1.12-.2Zm.36-2h1.2a2.6,2.6,0,0,0,1.13-.2.9.9,0,0,0,.47-.67.49.49,0,0,1,0-.11.44.44,0,0,0,0-.09.64.64,0,0,0-.29-.58,1.38,1.38,0,0,0-.79-.19h-1.42Z"></path><path class="cls-1" d="M144.55,38.21l1.64-9.29h3l-1.63,9.29Z"></path><path class="cls-1" d="M149.43,38.21l1.64-9.29h4.08a5,5,0,0,1,3.08.83,3,3,0,0,1,1.09,2.52,6.21,6.21,0,0,1-.11,1.1,6.9,6.9,0,0,1-.73,2.22,5,5,0,0,1-1.25,1.5,4.94,4.94,0,0,1-1.7.85,7.63,7.63,0,0,1-2.1.27ZM152.86,36h.65a2.49,2.49,0,0,0,1.74-.6,3.29,3.29,0,0,0,.89-1.9,6.12,6.12,0,0,0,.09-1,1.38,1.38,0,0,0-.44-1.16,2.55,2.55,0,0,0-1.48-.33h-.58Z"></path><path class="cls-1" d="M159.61,38.21l1.64-9.29h7.58l-.39,2.17h-4.53l-.23,1.33h3.83l-.37,2.17h-3.83L163.05,36h4.71l-.39,2.17Z"></path><path class="cls-1" d="M11.26,24.59H2.59L7.23.6H15.9ZM4,23.42h6.29l4.2-21.65H8.2Z"></path><path class="cls-1" d="M25.4,25.2a11.58,11.58,0,0,1-4.31-.78,8.23,8.23,0,0,1-5.17-6.32A13.66,13.66,0,0,1,16,12.77a17.26,17.26,0,0,1,1.85-5.15,15.21,15.21,0,0,1,3.26-4.05A14.22,14.22,0,0,1,25.61,1a15.18,15.18,0,0,1,5.33-1,10.64,10.64,0,0,1,7.17,2.33,8.15,8.15,0,0,1,2.61,6.74v.56H32.48l-.06-.52a2.54,2.54,0,0,0-.78-1.76,2.75,2.75,0,0,0-1.91-.6,3.84,3.84,0,0,0-3.14,1.57,10.57,10.57,0,0,0-2,4.64,10.84,10.84,0,0,0-.21,2.27A4.44,4.44,0,0,0,24.8,17a2.24,2.24,0,0,0,1,1.08,3.77,3.77,0,0,0,1.9.41,4.7,4.7,0,0,0,2.23-.65,4.07,4.07,0,0,0,1-.8H28l1.19-6.11H40.63L38,24.66H32l.1-1.52a11.17,11.17,0,0,1-2.21,1.24A11.7,11.7,0,0,1,25.4,25.2ZM31,1.17A14,14,0,0,0,26.06,2,13.09,13.09,0,0,0,22,4.45a14.22,14.22,0,0,0-3.08,3.74A16.41,16.41,0,0,0,17.16,13a12.72,12.72,0,0,0-.11,4.88,7.06,7.06,0,0,0,4.44,5.47A10.46,10.46,0,0,0,25.4,24a10.17,10.17,0,0,0,4.08-.73,9.27,9.27,0,0,0,2.93-1.89l1.1-1-.22,3.12H37L39.22,12h-9l-.73,3.78h3.49l-.36.84A4.71,4.71,0,0,1,30.5,18.8a5.81,5.81,0,0,1-2.81.82,5,5,0,0,1-2.5-.58,3.44,3.44,0,0,1-1.45-1.61,5.61,5.61,0,0,1-.44-2.17,11.21,11.21,0,0,1,.23-2.52,11.83,11.83,0,0,1,2.16-5.15,5,5,0,0,1,4.06-2,3.9,3.9,0,0,1,2.68.89,3.56,3.56,0,0,1,1.08,2h6a6.52,6.52,0,0,0-2.19-5.22,9.28,9.28,0,0,0-6.39-2.09Z"></path><path class="cls-1" d="M64.31,24.59H56.45L51.4,13.64,51,16.86l-1.5,7.73H41.1L45.74.6h7.87l5,11,.45-3.23L60.61.6H69ZM57.2,23.42h6.15l4.2-21.65h-6l-1.3,6.78-1,7.17L52.86,1.77H46.71l-4.2,21.65h6l1.31-6.75,1-7.17Z"></path><path class="cls-1" d="M76.39,24.59H67.72L72.34.6H81Zm-7.25-1.17h6.29L79.62,1.77H73.33Z"></path><path class="cls-1" d="M94,24.59H85.34L88.6,7.76H81.88L83.27.59h22.11L104,7.76H97.27Zm-7.25-1.17h6.29L96.31,6.59H103L104,1.77H84.23L83.3,6.59H90Z"></path><path class="cls-1" d="M111.6,24.59h-8.67l4.65-24h8.67Zm-7.25-1.17h6.29l4.19-21.65h-6.28Z"></path><path class="cls-1" d="M126.63,25.2a13.12,13.12,0,0,1-4.92-.86,8.33,8.33,0,0,1-3.57-2.57,9.11,9.11,0,0,1-1.81-4.12,14.58,14.58,0,0,1,.14-5.35,15.75,15.75,0,0,1,1.86-5A14.49,14.49,0,0,1,126.1.87,15.89,15.89,0,0,1,131.31,0a12.46,12.46,0,0,1,5.28,1h0a8.54,8.54,0,0,1,3.46,2.87A9.86,9.86,0,0,1,141.65,8a13,13,0,0,1-.12,4.65,16.52,16.52,0,0,1-1.95,5.3,15,15,0,0,1-3.42,4,14.69,14.69,0,0,1-4.46,2.48A15.6,15.6,0,0,1,126.63,25.2Zm4.66-24a14.24,14.24,0,0,0-4.84.79,13.1,13.1,0,0,0-7.13,5.9,14.92,14.92,0,0,0-1.73,4.65,13.35,13.35,0,0,0-.14,4.92A8,8,0,0,0,119,21a7.37,7.37,0,0,0,3.09,2.22,12.06,12.06,0,0,0,4.49.77,14.38,14.38,0,0,0,4.69-.78,13.38,13.38,0,0,0,7.25-6,15.42,15.42,0,0,0,1.82-4.93,12.27,12.27,0,0,0,.11-4.23,8.51,8.51,0,0,0-1.39-3.56,7.35,7.35,0,0,0-3-2.47h0A11.31,11.31,0,0,0,131.29,1.17Zm-3.58,18.45a4,4,0,0,1-2.4-.71,3.83,3.83,0,0,1-1.3-1.84,6.81,6.81,0,0,1-.33-2.28,13.38,13.38,0,0,1,.25-2.44,14.09,14.09,0,0,1,.69-2.38,9,9,0,0,1,1.23-2.15,6.24,6.24,0,0,1,1.83-1.6h0a4.84,4.84,0,0,1,2.46-.65,4,4,0,0,1,2.31.62,3.69,3.69,0,0,1,1.35,1.69,6.31,6.31,0,0,1,.47,2.23,11.26,11.26,0,0,1-.21,2.46,11.45,11.45,0,0,1-2.14,5,5.24,5.24,0,0,1-4.21,2Zm.55-12.39h0a5.46,5.46,0,0,0-1.49,1.3,7.67,7.67,0,0,0-1,1.9,12.71,12.71,0,0,0-.65,2.18,11.88,11.88,0,0,0-.24,2.22,5.9,5.9,0,0,0,.28,1.91A2.64,2.64,0,0,0,126,18a2.81,2.81,0,0,0,1.69.46A4,4,0,0,0,131,16.92a10.27,10.27,0,0,0,2-4.53,10.94,10.94,0,0,0,.19-2.21,5.42,5.42,0,0,0-.37-1.82,2.68,2.68,0,0,0-.94-1.19,2.91,2.91,0,0,0-1.65-.42,3.72,3.72,0,0,0-1.88.47Z"></path><path class="cls-1" d="M164.66,24.59H156.8l-5.06-10.95-.45,3.22-1.5,7.73h-8.34l4.64-24h7.82l5.06,11,.45-3.23L161,.6h8.35Zm-7.11-1.17h6.14l4.2-21.65h-6l-1.3,6.78-1,7.17L153.18,1.77h-6.12l-4.2,21.65h6l1.3-6.75,1-7.17Z"></path></svg> 