<?xml version="1.0" encoding="UTF-8"?> <svg xmlns="http://www.w3.org/2000/svg" id="Layer_1" data-name="Layer 1" viewBox="0 0 151.34 38.42"><defs><style>.cls-1{fill:#231f20;}</style></defs><path class="cls-1" d="M29.53,24.68H21.62L23,17l.44-2.13-4.52,9.8H12.8l-1.07-10.1-.25,1.84L10,24.68H2.12L6.37.61H16.43L17.8,13.37,23.65.61H33.78ZM23,23.55h5.61L32.42,1.74h-8L17.11,17.59,15.42,1.74H7.32L3.47,23.55H9.08l1.28-7.31.48-3.54.33-3.87h1l.11.5,1.51,14.22h4.35L25,8.83h1.1l-.12.71-1.12,4.14-.72,3.54Z"></path><path class="cls-1" d="M56.08,24.68H47.41l-.35-3H40.44l-1.4,3H30.37L43.24.61H51.7Zm-7.66-1.13h6.3l-4-21.81H43.92L32.26,23.55h6.05l1.4-3h8.36Zm-.7-6.67H41.45L46.46,6Zm-4.49-1.14h3.22l-.65-5.58Z"></path><path class="cls-1" d="M66.88,25.29a13.07,13.07,0,0,1-3.9-.55,9.39,9.39,0,0,1-3-1.55,7,7,0,0,1-1.91-2.35,6.51,6.51,0,0,1-.66-2.91,6.71,6.71,0,0,1,.07-1l.06-.49H65.8l0,.56a1.55,1.55,0,0,0,.67,1.36,2.89,2.89,0,0,0,1.72.47,4.85,4.85,0,0,0,2.11-.39c.59-.28.71-.6.74-.82a.53.53,0,0,1,0-.13c0-.21-.09-.46-.62-.69a21.38,21.38,0,0,0-2.94-.93c-1.19-.3-2.19-.57-3-.82A11.19,11.19,0,0,1,62.2,14a5.91,5.91,0,0,1-2-1.9,5.23,5.23,0,0,1-.76-2.89,7.23,7.23,0,0,1,.14-1.41A8.21,8.21,0,0,1,63.57,2,14.73,14.73,0,0,1,71.4,0a13.75,13.75,0,0,1,4.08.55,7.6,7.6,0,0,1,2.88,1.63A6.56,6.56,0,0,1,80,4.69a9.48,9.48,0,0,1,.51,3.14V8.4H72.23V7.83a1.08,1.08,0,0,0-.52-1.07,3.14,3.14,0,0,0-1.58-.34c-1.27,0-2,.28-2.06.84l0,.19c0,.15.09.4.63.64a21.35,21.35,0,0,0,3,.95c1.18.31,2.18.6,3,.85A11.61,11.61,0,0,1,77,11a5.89,5.89,0,0,1,1.94,1.87,5.05,5.05,0,0,1,.76,2.78,7,7,0,0,1-.14,1.32,8.81,8.81,0,0,1-4.21,6.27A16.06,16.06,0,0,1,66.88,25.29Zm-8.32-7.68c0,.11,0,.22,0,.32a5.4,5.4,0,0,0,.55,2.41,5.72,5.72,0,0,0,1.6,2,7.81,7.81,0,0,0,2.62,1.35,11.51,11.51,0,0,0,3.56.5,14.89,14.89,0,0,0,7.86-1.92,7.65,7.65,0,0,0,3.69-5.51,5.63,5.63,0,0,0,.11-1.11A3.93,3.93,0,0,0,78,13.45a4.85,4.85,0,0,0-1.57-1.52,10.36,10.36,0,0,0-2.1-1c-.76-.25-1.73-.53-2.89-.84a22.16,22.16,0,0,1-3.19-1,1.87,1.87,0,0,1-1.31-1.74l0-.32c.2-1.18,1.27-1.78,3.18-1.78a4.29,4.29,0,0,1,2.16.49,2.18,2.18,0,0,1,1,1.48h6a7.81,7.81,0,0,0-.43-2.18A5.34,5.34,0,0,0,77.57,3a6.24,6.24,0,0,0-2.44-1.37,12.38,12.38,0,0,0-3.73-.5A13.55,13.55,0,0,0,64.16,3a7,7,0,0,0-3.42,5,6.87,6.87,0,0,0-.12,1.21,4.24,4.24,0,0,0,.58,2.28A4.88,4.88,0,0,0,62.79,13a10.08,10.08,0,0,0,2.12,1c.75.24,1.73.51,2.9.8a23.31,23.31,0,0,1,3.11,1,1.83,1.83,0,0,1,1.3,1.73l0,.25v0l0,.07a0,0,0,0,0,0,0,2.21,2.21,0,0,1-1.35,1.66,6.07,6.07,0,0,1-2.61.5,4,4,0,0,1-2.37-.68,2.64,2.64,0,0,1-1.1-1.71Z"></path><path class="cls-1" d="M94.5,24.68H85.83l3-16.92H82.07L83.32.61H105.5l-1.25,7.15H97.49Zm-7.32-1.13h6.37l3-16.92h6.76l.85-4.89H84.27l-.85,4.89h6.76Z"></path><path class="cls-1" d="M123.81,24.68h-20.3L107.76.61h19.86l-1.16,6.48H115.28l-.38,2.15h9.46l-1.12,6.49h-9.46l-.44,2.46H125Zm-19-1.13h18l.76-4.22H112l.84-4.74h9.46l.73-4.22h-9.47L114.32,6h11.19l.75-4.22H108.71Z"></path><path class="cls-1" d="M149,24.68h-8.66v-.79a2.93,2.93,0,0,1,0-.41,21.77,21.77,0,0,1,.36-3.47,9.53,9.53,0,0,0,.21-1.69c0-.91-.38-1.15-.5-1.23a4.79,4.79,0,0,0-2.47-.41h-1.82l-1.4,8H126L130.29.61H141.6c3.42,0,5.82.4,7.33,1.25a4.53,4.53,0,0,1,2.41,4.25,9.86,9.86,0,0,1-.17,1.69,8.26,8.26,0,0,1-1.73,3.83,6.36,6.36,0,0,1-2.18,1.73,5.12,5.12,0,0,1,1.27.89,3.92,3.92,0,0,1,.87,2.85,13,13,0,0,1-.27,2.41c0,.28-.08.55-.13.79a20.32,20.32,0,0,0-.34,2.35.48.48,0,0,0,0,.24h.68Zm-7.56-1.13h6.32a1.51,1.51,0,0,1-.25-.9,18,18,0,0,1,.36-2.55q.06-.34.12-.78a12,12,0,0,0,.25-2.22,3,3,0,0,0-.53-2.05,6.55,6.55,0,0,0-2.16-1.21L144,13.22l1.67-.45a5.53,5.53,0,0,0,2.95-1.86,7.28,7.28,0,0,0,1.49-3.31,8.53,8.53,0,0,0,.15-1.49,3.43,3.43,0,0,0-1.83-3.26c-1.32-.74-3.6-1.11-6.78-1.11H131.24l-3.85,21.81h6.37l1.4-8h2.77a5.82,5.82,0,0,1,3.08.59,2.4,2.4,0,0,1,1,2.18,10,10,0,0,1-.24,1.89,21.53,21.53,0,0,0-.34,3.27Zm-2-11.9h-3.63l1-5.69h4a4.1,4.1,0,0,1,2.28.57,2.2,2.2,0,0,1,1,1.91,2.67,2.67,0,0,1,0,.31.75.75,0,0,0,0,.17,2.72,2.72,0,0,1-1.46,2.15A6.58,6.58,0,0,1,139.49,11.65Zm-2.28-1.13h2.28a5.55,5.55,0,0,0,2.53-.45,1.61,1.61,0,0,0,.87-1.25h0a.88.88,0,0,1,0-.27l0-.15a1,1,0,0,0-.46-.92,2.94,2.94,0,0,0-1.65-.39h-3Z"></path><path class="cls-1" d="M7.85,29.16l-.22,1H2.88l-.6,2.87H6.46l-.21,1H2.07L1.2,38.21H0l1.89-9Z"></path><path class="cls-1" d="M12.67,29.16a5.8,5.8,0,0,1,1.11.11,2.72,2.72,0,0,1,1,.38,1.91,1.91,0,0,1,.67.71,2.28,2.28,0,0,1,.24,1.11,2.53,2.53,0,0,1-.15.87,2.58,2.58,0,0,1-.42.74,2.42,2.42,0,0,1-.64.55,2.25,2.25,0,0,1-.83.27v0a1.13,1.13,0,0,1,.49.28,1.37,1.37,0,0,1,.3.45,1.7,1.7,0,0,1,.14.57,3.64,3.64,0,0,1,0,.66,6,6,0,0,1-.08.61,5.6,5.6,0,0,0-.07.59,2.81,2.81,0,0,0,0,.58,1.34,1.34,0,0,0,.16.54H13.3a2.51,2.51,0,0,1-.11-.74,6.49,6.49,0,0,1,.13-1.2,3.51,3.51,0,0,0,.06-1,1.16,1.16,0,0,0-.19-.57.66.66,0,0,0-.34-.28,1.44,1.44,0,0,0-.4-.09H9.29l-.81,3.86H7.27l1.92-9Zm-.45,4.17a2.82,2.82,0,0,0,1.14-.19,1.77,1.77,0,0,0,.68-.46,1.48,1.48,0,0,0,.33-.58,2.43,2.43,0,0,0,.08-.55,1.41,1.41,0,0,0-.15-.69,1.24,1.24,0,0,0-.4-.42,1.77,1.77,0,0,0-.57-.21,4.65,4.65,0,0,0-.66-.05H10.18l-.67,3.15Z"></path><path class="cls-1" d="M24.11,29.16l-.21,1h-5l-.61,2.87H23l-.2,1h-4.7l-.66,3.13h5.09l-.22,1H16l1.91-9Z"></path><path class="cls-1" d="M31.85,29.16l-.2,1h-5L26,33.05H30.7l-.21,1h-4.7l-.66,3.13h5.1l-.23,1H23.7l1.91-9Z"></path><path class="cls-1" d="M37.8,30.94a1.47,1.47,0,0,0-.42-.58,1.55,1.55,0,0,0-.66-.31,3.91,3.91,0,0,0-.86-.09,3.42,3.42,0,0,0-.7.08,2.91,2.91,0,0,0-.68.26,1.62,1.62,0,0,0-.51.46,1.13,1.13,0,0,0-.21.69,1.22,1.22,0,0,0,.12.56,1.11,1.11,0,0,0,.31.4,1.7,1.7,0,0,0,.47.29,4.77,4.77,0,0,0,.57.2l1.22.33a5.57,5.57,0,0,1,.81.29A2.52,2.52,0,0,1,38,34a2.1,2.1,0,0,1,.49.69,2.6,2.6,0,0,1,.18,1,2.29,2.29,0,0,1-.32,1.22,2.8,2.8,0,0,1-.83.85,3.91,3.91,0,0,1-1.14.5,4.86,4.86,0,0,1-1.23.17,5.92,5.92,0,0,1-1.5-.19,3.21,3.21,0,0,1-1.16-.56,2.37,2.37,0,0,1-.72-1,3,3,0,0,1-.18-1.44h1.2a2.42,2.42,0,0,0,.14,1,1.55,1.55,0,0,0,.49.68,2,2,0,0,0,.78.36,4.4,4.4,0,0,0,1,.1,3.37,3.37,0,0,0,.83-.1,2.27,2.27,0,0,0,.73-.31,1.65,1.65,0,0,0,.51-.54,1.51,1.51,0,0,0,.2-.78,1.32,1.32,0,0,0-.13-.59,1.19,1.19,0,0,0-.35-.42,2.09,2.09,0,0,0-.51-.28,5.64,5.64,0,0,0-.62-.21l-1.23-.33a4.3,4.3,0,0,1-.78-.29,2.75,2.75,0,0,1-.64-.46,2,2,0,0,1-.45-.65,2.16,2.16,0,0,1-.16-.88,2.26,2.26,0,0,1,.29-1.15,2.79,2.79,0,0,1,.76-.81,3.19,3.19,0,0,1,1-.5,4.4,4.4,0,0,1,1.2-.16,4.81,4.81,0,0,1,1.27.17,3.18,3.18,0,0,1,1.06.52,2.4,2.4,0,0,1,.71.89,2.82,2.82,0,0,1,.24,1.31H37.93A2.22,2.22,0,0,0,37.8,30.94Z"></path><path class="cls-1" d="M44.57,30.18l-1.69,8H41.67l1.7-8h-3l.21-1h7.3l-.22,1Z"></path><path class="cls-1" d="M47.68,29.16H49l1.85,4.39,3.43-4.39h1.4l-4.39,5.42-.78,3.63H49.29l.77-3.63Z"></path><path class="cls-1" d="M57.78,29.16l-1.67,8h4.78l-.22,1h-6l1.91-9Z"></path><path class="cls-1" d="M69.87,29.16l-.2,1h-5L64,33.05h4.69l-.2,1H63.81l-.66,3.13h5.1l-.23,1h-6.3l1.92-9Z"></path><path class="cls-1" d="M73.84,38.21l1.61-9.12h7.1l-.39,2.13h-4.1l-.29,1.66H81L80.67,35H77.4l-.57,3.2Z"></path><path class="cls-1" d="M85.68,35l-.56,3.18h-3l1.61-9.12h4.31a6,6,0,0,1,2.8.47,1.59,1.59,0,0,1,.85,1.49,4,4,0,0,1-.07.64A3,3,0,0,1,91,33.11a2.48,2.48,0,0,1-1.28.81,2.68,2.68,0,0,1,.93.53,1.34,1.34,0,0,1,.28,1,4.83,4.83,0,0,1-.1.92c0,.12,0,.22,0,.31a9.09,9.09,0,0,0-.14,1c0,.2.08.3.23.3l0,.28h-3v-.09a1,1,0,0,1,0-.16,7.69,7.69,0,0,1,.14-1.34,3.71,3.71,0,0,0,.08-.71.75.75,0,0,0-.3-.68,2.18,2.18,0,0,0-1.1-.2ZM86,33h1.18a2.53,2.53,0,0,0,1.11-.2.87.87,0,0,0,.46-.66s0-.06,0-.1l0-.09a.63.63,0,0,0-.29-.57,1.36,1.36,0,0,0-.78-.19H86.35Z"></path><path class="cls-1" d="M92.18,38.21l1.61-9.12h7.44l-.38,2.13H96.4l-.23,1.3h3.76l-.36,2.13H95.8l-.25,1.43h4.62l-.38,2.13Z"></path><path class="cls-1" d="M101.33,38.21l1.61-9.12h7.44L110,31.22h-4.45l-.23,1.3h3.77l-.37,2.13H105l-.25,1.43h4.63L109,38.21Z"></path><path class="cls-1" d="M113.84,35l-.56,3.18h-3l1.61-9.12h4.31a6,6,0,0,1,2.8.47,1.57,1.57,0,0,1,.85,1.49,3.12,3.12,0,0,1-.07.64,3,3,0,0,1-.64,1.42,2.48,2.48,0,0,1-1.28.81,2.74,2.74,0,0,1,.94.53,1.39,1.39,0,0,1,.27,1,4.83,4.83,0,0,1-.1.92,2.24,2.24,0,0,1,0,.31,9.09,9.09,0,0,0-.14,1c0,.2.08.3.23.3l0,.28h-3v-.09a1,1,0,0,1,0-.16,8.82,8.82,0,0,1,.14-1.34,3.88,3.88,0,0,0,.09-.71.76.76,0,0,0-.31-.68,2.18,2.18,0,0,0-1.1-.2Zm.35-2h1.18a2.53,2.53,0,0,0,1.11-.2.87.87,0,0,0,.46-.66s0-.06,0-.1l0-.09a.63.63,0,0,0-.29-.57,1.36,1.36,0,0,0-.78-.19h-1.39Z"></path><path class="cls-1" d="M120.34,38.21,122,29.09h3l-1.61,9.12Z"></path><path class="cls-1" d="M125.13,38.21l1.61-9.12h4a4.86,4.86,0,0,1,3,.82,2.92,2.92,0,0,1,1.07,2.47,7.41,7.41,0,0,1-.82,3.25,4.64,4.64,0,0,1-1.24,1.48,4.91,4.91,0,0,1-1.66.84,7.79,7.79,0,0,1-2.06.26Zm3.37-2.13h.63a2.4,2.4,0,0,0,1.71-.59,3.19,3.19,0,0,0,.88-1.86,6,6,0,0,0,.09-.94,1.35,1.35,0,0,0-.44-1.15,2.53,2.53,0,0,0-1.45-.32h-.57Z"></path><path class="cls-1" d="M135.13,38.21l1.61-9.12h7.44l-.38,2.13h-4.45l-.23,1.3h3.77l-.37,2.13h-3.77l-.25,1.43h4.63l-.38,2.13Z"></path></svg> 