<?xml version="1.0" encoding="UTF-8"?> <svg xmlns="http://www.w3.org/2000/svg" id="Layer_1" data-name="Layer 1" viewBox="0 0 234.3 38.42"><defs><style>.cls-1{fill:#231f20;}</style></defs><path class="cls-1" d="M10.82,25.22c-3.39,0-6.07-.87-7.95-2.61A9.31,9.31,0,0,1,0,15.39a17.54,17.54,0,0,1,.26-2.9,16,16,0,0,1,1.8-5.13,14.69,14.69,0,0,1,3.22-4A14,14,0,0,1,9.51.88,13.81,13.81,0,0,1,14.31,0c3.39,0,6,.78,7.77,2.32a8.27,8.27,0,0,1,2.71,6.6,5.18,5.18,0,0,1,0,.53v1H16.51v-1a2.65,2.65,0,0,0-.71-2,3,3,0,0,0-2.15-.7,3.72,3.72,0,0,0-3,1.5,10,10,0,0,0-1.86,4.7,13.7,13.7,0,0,0-.22,2.29,3.86,3.86,0,0,0,.7,2.45,2.92,2.92,0,0,0,2.39.82,3.46,3.46,0,0,0,2.46-.89A5.8,5.8,0,0,0,15.65,15l.12-.4h8.38l-.21.72a13.39,13.39,0,0,1-4.86,7.24A13.47,13.47,0,0,1,10.82,25.22ZM14.31,1.15a12.68,12.68,0,0,0-4.4.79A12.88,12.88,0,0,0,6,4.26,13.52,13.52,0,0,0,3,7.92a14.66,14.66,0,0,0-1.66,4.77,15.16,15.16,0,0,0-.25,2.7,8.17,8.17,0,0,0,2.5,6.39c1.67,1.54,4.09,2.31,7.19,2.31a12.41,12.41,0,0,0,7.59-2.41,12.16,12.16,0,0,0,4.22-5.92h-6a6.76,6.76,0,0,1-1.69,2.68,4.62,4.62,0,0,1-3.23,1.19,4,4,0,0,1-3.27-1.24,4.94,4.94,0,0,1-1-3.16,16.08,16.08,0,0,1,.23-2.48A11.24,11.24,0,0,1,9.8,7.51a4.86,4.86,0,0,1,3.85-1.9,4.05,4.05,0,0,1,2.93,1,3.71,3.71,0,0,1,1.06,2.73h6c0-.22,0-.35,0-.42a7.13,7.13,0,0,0-2.32-5.75C19.78,1.84,17.42,1.15,14.31,1.15Z"></path><path class="cls-1" d="M35.91,25.22a11.2,11.2,0,0,1-7.8-2.59,9.43,9.43,0,0,1-2.87-7.31,15.63,15.63,0,0,1,.3-3,15.17,15.17,0,0,1,1.76-5,14.38,14.38,0,0,1,3.26-3.91A13.88,13.88,0,0,1,35,.88,15.54,15.54,0,0,1,40.13,0a13.13,13.13,0,0,1,4.71.79h0A9.06,9.06,0,0,1,48.22,3a9.06,9.06,0,0,1,2,3.22,11.68,11.68,0,0,1,.63,3.87,13.73,13.73,0,0,1-.23,2.52,16.63,16.63,0,0,1-1.87,5.29A14.2,14.2,0,0,1,41,24.38,15.35,15.35,0,0,1,35.91,25.22ZM40.13,1.15a14.39,14.39,0,0,0-4.8.8,13.18,13.18,0,0,0-4,2.29,13.37,13.37,0,0,0-3,3.62,14,14,0,0,0-1.63,4.67,15.25,15.25,0,0,0-.28,2.79,8.36,8.36,0,0,0,2.5,6.47,10.08,10.08,0,0,0,7,2.3,14.2,14.2,0,0,0,4.69-.78A13,13,0,0,0,44.66,21a13.28,13.28,0,0,0,3.08-3.7,15.35,15.35,0,0,0,1.74-4.93,13.34,13.34,0,0,0,.21-2.32,10.43,10.43,0,0,0-.57-3.49,7.92,7.92,0,0,0-1.71-2.82,8.23,8.23,0,0,0-3-1.91h0A12.05,12.05,0,0,0,40.13,1.15ZM36.89,19.63a3.53,3.53,0,0,1-3.18-1.47,6.29,6.29,0,0,1-.91-3.51A14,14,0,0,1,33,12.4,15,15,0,0,1,33.66,10a9,9,0,0,1,1.15-2.15,5.93,5.93,0,0,1,1.82-1.64h0a4.83,4.83,0,0,1,2.45-.63,3.71,3.71,0,0,1,3.24,1.48,6,6,0,0,1,1,3.53,10.49,10.49,0,0,1-.2,2,11.19,11.19,0,0,1-2.05,5A5.05,5.05,0,0,1,36.89,19.63Zm.3-12.41a4.71,4.71,0,0,0-1.46,1.32,8.49,8.49,0,0,0-1,1.88,13.26,13.26,0,0,0-.61,2.18,12.55,12.55,0,0,0-.18,2.05,5.1,5.1,0,0,0,.72,2.88,2.44,2.44,0,0,0,2.24,1,3.9,3.9,0,0,0,3.27-1.56A10.13,10.13,0,0,0,42,12.4a9.19,9.19,0,0,0,.18-1.78,5,5,0,0,0-.77-2.88,2.63,2.63,0,0,0-2.32-1,3.71,3.71,0,0,0-1.89.48Z"></path><path class="cls-1" d="M77.79,24.62H69.91L71.26,17l.44-2.11-4.5,9.76H61.12L60.05,14.55l-.24,1.83-1.46,8.24H50.48l4.23-24h10L66.1,13.35,71.93.63H82Zm-6.53-1.13h5.58L80.67,1.76h-8L65.41,17.55,63.72,1.76H55.66L51.82,23.49h5.59l1.28-7.28.47-3.54.33-3.85h1l.11.5,1.51,14.17h4.33L73.24,8.82h1.1l-.13.71L73.1,13.66l-.73,3.52Z"></path><path class="cls-1" d="M107.76,24.62H99.88L101.24,17l.43-2.11-4.5,9.76H91.09L90,14.55l-.25,1.83-1.45,8.24H80.45l4.23-24h10l1.35,12.72L101.91.63H112Zm-6.53-1.13h5.58l3.84-21.73h-8L95.39,17.55,93.7,1.76H85.63L81.8,23.49h5.58l1.28-7.28.48-3.54.32-3.85h1l.12.5,1.5,14.17h4.34l6.76-14.67h1.1l-.13.71-1.11,4.13-.72,3.52Z"></path><path class="cls-1" d="M134.23,24.62h-8.65l-.35-3h-6.59l-1.4,3H108.6l12.83-24h8.43Zm-7.64-1.13h6.28l-4-21.73h-6.81L110.49,23.49h6l1.39-3h8.33Zm-.69-6.65h-6.25l5-10.82Zm-4.49-1.13h3.22L124,10.15Z"></path><path class="cls-1" d="M158.63,24.62h-7.84l-5.29-11-.4,3.28-1.36,7.74h-8.32l4.23-24h7.85l5.28,11,.41-3.29L154.54.63h8.33Zm-7.13-1.13h6.18l3.84-21.73h-6l-1.19,6.8-.86,7.1-6.66-13.9H140.6l-3.84,21.73h6L144,16.72l.86-7.1Z"></path><path class="cls-1" d="M172.26,24.62H161.74L166,.63h10.51c3.39,0,6.06.72,7.93,2.16s2.89,3.71,2.89,6.66a16.58,16.58,0,0,1-.26,2.8,18,18,0,0,1-1.85,5.62,12.77,12.77,0,0,1-3.25,3.87,12.84,12.84,0,0,1-4.37,2.19A19.18,19.18,0,0,1,172.26,24.62Zm-9.17-1.13h9.17a18.13,18.13,0,0,0,5-.65,11.77,11.77,0,0,0,4-2,11.56,11.56,0,0,0,2.95-3.53,16.83,16.83,0,0,0,1.73-5.27,15.24,15.24,0,0,0,.24-2.6c0-2.61-.8-4.5-2.44-5.76s-4.11-1.93-7.25-1.93h-9.56Zm9.36-4.21h-2.26L172.51,6h1.91a6.7,6.7,0,0,1,4,.92,3.89,3.89,0,0,1,1.32,3.33,14.76,14.76,0,0,1-.23,2.44,8.7,8.7,0,0,1-2.36,5A6.64,6.64,0,0,1,172.45,19.28Zm-.92-1.13h.92a5.55,5.55,0,0,0,3.9-1.34,7.64,7.64,0,0,0,2-4.35,14.57,14.57,0,0,0,.21-2.25,2.88,2.88,0,0,0-.86-2.42,5.83,5.83,0,0,0-3.3-.7h-1Z"></path><path class="cls-1" d="M207,24.62H186.79L191,.63h19.78l-1.15,6.46H198.52l-.38,2.14h9.43l-1.11,6.47H197l-.43,2.45h11.59Zm-18.89-1.13h17.94l.75-4.21H195.24l.84-4.71h9.42l.73-4.21H196.8l.77-4.4h11.14l.75-4.2H192Z"></path><path class="cls-1" d="M232.14,24.62h-8.63v-.79a2.73,2.73,0,0,1,0-.41,21.77,21.77,0,0,1,.36-3.46,9.44,9.44,0,0,0,.21-1.68c0-.9-.38-1.15-.5-1.23a4.88,4.88,0,0,0-2.46-.4h-1.81l-1.39,8h-8.65l4.24-24h11.27c3.4,0,5.79.4,7.3,1.24a4.53,4.53,0,0,1,2.41,4.24,9.86,9.86,0,0,1-.17,1.69,8.35,8.35,0,0,1-1.72,3.82,6.66,6.66,0,0,1-2.18,1.72,5,5,0,0,1,1.26.88,3.88,3.88,0,0,1,.87,2.85,13.7,13.7,0,0,1-.26,2.39c0,.28-.09.55-.13.79a17.59,17.59,0,0,0-.34,2.34.61.61,0,0,0,0,.24h.68Zm-7.53-1.13h6.29a1.51,1.51,0,0,1-.24-.9,16.32,16.32,0,0,1,.36-2.54c0-.23.08-.49.12-.77a12.08,12.08,0,0,0,.25-2.21,3,3,0,0,0-.53-2.05,6.56,6.56,0,0,0-2.16-1.2l-1.61-.62,1.67-.46a5.48,5.48,0,0,0,2.93-1.84,7.29,7.29,0,0,0,1.49-3.3,8.44,8.44,0,0,0,.15-1.49,3.42,3.42,0,0,0-1.83-3.25c-1.31-.73-3.59-1.1-6.75-1.1H214.42l-3.83,21.73h6.35l1.39-8h2.76a5.9,5.9,0,0,1,3.07.58,2.4,2.4,0,0,1,1,2.18,9.64,9.64,0,0,1-.23,1.88,21.54,21.54,0,0,0-.34,3.26Zm-2-11.86H219L220,6h4a4,4,0,0,1,2.27.57,2.19,2.19,0,0,1,1,1.9,2.72,2.72,0,0,1,0,.32.61.61,0,0,0,0,.16,2.72,2.72,0,0,1-1.46,2.15A6.63,6.63,0,0,1,222.65,11.63Zm-2.28-1.13h2.28a5.72,5.72,0,0,0,2.52-.44A1.59,1.59,0,0,0,226,8.81h0a.82.82,0,0,1,0-.26l0-.16a1,1,0,0,0-.47-.92A3,3,0,0,0,224,7.09h-3Z"></path><path class="cls-1" d="M5.47,29.09a2.87,2.87,0,0,1,2,.63,2.37,2.37,0,0,1,.7,1.88,3,3,0,0,1-.17.92,2.61,2.61,0,0,1-.56.94,3.14,3.14,0,0,1-1.07.72,4.34,4.34,0,0,1-1.68.28H2l-.79,3.72H0l1.9-9.09ZM5,33.45a2,2,0,0,0,1.5-.52A1.81,1.81,0,0,0,7,31.6a1.88,1.88,0,0,0-.12-.71,1.1,1.1,0,0,0-.33-.45A1.12,1.12,0,0,0,6,30.19a2.07,2.07,0,0,0-.57-.08H2.91l-.7,3.34Z"></path><path class="cls-1" d="M16.42,29.09l-.2,1h-5L10.56,33h4.71l-.21,1H10.34l-.66,3.14H14.8l-.23,1H8.24l1.93-9.09Z"></path><path class="cls-1" d="M21.44,29.09a5.8,5.8,0,0,1,1.11.11,2.72,2.72,0,0,1,1,.38,2,2,0,0,1,.67.71,2.35,2.35,0,0,1,.25,1.12,2.28,2.28,0,0,1-.16.87,2.63,2.63,0,0,1-.42.75,2.09,2.09,0,0,1-.64.54,2.15,2.15,0,0,1-.83.28v0a1.19,1.19,0,0,1,.49.28,1.37,1.37,0,0,1,.3.45,1.76,1.76,0,0,1,.14.58,2.91,2.91,0,0,1,0,.66c0,.2,0,.4-.08.6s-.06.4-.08.6a5.61,5.61,0,0,0,0,.58,1.59,1.59,0,0,0,.17.55H22.06a2.65,2.65,0,0,1-.1-.75,5.12,5.12,0,0,1,.13-1.2,3.88,3.88,0,0,0,.05-1,1.32,1.32,0,0,0-.18-.58.7.7,0,0,0-.34-.28,1.6,1.6,0,0,0-.41-.09H18l-.81,3.88H16l1.92-9.09ZM21,33.28a2.87,2.87,0,0,0,1.15-.19,1.86,1.86,0,0,0,.68-.47,1.48,1.48,0,0,0,.33-.58,2.43,2.43,0,0,0,.08-.55,1.41,1.41,0,0,0-.15-.69,1.24,1.24,0,0,0-.4-.42,1.77,1.77,0,0,0-.57-.21,3.52,3.52,0,0,0-.66-.06H18.93l-.67,3.17Z"></path><path class="cls-1" d="M32.61,29.09l-.22,1H27.62L27,33h4.2L31,34H26.81l-.87,4.16H24.73l1.9-9.09Z"></path><path class="cls-1" d="M32.77,32.31a5.47,5.47,0,0,1,1-1.77,4.82,4.82,0,0,1,1.57-1.21,4.72,4.72,0,0,1,2.09-.45,3.84,3.84,0,0,1,1.58.31,3.58,3.58,0,0,1,1.2.85A4,4,0,0,1,41,31.32a4.8,4.8,0,0,1,.26,1.58A6.23,6.23,0,0,1,40.87,35a5.33,5.33,0,0,1-1,1.75,4.61,4.61,0,0,1-1.54,1.22,4.5,4.5,0,0,1-2,.45,3.83,3.83,0,0,1-2.88-1,4,4,0,0,1-1-2.93A6.33,6.33,0,0,1,32.77,32.31Zm1,3.31a2.57,2.57,0,0,0,.5.94,2.3,2.3,0,0,0,.83.6,3.08,3.08,0,0,0,1.19.22,3,3,0,0,0,1.59-.4,3.55,3.55,0,0,0,1.15-1,4.39,4.39,0,0,0,.7-1.44A5.56,5.56,0,0,0,40,32.9a4,4,0,0,0-.17-1.18,2.6,2.6,0,0,0-.49-.95,2.42,2.42,0,0,0-.81-.64,2.45,2.45,0,0,0-1.11-.23,3.27,3.27,0,0,0-1.66.4,3.66,3.66,0,0,0-1.18,1,4.78,4.78,0,0,0-.71,1.45,6.05,6.05,0,0,0-.23,1.63A4.17,4.17,0,0,0,33.8,35.62Z"></path><path class="cls-1" d="M47.11,29.09a5.8,5.8,0,0,1,1.11.11,2.7,2.7,0,0,1,1,.38,1.88,1.88,0,0,1,.66.71,2.24,2.24,0,0,1,.25,1.12,2.49,2.49,0,0,1-.15.87,2.63,2.63,0,0,1-.42.75,2.22,2.22,0,0,1-.64.54,2.14,2.14,0,0,1-.84.28v0a1.13,1.13,0,0,1,.49.28,1.39,1.39,0,0,1,.31.45,2.05,2.05,0,0,1,.14.58,2.93,2.93,0,0,1,0,.66c0,.2,0,.4-.07.6s-.06.4-.08.6a2.81,2.81,0,0,0,0,.58,1.58,1.58,0,0,0,.16.55H47.73a3.08,3.08,0,0,1-.1-.75,5.72,5.72,0,0,1,.13-1.2,3.53,3.53,0,0,0,.06-1,1.2,1.2,0,0,0-.19-.58.66.66,0,0,0-.34-.28,1.51,1.51,0,0,0-.41-.09H43.71l-.81,3.88H41.69l1.92-9.09Zm-.46,4.19a2.84,2.84,0,0,0,1.15-.19,1.91,1.91,0,0,0,.69-.47,1.45,1.45,0,0,0,.32-.58,2.43,2.43,0,0,0,.08-.55,1.41,1.41,0,0,0-.15-.69,1.16,1.16,0,0,0-.4-.42,1.77,1.77,0,0,0-.57-.21,3.52,3.52,0,0,0-.66-.06H44.6l-.67,3.17Z"></path><path class="cls-1" d="M54,29.09l1.21,7.82h0l4.49-7.82H61.4l-1.92,9.09H58.32l1.86-7.95h0l-4.63,8H54.36l-1.18-7.95h0l-1.6,8H50.41l1.91-9.09Z"></path><path class="cls-1" d="M67.48,29.09l1.64,9.09H67.87l-.42-2.74H63.63L62,38.18H60.7l5.46-9.09Zm-.18,5.33-.67-4.26h0l-2.43,4.26Z"></path><path class="cls-1" d="M73.18,29.09l3.24,7.52h0L78,29.09h1.17l-1.92,9.09H75.92L72.7,30.71h0l-1.54,7.47H70l1.92-9.09Z"></path><path class="cls-1" d="M86.11,37.51a3.93,3.93,0,0,1-2.68.87,3.83,3.83,0,0,1-2.88-1,4,4,0,0,1-1-2.93,6.6,6.6,0,0,1,.34-2.1,5.47,5.47,0,0,1,1-1.77,4.82,4.82,0,0,1,1.57-1.21,4.75,4.75,0,0,1,2.09-.45,4.63,4.63,0,0,1,1.37.19,3.27,3.27,0,0,1,1.09.59,2.77,2.77,0,0,1,.73,1A3.27,3.27,0,0,1,88,32H86.78a2,2,0,0,0-.63-1.6,2.44,2.44,0,0,0-1.62-.52,3.27,3.27,0,0,0-1.66.4,3.77,3.77,0,0,0-1.18,1,4.54,4.54,0,0,0-.7,1.45,5.69,5.69,0,0,0-.24,1.63,4.16,4.16,0,0,0,.17,1.21,2.55,2.55,0,0,0,.49.94,2.26,2.26,0,0,0,.84.6,3,3,0,0,0,1.18.22,2.68,2.68,0,0,0,1.82-.6,3.21,3.21,0,0,0,1-1.67h1.21A4.32,4.32,0,0,1,86.11,37.51Z"></path><path class="cls-1" d="M96.51,29.09l-.2,1h-5L90.65,33h4.71l-.21,1H90.43l-.66,3.14h5.11l-.22,1H88.33l1.92-9.09Z"></path><path class="cls-1" d="M100.5,38.18,102.11,29h7.13l-.39,2.14h-4.12l-.29,1.66h3.28L107.35,35h-3.28l-.57,3.22Z"></path><path class="cls-1" d="M112.38,35l-.56,3.2h-3L110.43,29h4.33a6.12,6.12,0,0,1,2.82.47,1.59,1.59,0,0,1,.84,1.5,3.91,3.91,0,0,1-.06.64,3.13,3.13,0,0,1-.64,1.42,2.49,2.49,0,0,1-1.3.82,2.64,2.64,0,0,1,1,.53,1.4,1.4,0,0,1,.28,1,5,5,0,0,1-.11.92,2.51,2.51,0,0,1-.05.31,9.45,9.45,0,0,0-.14,1c0,.21.08.31.23.31l0,.28h-3v-.09a1.09,1.09,0,0,1,0-.17,7.69,7.69,0,0,1,.14-1.34,3.87,3.87,0,0,0,.09-.72.76.76,0,0,0-.31-.68,2.19,2.19,0,0,0-1.11-.2Zm.35-2h1.19a2.39,2.39,0,0,0,1.11-.2.89.89,0,0,0,.47-.66.38.38,0,0,1,0-.1.44.44,0,0,0,0-.09.61.61,0,0,0-.29-.57,1.36,1.36,0,0,0-.78-.19h-1.4Z"></path><path class="cls-1" d="M118.9,38.18,120.52,29H128l-.38,2.14h-4.47l-.23,1.31h3.78l-.37,2.13h-3.78L122.29,36h4.64l-.38,2.14Z"></path><path class="cls-1" d="M128.09,38.18,129.71,29h7.46l-.38,2.14h-4.46l-.23,1.31h3.78l-.37,2.13h-3.78L131.47,36h4.65l-.38,2.14Z"></path><path class="cls-1" d="M143.12,31.68a.69.69,0,0,0-.32-.63,1.49,1.49,0,0,0-.75-.16c-.64,0-1,.17-1.05.52v.09c0,.21.13.37.39.49a10,10,0,0,0,1.24.39c.47.12.86.24,1.16.33a4.73,4.73,0,0,1,.89.41,2.14,2.14,0,0,1,.7.67,1.79,1.79,0,0,1,.26,1,2,2,0,0,1,0,.48A3.28,3.28,0,0,1,144,37.62a6.2,6.2,0,0,1-3.26.8,4.92,4.92,0,0,1-1.49-.21,3.39,3.39,0,0,1-1.12-.58,2.51,2.51,0,0,1-.7-.86,2.38,2.38,0,0,1-.21-1.42h2.87a.84.84,0,0,0,.37.73,1.36,1.36,0,0,0,.81.23,2.1,2.1,0,0,0,.94-.18.65.65,0,0,0,.42-.5.17.17,0,0,1,0-.05v0a.53.53,0,0,0-.38-.48,9,9,0,0,0-1.21-.38c-.48-.12-.87-.23-1.17-.32a4.08,4.08,0,0,1-.9-.42,2.23,2.23,0,0,1-.71-.69,1.94,1.94,0,0,1-.26-1,2.46,2.46,0,0,1,.05-.52,3.06,3.06,0,0,1,1.47-2.17,5.67,5.67,0,0,1,3-.75,5.05,5.05,0,0,1,1.55.21,2.81,2.81,0,0,1,1.07.59,2.31,2.31,0,0,1,.59.92,3.36,3.36,0,0,1,.2,1.18Z"></path><path class="cls-1" d="M147.5,29h8.4l-.42,2.4h-2.7l-1.19,6.76h-3l1.19-6.76h-2.7Z"></path><path class="cls-1" d="M161.13,38.18h-3l.58-3.34L156.33,29h3.36l1,3.1,2.13-3.1h3.31l-4.43,5.77Z"></path><path class="cls-1" d="M165.55,38.18,167.16,29h3l-1.23,7h4.12l-.38,2.14Z"></path><path class="cls-1" d="M174,38.18,175.65,29h7.47l-.39,2.14h-4.46L178,32.47h3.78l-.37,2.13h-3.78L177.42,36h4.64l-.38,2.14Z"></path></svg> 