<?xml version="1.0" encoding="UTF-8"?> <svg xmlns="http://www.w3.org/2000/svg" xmlns:xlink="http://www.w3.org/1999/xlink" id="Layer_1" data-name="Layer 1" viewBox="0 0 1205.29 281.7"><defs><style>.cls-1{fill:none;}.cls-2{clip-path:url(#clip-path);}</style><clipPath id="clip-path"><rect class="cls-1" x="3428.76" y="-6000.19" width="4320.5" height="2160"></rect></clipPath></defs><path d="M78.45,173.74h-61L47.31,4.26h81.18c20.82,0,36.83,4.08,47.59,12.12,11.11,8.32,16.74,20.14,16.74,35.16a63.08,63.08,0,0,1-1.2,12c-3.29,18.8-11.82,33.71-25.35,44.23s-32.11,15.76-55.5,15.76H87.42Zm-51.52-8H71.77l9-50.25h30c21.57,0,38.59-4.73,50.6-14.07s19.45-22.52,22.4-39.37a55.85,55.85,0,0,0,1.06-10.53c0-12.54-4.42-21.95-13.54-28.76-9.34-7-23.74-10.54-42.8-10.54H54Zm85.64-79.95H85.83l7.68-43.87h18.38a72.16,72.16,0,0,1,9.62.6,39.89,39.89,0,0,1,8.85,2.24,18.81,18.81,0,0,1,7.8,5.43,14.5,14.5,0,0,1,3.3,9.63v2.07l-.13.48a2.59,2.59,0,0,0-.1.59v.36l-.06.36c-1.4,7.63-4.75,13.32-10,16.92C126.21,84.07,119.94,85.81,112.57,85.81Zm-17.24-8h17.24c5.72,0,10.47-1.27,14.1-3.78,3.4-2.34,5.55-6.1,6.59-11.5a9.4,9.4,0,0,1,.21-1.59V59.84a6.69,6.69,0,0,0-1.42-4.5,10.77,10.77,0,0,0-4.54-3.1,32,32,0,0,0-7.07-1.79,64.48,64.48,0,0,0-8.55-.52H100.22Z"></path><path d="M342,173.74H281.05v-5.32a26.93,26.93,0,0,1-.22-3.16,156.44,156.44,0,0,1,2.52-24.43l0-.13a64.28,64.28,0,0,0,1.49-11.77c0-6.35-2.68-8.08-3.56-8.65-2-1.3-6.64-2.84-17.35-2.84H251.17l-9.87,56.3H180.25L210.15,4.26h79.61c24.08,0,41,2.88,51.62,8.8,11.26,6.27,17,16.35,17,30a68.43,68.43,0,0,1-1.19,11.91A58.67,58.67,0,0,1,345,81.88,45.7,45.7,0,0,1,329.63,94a36.72,36.72,0,0,1,8.93,6.27c4.11,4.11,6.11,10.68,6.11,20.09a93.09,93.09,0,0,1-1.85,16.81c-.31,2.16-.61,4-.91,5.66-2.09,11.77-2.4,15.43-2.4,16.56a6.05,6.05,0,0,0,.13,1.39h4.69Zm-53.16-8h44.43a10.6,10.6,0,0,1-1.74-6.33c0-1.6.27-5.21,2.53-18,.29-1.57.58-3.41.88-5.48l0-.18a85.12,85.12,0,0,0,1.72-15.4c0-7-1.3-12-3.77-14.45-2.87-2.87-8-5.74-15.2-8.51L306.29,93l11.81-3.18a38.87,38.87,0,0,0,20.72-13,50.81,50.81,0,0,0,10.49-23.32A60.78,60.78,0,0,0,350.36,43c0-10.65-4.2-18.16-12.86-23-9.3-5.17-25.37-7.8-47.74-7.8H216.85L189.77,165.76h44.82l9.87-56.3H264c10.3,0,17.39,1.34,21.68,4.11,4.79,3.09,7.21,8.26,7.21,15.36a70.53,70.53,0,0,1-1.63,13.27,148,148,0,0,0-2.41,23.06C288.81,165.39,288.82,165.55,288.83,165.76Zm50.52-4.95ZM275,82H249.34l7-40.06h28c6.6,0,12,1.36,16,4,4.47,3,6.83,7.61,6.83,13.41a13.41,13.41,0,0,1-.28,2.22l0,.14a6.05,6.05,0,0,0-.14,1v.33l-.06.32C305.59,70.07,302.14,75,296.43,78,291.25,80.68,284.22,82,275,82Zm-16.11-8H275c7.84,0,13.82-1.06,17.77-3.13a11.14,11.14,0,0,0,6.06-8.53,14.31,14.31,0,0,1,.28-2.11c.08-.47.13-.81.16-1,0-3-1.07-5.15-3.27-6.61-2.68-1.79-6.57-2.69-11.57-2.69H263.06Zm40.38-14.66v0Z"></path><path d="M438.47,178c-23.21,0-41.73-6.16-55.07-18.31s-20.25-29.61-20.25-51.62a112.85,112.85,0,0,1,2.09-21.17A106.39,106.39,0,0,1,377.7,51.35a101.93,101.93,0,0,1,23-27.65A99.4,99.4,0,0,1,431.76,6.06,110,110,0,0,1,468.3,0C480.84,0,492,1.86,501.58,5.54h0A64.47,64.47,0,0,1,525.47,21a63,63,0,0,1,13.88,22.73,82.19,82.19,0,0,1,4.49,27.35,101.39,101.39,0,0,1-1.63,17.75A117.05,117.05,0,0,1,529,126.19a101.85,101.85,0,0,1-23.58,28.36,100.77,100.77,0,0,1-31.17,17.51A108.82,108.82,0,0,1,438.47,178ZM468.3,8a102,102,0,0,0-33.89,5.61,91.16,91.16,0,0,0-28.59,16.23,94.24,94.24,0,0,0-21.2,25.5,98.78,98.78,0,0,0-11.52,33,105.41,105.41,0,0,0-2,19.76c0,19.67,5.94,35.05,17.65,45.72S417.31,170,438.47,170a100.77,100.77,0,0,0,33.12-5.5,92.79,92.79,0,0,0,28.71-16.13A94,94,0,0,0,522,122.24,109.39,109.39,0,0,0,534.35,87.4a93.21,93.21,0,0,0,1.51-16.34,74.27,74.27,0,0,0-4-24.7,55.28,55.28,0,0,0-12.13-19.88,56.65,56.65,0,0,0-21-13.49C490.09,9.67,479.86,8,468.3,8ZM445.42,138.52c-10.35,0-17.93-3.5-22.5-10.42-4.24-6.39-6.39-14.72-6.39-24.75a97.16,97.16,0,0,1,1.4-15.9,100.23,100.23,0,0,1,4.69-16.79,64.73,64.73,0,0,1,8.13-15.18,40.71,40.71,0,0,1,12.8-11.55h0a34.34,34.34,0,0,1,17.35-4.45c10.3,0,18,3.51,22.89,10.43,4.57,6.5,6.89,14.89,6.89,25a72.18,72.18,0,0,1-1.42,14c-2.64,14.71-7.5,26.7-14.46,35.55C467.46,133.79,457.57,138.52,445.42,138.52Zm2.1-87.66h0a32.93,32.93,0,0,0-10.31,9.3,56.87,56.87,0,0,0-7.12,13.31,92.48,92.48,0,0,0-4.3,15.37,89.42,89.42,0,0,0-1.27,14.51c0,8.44,1.7,15.28,5.05,20.34,3.05,4.61,8.24,6.85,15.85,6.85,9.71,0,17.27-3.61,23.1-11,6.14-7.82,10.48-18.62,12.9-32.11a64.52,64.52,0,0,0,1.28-12.53c0-8.39-1.83-15.23-5.44-20.35-3.35-4.75-8.7-7.06-16.36-7.06A26.46,26.46,0,0,0,447.52,50.86Z"></path><path d="M622.61,178c-24,0-42.86-6.2-56.19-18.43s-20.25-29.5-20.25-51.06A119.6,119.6,0,0,1,548,88.09a113.14,113.14,0,0,1,12.68-36.27,104.26,104.26,0,0,1,22.74-28A97.1,97.1,0,0,1,647.29,0c23.9,0,42.37,5.5,54.87,16.34,12.68,11,19.1,26.68,19.1,46.64,0,.7-.07,1.79-.22,3.54v7.41H662.81V66.57c0-6.25-1.66-10.89-5.06-14.17s-8.5-4.94-15.17-4.94c-8.25,0-15.13,3.45-21.05,10.56-6.17,7.42-10.59,18.6-13.15,33.24a102.77,102.77,0,0,0-1.51,16.13c0,7.41,1.67,13.25,5,17.36,3.08,3.84,8.75,5.79,16.85,5.79,7.09,0,12.77-2.07,17.36-6.33,4.76-4.43,8.35-10.55,10.67-18.2l.86-2.83h59.18l-1.47,5.09c-6.2,21.55-17.74,38.74-34.31,51.11S644.78,178,622.61,178ZM647.29,8a89.22,89.22,0,0,0-31.14,5.58,90.39,90.39,0,0,0-27.49,16.33,96.61,96.61,0,0,0-21,25.86,105.31,105.31,0,0,0-11.77,33.71,111.73,111.73,0,0,0-1.73,19.05c0,19.5,5.77,34.28,17.66,45.17S600.72,170,622.61,170c20.41,0,38.43-5.74,53.58-17C690,142.67,700,128.61,706,111.16H663.41a46.65,46.65,0,0,1-11.95,18.89c-6,5.62-13.71,8.47-22.79,8.47-10.65,0-18.42-3-23.08-8.78-4.45-5.56-6.71-13.08-6.71-22.35a110.53,110.53,0,0,1,1.63-17.46c2.8-16.07,7.81-28.51,14.89-37C622.81,44,632,39.48,642.58,39.48c8.8,0,15.77,2.41,20.71,7.17s7.38,11.17,7.5,19.29h42.28c.18-2,.21-2.71.21-3,0-17.79-5.35-31.07-16.35-40.61S669.22,8,647.29,8Z"></path><path d="M862.37,173.74H719.46L749.36,4.26H889.14L881,49.93H802.27l-2.65,15.12h66.61l-7.88,45.66H791.72l-3.07,17.36h81.87Zm-133.39-8h126.7l5.31-29.7H779.12l5.9-33.33h66.61L856.75,73H790.12l5.44-31.09H874.3l5.3-29.7H756.06Z"></path><path d="M947.39,178a91,91,0,0,1-27.45-3.89,64.09,64.09,0,0,1-21-10.9,48.86,48.86,0,0,1-13.41-16.48,45.87,45.87,0,0,1-4.68-20.5,51.71,51.71,0,0,1,.49-6.81l.46-3.46h58.07l.11,3.89c.11,4.42,1.62,7.46,4.75,9.58l.09.07c3,2.18,7.07,3.28,12,3.28,6.1,0,11.1-.92,14.87-2.74,4-1.92,4.88-4.07,5.16-5.59a5.77,5.77,0,0,1,.21-1.16c0-.91,0-3-4.33-4.83s-11.25-4-20.73-6.53c-8.37-2.09-15.4-4-20.84-5.78a78,78,0,0,1-16.67-7.68,42,42,0,0,1-13.74-13.38c-3.54-5.57-5.34-12.4-5.34-20.31a55.68,55.68,0,0,1,1-9.92c3-17.65,12.35-31.44,27.73-40.92C939.11,4.69,957.66,0,979.25,0c11,0,20.63,1.31,28.69,3.89,8.24,2.64,15.06,6.49,20.26,11.45A45.8,45.8,0,0,1,1039.75,33a64.92,64.92,0,0,1,3.6,22.1v4H985.12v-4c0-4.81-2.09-6.62-3.67-7.57-2.63-1.55-6.4-2.34-11.18-2.34-8.71,0-13.55,1.88-14.4,5.59v.77l-.21.85c.07,1,.61,2.85,4.45,4.55,4.34,1.92,11.49,4.14,21.24,6.62,8.41,2.25,15.38,4.27,20.77,6a79.63,79.63,0,0,1,16.42,7.56,41.69,41.69,0,0,1,13.63,13.14,35.37,35.37,0,0,1,5.35,19.55,47.72,47.72,0,0,1-1,9.25c-3.33,19.32-13.31,34.18-29.65,44.17C990.93,173.05,970.91,178,947.39,178Zm-58.51-54c0,.78-.07,1.55-.07,2.28a37.84,37.84,0,0,0,3.85,17A40.87,40.87,0,0,0,903.92,157a56,56,0,0,0,18.44,9.51,82.7,82.7,0,0,0,25,3.52c22,0,40.65-4.56,55.34-13.55,14.51-8.87,23-21.55,26-38.76l0-.11a39.39,39.39,0,0,0,.82-7.74,27.57,27.57,0,0,0-4.07-15.22,33.82,33.82,0,0,0-11-10.63,71.33,71.33,0,0,0-14.76-6.8c-5.26-1.7-12.1-3.68-20.33-5.89-10.27-2.6-17.63-4.91-22.45-7-7.62-3.37-9.22-8.54-9.22-12.29V51.5l.23-1.08v-.34l.06-.33c1.41-8.31,8.92-12.52,22.32-12.52,6.23,0,11.36,1.17,15.26,3.47a15,15,0,0,1,7.21,10.44h42.51a54.47,54.47,0,0,0-3-15.4,37.84,37.84,0,0,0-9.54-14.62c-4.33-4.12-10.11-7.36-17.2-9.63C998.23,9.16,989.4,8,979.25,8c-20.09,0-37.23,4.29-51,12.76-13.53,8.34-21.4,20-24.06,35.51a48,48,0,0,0-.84,8.53c0,6.37,1.37,11.76,4.08,16a34.17,34.17,0,0,0,11.16,10.85,69.63,69.63,0,0,0,15,6.89c5.28,1.69,12.14,3.59,20.39,5.65,10,2.63,17.21,4.9,21.93,6.94,7.55,3.28,9.13,8.44,9.13,12.19v1.61l-.27.59c-.56,3.5-2.69,8.37-9.61,11.71-4.86,2.35-11,3.54-18.34,3.54-6.63,0-12.23-1.6-16.64-4.76A18.06,18.06,0,0,1,932.36,124Z"></path><path d="M1109.33,178a91,91,0,0,1-27.45-3.89,64.09,64.09,0,0,1-21-10.9,48.86,48.86,0,0,1-13.41-16.48,45.87,45.87,0,0,1-4.68-20.5,51.71,51.71,0,0,1,.49-6.81l.46-3.46h58.08l.1,3.89c.11,4.42,1.62,7.46,4.75,9.58l.09.07c3,2.18,7.07,3.28,12,3.28,6.1,0,11.1-.92,14.87-2.74,4-1.92,4.88-4.07,5.16-5.59a5.77,5.77,0,0,1,.21-1.16c0-.91,0-3-4.33-4.83s-11.25-4-20.73-6.53c-8.37-2.09-15.4-4-20.84-5.78a78,78,0,0,1-16.67-7.68,42,42,0,0,1-13.74-13.38c-3.54-5.57-5.34-12.4-5.34-20.31a55.68,55.68,0,0,1,1-9.92c3-17.65,12.35-31.44,27.73-40.92C1101.05,4.69,1119.6,0,1141.19,0c11,0,20.63,1.31,28.69,3.89,8.24,2.64,15.06,6.49,20.26,11.45A45.8,45.8,0,0,1,1201.69,33a64.92,64.92,0,0,1,3.6,22.1v4h-58.23v-4c0-4.81-2.09-6.62-3.67-7.57-2.63-1.55-6.4-2.34-11.18-2.34-8.71,0-13.55,1.88-14.4,5.59v.77l-.21.85c.07,1,.61,2.85,4.45,4.55,4.34,1.92,11.49,4.14,21.24,6.62,8.41,2.25,15.38,4.27,20.77,6a79.63,79.63,0,0,1,16.42,7.56,41.69,41.69,0,0,1,13.63,13.14,35.37,35.37,0,0,1,5.35,19.55,47.72,47.72,0,0,1-1,9.25c-3.33,19.32-13.31,34.18-29.65,44.17C1152.87,173.05,1132.85,178,1109.33,178Zm-58.51-54c0,.78-.07,1.55-.07,2.28a37.84,37.84,0,0,0,3.85,17,40.87,40.87,0,0,0,11.26,13.8,56,56,0,0,0,18.44,9.51,82.7,82.7,0,0,0,25,3.52c22,0,40.65-4.56,55.34-13.55,14.51-8.87,23-21.55,26-38.76l0-.11a39.39,39.39,0,0,0,.82-7.74,27.57,27.57,0,0,0-4.07-15.22,33.82,33.82,0,0,0-11-10.63,71.33,71.33,0,0,0-14.76-6.8c-5.26-1.7-12.1-3.68-20.33-5.89-10.27-2.6-17.63-4.91-22.45-7-7.62-3.37-9.22-8.54-9.22-12.29V51.5l.23-1.08v-.34l.06-.33c1.41-8.31,8.92-12.52,22.32-12.52,6.23,0,11.36,1.17,15.26,3.47a15,15,0,0,1,7.21,10.44h42.51a54.47,54.47,0,0,0-3-15.4,37.84,37.84,0,0,0-9.54-14.62c-4.33-4.12-10.11-7.36-17.2-9.63-7.27-2.33-16.1-3.51-26.25-3.51-20.09,0-37.23,4.29-51,12.76-13.53,8.34-21.4,20-24.06,35.51a48,48,0,0,0-.84,8.53c0,6.37,1.37,11.76,4.08,16a34.17,34.17,0,0,0,11.16,10.85,69.63,69.63,0,0,0,15,6.89c5.28,1.69,12.14,3.59,20.39,5.65,10,2.63,17.21,4.9,21.93,6.94,7.55,3.28,9.13,8.44,9.13,12.19v1.61l-.27.59c-.56,3.5-2.69,8.37-9.61,11.71-4.86,2.35-11,3.54-18.34,3.54-6.63,0-12.23-1.6-16.64-4.76A18.06,18.06,0,0,1,1094.3,124Z"></path><path d="M37.62,217.83q9,0,13.79,4.28t4.76,12.95A20.7,20.7,0,0,1,55,241.41a17.5,17.5,0,0,1-3.9,6.43,21.12,21.12,0,0,1-7.35,4.94,29.34,29.34,0,0,1-11.5,2H13.74L8.31,280.3H0l13-62.47ZM34,247.75q6.83,0,10.32-3.54a14,14,0,0,0,2.67-14,8.16,8.16,0,0,0-2.23-3.15,8.55,8.55,0,0,0-3.24-1.71,14.27,14.27,0,0,0-3.94-.52H20l-4.82,22.92Z"></path><path d="M113,217.83l-1.4,7H76.82l-4.2,19.86H105l-1.4,7H71.14L66.59,273.3h35.17l-1.58,7H56.7l13.21-62.47Z"></path><path d="M147.43,217.83a39.4,39.4,0,0,1,7.66.74,19.43,19.43,0,0,1,6.61,2.58,13.59,13.59,0,0,1,4.59,4.9,15.64,15.64,0,0,1,1.71,7.7,17.12,17.12,0,0,1-1.05,6,18,18,0,0,1-2.89,5.12,15.9,15.9,0,0,1-4.42,3.77,15.66,15.66,0,0,1-5.73,1.92v.18a8.18,8.18,0,0,1,3.37,1.92,9.29,9.29,0,0,1,2.1,3.11,14.25,14.25,0,0,1,1,4,22.39,22.39,0,0,1,0,4.55c-.12,1.4-.3,2.78-.53,4.15s-.41,2.75-.52,4.12a22,22,0,0,0,0,4,9.94,9.94,0,0,0,1.13,3.76h-8.66a18,18,0,0,1-.7-5.16,37.42,37.42,0,0,1,.88-8.23,25.48,25.48,0,0,0,.39-6.78,9,9,0,0,0-1.27-4,5,5,0,0,0-2.36-1.92,9.81,9.81,0,0,0-2.8-.62H124.07l-5.6,26.69h-8.31l13.21-62.47Zm-3.15,28.78a20,20,0,0,0,7.92-1.31,13.12,13.12,0,0,0,4.68-3.19,9.93,9.93,0,0,0,2.23-4,15,15,0,0,0,.57-3.8,9.47,9.47,0,0,0-1.05-4.73,8,8,0,0,0-2.75-2.89,11.09,11.09,0,0,0-3.9-1.44,25.86,25.86,0,0,0-4.55-.39H130.2l-4.64,21.78Z"></path><path d="M224.26,217.83l-1.49,7H190l-4.12,19.86h28.88l-1.49,7H184.36l-6,28.61h-8.32l13-62.47Z"></path><path d="M225.39,239.92a37.82,37.82,0,0,1,6.78-12.12,32.08,32.08,0,0,1,25.16-11.46,26.66,26.66,0,0,1,10.89,2.14,24.2,24.2,0,0,1,8.23,5.86,25.89,25.89,0,0,1,5.16,8.8A32.45,32.45,0,0,1,283.4,244a43.62,43.62,0,0,1-2.32,14.17,37.84,37.84,0,0,1-6.65,12.08,31.87,31.87,0,0,1-10.58,8.35,31.16,31.16,0,0,1-14.05,3.11q-12.86,0-19.81-7.13t-7-20.17A44.36,44.36,0,0,1,225.39,239.92Zm7.09,22.79a17.67,17.67,0,0,0,3.41,6.43,15.43,15.43,0,0,0,5.73,4.16,20.63,20.63,0,0,0,8.18,1.49,21.65,21.65,0,0,0,10.94-2.71,25.27,25.27,0,0,0,7.92-7.09,31.81,31.81,0,0,0,4.81-9.89A39.2,39.2,0,0,0,275.09,244a28,28,0,0,0-1.14-8.14,18.35,18.35,0,0,0-3.41-6.52A16.73,16.73,0,0,0,265,225a17.11,17.11,0,0,0-7.66-1.62,22.82,22.82,0,0,0-11.42,2.75,25.63,25.63,0,0,0-8.09,7.14,31.06,31.06,0,0,0-4.86,9.93,39.94,39.94,0,0,0-1.62,11.24A28.54,28.54,0,0,0,232.48,262.71Z"></path><path d="M324,217.83a39.4,39.4,0,0,1,7.66.74,19.29,19.29,0,0,1,6.6,2.58,13.53,13.53,0,0,1,4.6,4.9,15.64,15.64,0,0,1,1.7,7.7,17.12,17.12,0,0,1-1.05,6,18,18,0,0,1-2.88,5.12,15.9,15.9,0,0,1-4.42,3.77,15.66,15.66,0,0,1-5.73,1.92v.18a8.18,8.18,0,0,1,3.37,1.92,9.29,9.29,0,0,1,2.1,3.11,14.25,14.25,0,0,1,1,4,21.71,21.71,0,0,1-.05,4.55c-.11,1.4-.29,2.78-.52,4.15s-.41,2.75-.53,4.12a24,24,0,0,0,0,4A10.14,10.14,0,0,0,337,280.3h-8.66a18,18,0,0,1-.7-5.16,38,38,0,0,1,.87-8.23,25.14,25.14,0,0,0,.4-6.78,9,9,0,0,0-1.27-4,5,5,0,0,0-2.36-1.92,9.81,9.81,0,0,0-2.8-.62H300.64L295,280.3h-8.31l13.21-62.47Zm-3.15,28.78a20,20,0,0,0,7.92-1.31,13.12,13.12,0,0,0,4.68-3.19,9.93,9.93,0,0,0,2.23-4,15,15,0,0,0,.57-3.8,9.47,9.47,0,0,0-1.05-4.73,8,8,0,0,0-2.75-2.89,11.09,11.09,0,0,0-3.9-1.44,25.86,25.86,0,0,0-4.55-.39H306.76l-4.63,21.78Z"></path><path d="M371.34,217.83l8.31,53.72h.18l30.88-53.72h11.55L409.05,280.3h-8l12.77-54.69h-.17L381.84,280.3h-8l-8.14-54.69h-.18L354.63,280.3h-8l13.13-62.47Z"></path><path d="M464.08,217.83l11.29,62.47H466.8l-2.89-18.81H437.57L426.64,280.3h-9.19L455,217.83Zm-1.22,36.66-4.64-29.31h-.17l-16.71,29.31Z"></path><path d="M503.28,217.83l22.32,51.71h.17l10.41-51.71h8.05L531,280.3H522.1L500,228.94h-.18L489.2,280.3h-8.05l13.21-62.47Z"></path><path d="M592.22,275.71q-6.87,6-18.41,6-12.87,0-19.82-7.13t-7-20.17a44.36,44.36,0,0,1,2.36-14.48,37.82,37.82,0,0,1,6.78-12.12,32.08,32.08,0,0,1,25.16-11.46,31.52,31.52,0,0,1,9.41,1.35,21.84,21.84,0,0,1,7.52,4,18.49,18.49,0,0,1,5,6.74,22.76,22.76,0,0,1,1.84,9.49h-8.31q0-7.35-4.33-11t-11.16-3.63a22.85,22.85,0,0,0-11.42,2.75,25.74,25.74,0,0,0-8.09,7.14,31.06,31.06,0,0,0-4.86,9.93,39.94,39.94,0,0,0-1.62,11.24,28.54,28.54,0,0,0,1.14,8.31,17.67,17.67,0,0,0,3.41,6.43,15.43,15.43,0,0,0,5.73,4.16,20.69,20.69,0,0,0,8.19,1.49q7.7,0,12.51-4.07a22.17,22.17,0,0,0,6.82-11.51h8.32Q599.09,269.71,592.22,275.71Z"></path><path d="M663.75,217.83l-1.4,7H627.62l-4.2,19.86h32.37l-1.4,7H621.93l-4.55,21.61h35.17l-1.57,7H607.49l13.21-62.47Z"></path><path d="M691.14,280.3l11.11-63h49L748.62,232H720.27l-2,11.46h22.58l-2.54,14.7H715.72l-3.93,22.14Z"></path><path d="M772.86,258.34l-3.85,22H748.36l11.11-63h29.75q13.56,0,19.38,3.24t5.82,10.32a24.37,24.37,0,0,1-.44,4.38,21.31,21.31,0,0,1-4.41,9.8,16.82,16.82,0,0,1-8.89,5.6,19,19,0,0,1,6.48,3.67c1.28,1.29,1.92,3.53,1.92,6.74a34.16,34.16,0,0,1-.7,6.3c-.11.82-.23,1.55-.35,2.19a56.82,56.82,0,0,0-1,6.73c0,1.4.53,2.11,1.58,2.11l-.35,1.92H787.38v-.61c0-.47-.08-.85-.08-1.14a59.54,59.54,0,0,1,1-9.28,26.11,26.11,0,0,0,.61-4.89q0-3.33-2.1-4.69t-7.61-1.35Zm2.45-13.83h8.14a16.73,16.73,0,0,0,7.65-1.4,5.94,5.94,0,0,0,3.2-4.55,4.65,4.65,0,0,1,.08-.7c.06-.35.09-.55.09-.61a4.41,4.41,0,0,0-2-3.94,9.62,9.62,0,0,0-5.38-1.31H777.5Z"></path><path d="M817.75,280.3l11.11-63h51.36L877.59,232H846.88l-1.57,9h26l-2.53,14.7h-26L841,265.6H873l-2.63,14.7Z"></path><path d="M880.92,280.3l11.11-63h51.36L940.77,232H910.06l-1.58,9h26l-2.54,14.7h-26l-1.75,9.89h31.94l-2.62,14.7Z"></path><path d="M967.28,258.34l-3.85,22H942.78l11.11-63h29.75q13.56,0,19.38,3.24t5.82,10.32a25.32,25.32,0,0,1-.44,4.38A21.22,21.22,0,0,1,1004,245a16.76,16.76,0,0,1-8.88,5.6,19.16,19.16,0,0,1,6.48,3.67c1.28,1.29,1.92,3.53,1.92,6.74a34.16,34.16,0,0,1-.7,6.3c-.12.82-.23,1.55-.35,2.19a56.82,56.82,0,0,0-1,6.73c0,1.4.52,2.11,1.57,2.11l-.35,1.92H981.8v-.61a9.09,9.09,0,0,1-.08-1.14,59.54,59.54,0,0,1,1-9.28,27,27,0,0,0,.61-4.89q0-3.33-2.1-4.69t-7.61-1.35Zm2.45-13.83h8.14a16.73,16.73,0,0,0,7.65-1.4,5.91,5.91,0,0,0,3.19-4.55,3.79,3.79,0,0,1,.09-.7c.06-.35.09-.55.09-.61a4.43,4.43,0,0,0-2-3.94,9.62,9.62,0,0,0-5.38-1.31h-9.62Z"></path><path d="M1012.16,280.3l11.12-63h20.65l-11.12,63Z"></path><path d="M1045.24,280.3l11.11-63H1084q13.56,0,20.91,5.64t7.35,17.11a42.35,42.35,0,0,1-.7,7.44,47.33,47.33,0,0,1-4.94,15,32.78,32.78,0,0,1-8.53,10.2,33.7,33.7,0,0,1-11.51,5.77,51.5,51.5,0,0,1-14.22,1.84Zm23.27-14.7h4.38q7.35,0,11.81-4.11t6-12.86a42.21,42.21,0,0,0,.61-6.48q0-5.68-3-7.92t-10-2.23h-3.93Z"></path><path d="M1114.27,280.3l11.12-63h51.36l-2.63,14.7h-30.71l-1.57,9h26l-2.53,14.7h-26l-1.75,9.89h31.94l-2.63,14.7Z"></path><g class="cls-2"><image width="3583" height="4778" transform="translate(106.14 -9395.68) scale(2.26)"></image></g></svg> 