<?xml version="1.0" encoding="UTF-8"?> <svg xmlns="http://www.w3.org/2000/svg" id="Layer_1" data-name="Layer 1" viewBox="0 0 185.02 38.43"><defs><style>.cls-1{fill:#231f20;}</style></defs><path class="cls-1" d="M7.85,29.16l-.22,1H2.88L2.28,33H6.46l-.21,1H2.07L1.2,38.21H0l1.89-9Z"></path><path class="cls-1" d="M12.67,29.16a6,6,0,0,1,1.11.11,2.7,2.7,0,0,1,1,.38,1.9,1.9,0,0,1,.67.71,2.37,2.37,0,0,1,.24,1.11,2.52,2.52,0,0,1-.57,1.61,2.4,2.4,0,0,1-.64.55,2.25,2.25,0,0,1-.83.27h0a1.21,1.21,0,0,1,.49.28,1.37,1.37,0,0,1,.3.45,1.59,1.59,0,0,1,.14.57,3.64,3.64,0,0,1,0,.66c0,.2,0,.41-.08.61a5.93,5.93,0,0,0-.07.59,2.81,2.81,0,0,0,0,.58,1.3,1.3,0,0,0,.16.54H13.3a2.65,2.65,0,0,1-.11-.74,7,7,0,0,1,.13-1.2,3.37,3.37,0,0,0,.06-1,1.17,1.17,0,0,0-.19-.57.67.67,0,0,0-.34-.28,1.37,1.37,0,0,0-.4-.09H9.29l-.81,3.86H7.27l1.92-9Zm-.45,4.17a2.77,2.77,0,0,0,1.14-.19,1.86,1.86,0,0,0,.68-.46,1.46,1.46,0,0,0,.33-.58,2.52,2.52,0,0,0,.08-.55,1.37,1.37,0,0,0-.15-.69,1.34,1.34,0,0,0-.4-.42,2,2,0,0,0-.57-.21,4.89,4.89,0,0,0-.66-.05H10.18l-.67,3.15Z"></path><path class="cls-1" d="M24.11,29.16l-.21,1h-5L18.29,33H23l-.2,1H18.1l-.66,3.13h5.09l-.22,1H16l1.91-9Z"></path><path class="cls-1" d="M31.85,29.16l-.2,1h-5L26,33.05h4.7l-.21,1h-4.7l-.66,3.13h5.1l-.23,1H23.7l1.91-9Z"></path><path class="cls-1" d="M37.8,30.94a1.49,1.49,0,0,0-.42-.58,1.61,1.61,0,0,0-.66-.31,4.12,4.12,0,0,0-.86-.09,3.27,3.27,0,0,0-.7.08,3.09,3.09,0,0,0-.68.26,1.72,1.72,0,0,0-.51.46,1.13,1.13,0,0,0-.21.69,1.34,1.34,0,0,0,.12.56,1.11,1.11,0,0,0,.31.4,1.75,1.75,0,0,0,.47.29,4.3,4.3,0,0,0,.57.2l1.22.33a5.57,5.57,0,0,1,.81.29A2.77,2.77,0,0,1,38,34a2,2,0,0,1,.49.69,2.46,2.46,0,0,1,.18,1,2.28,2.28,0,0,1-.32,1.22,2.8,2.8,0,0,1-.83.85,3.74,3.74,0,0,1-1.14.5,4.62,4.62,0,0,1-1.23.17,5.82,5.82,0,0,1-1.5-.19,3.29,3.29,0,0,1-1.16-.56,2.41,2.41,0,0,1-.72-1,3,3,0,0,1-.18-1.44h1.2a2.43,2.43,0,0,0,.14,1,1.59,1.59,0,0,0,.49.68,1.92,1.92,0,0,0,.78.36,4.78,4.78,0,0,0,1,.1,3.31,3.31,0,0,0,.83-.1,2.15,2.15,0,0,0,.73-.31,1.65,1.65,0,0,0,.51-.54,1.44,1.44,0,0,0,.2-.78,1.34,1.34,0,0,0-.13-.59,1.1,1.1,0,0,0-.35-.42,2.12,2.12,0,0,0-.51-.28,6.45,6.45,0,0,0-.62-.21l-1.23-.33a4.3,4.3,0,0,1-.78-.29,2.89,2.89,0,0,1-.64-.46,2.1,2.1,0,0,1-.45-.65,2.46,2.46,0,0,1,.13-2,2.79,2.79,0,0,1,.76-.81,3.35,3.35,0,0,1,1-.5,4.4,4.4,0,0,1,1.2-.16,4.92,4.92,0,0,1,1.27.17,3.27,3.27,0,0,1,1.06.52,2.46,2.46,0,0,1,.71.89,2.81,2.81,0,0,1,.24,1.31h-1.2A2.14,2.14,0,0,0,37.8,30.94Z"></path><path class="cls-1" d="M44.57,30.18l-1.69,8H41.67l1.7-8h-3l.21-1h7.3l-.22,1Z"></path><path class="cls-1" d="M47.68,29.16H49l1.85,4.39,3.43-4.39h1.4l-4.39,5.42-.78,3.63H49.29l.77-3.63Z"></path><path class="cls-1" d="M57.78,29.16l-1.67,8h4.78l-.22,1h-6l1.91-9Z"></path><path class="cls-1" d="M69.87,29.16l-.2,1h-5L64,33.05h4.69l-.2,1H63.81l-.66,3.13h5.1l-.23,1h-6.3l1.92-9Z"></path><path class="cls-1" d="M73.84,38.21l1.61-9.12h7.1l-.39,2.13h-4.1l-.29,1.66H81L80.67,35H77.4l-.57,3.2Z"></path><path class="cls-1" d="M85.68,35l-.56,3.18h-3l1.61-9.12H88a6,6,0,0,1,2.8.47A1.6,1.6,0,0,1,91.69,31a4.64,4.64,0,0,1-.07.64A3,3,0,0,1,91,33.11a2.46,2.46,0,0,1-1.28.81,2.62,2.62,0,0,1,.93.53,1.37,1.37,0,0,1,.28,1,4.71,4.71,0,0,1-.1.92v.31a8.3,8.3,0,0,0-.14,1c0,.2.08.3.23.3v.28h-3V38a7.52,7.52,0,0,1,.14-1.34,3.36,3.36,0,0,0,.08-.71.76.76,0,0,0-.3-.68,2.18,2.18,0,0,0-1.1-.2ZM86,33h1.18a2.49,2.49,0,0,0,1.11-.2.88.88,0,0,0,.46-.66V32a.64.64,0,0,0-.29-.57,1.33,1.33,0,0,0-.78-.19H86.35Z"></path><path class="cls-1" d="M92.18,38.21l1.61-9.12h7.44l-.38,2.13H96.4l-.23,1.3h3.76l-.36,2.13H95.8l-.25,1.43h4.62l-.38,2.13Z"></path><path class="cls-1" d="M101.33,38.21l1.61-9.12h7.44L110,31.22h-4.45l-.23,1.3h3.77l-.37,2.13H105l-.25,1.43h4.63L109,38.21Z"></path><path class="cls-1" d="M113.84,35l-.56,3.18h-3l1.61-9.12h4.31a6,6,0,0,1,2.8.47,1.57,1.57,0,0,1,.85,1.49,2.73,2.73,0,0,1-.07.64,3,3,0,0,1-.64,1.42,2.46,2.46,0,0,1-1.28.81,2.66,2.66,0,0,1,.94.53,1.38,1.38,0,0,1,.27,1,4.71,4.71,0,0,1-.1.92,1.61,1.61,0,0,1,0,.31,8.3,8.3,0,0,0-.14,1c0,.2.08.3.23.3v.28h-3V38a8.58,8.58,0,0,1,.14-1.34,4.18,4.18,0,0,0,.09-.71.75.75,0,0,0-.31-.68,2.18,2.18,0,0,0-1.1-.2Zm.35-2h1.18a2.49,2.49,0,0,0,1.11-.2.88.88,0,0,0,.46-.66V32a.64.64,0,0,0-.29-.57,1.33,1.33,0,0,0-.78-.19h-1.39Z"></path><path class="cls-1" d="M120.34,38.21,122,29.09h3l-1.61,9.12Z"></path><path class="cls-1" d="M125.13,38.21l1.61-9.12h4a4.91,4.91,0,0,1,3,.82,2.9,2.9,0,0,1,1.07,2.47,7.38,7.38,0,0,1-.82,3.25,4.65,4.65,0,0,1-1.24,1.48,4.91,4.91,0,0,1-1.66.84,7.51,7.51,0,0,1-2.06.26Zm3.37-2.13h.63a2.42,2.42,0,0,0,1.71-.59,3.21,3.21,0,0,0,.88-1.86,7.3,7.3,0,0,0,.09-.94,1.35,1.35,0,0,0-.44-1.15,2.54,2.54,0,0,0-1.45-.32h-.57Z"></path><path class="cls-1" d="M135.13,38.21l1.61-9.12h7.44l-.38,2.13h-4.45l-.23,1.3h3.77l-.37,2.13h-3.77l-.25,1.43h4.63l-.38,2.13Z"></path><path d="M29.54,24.7H21.63L23,17l.44-2.13L18.91,24.7h-6.1L11.73,14.59l-.24,1.83L10,24.7H2.12L6.37.61H16.44l1.37,12.77L23.67.61H33.79ZM23,23.56h5.61L32.44,1.74h-8L17.12,17.6,15.42,1.74H7.32L3.47,23.56H9.08l1.29-7.31.47-3.53.33-3.89h1.1l1.56,14.73h4.35L25,8.83h1.17l-1.3,4.84-.73,3.56Z"></path><path d="M56.11,24.7H47.43l-.35-3H40.46l-1.4,3H30.38L43.26.61h8.47Zm-7.66-1.14h6.3l-4-21.82H43.94L32.28,23.56h6l1.4-3H48.1Zm-.7-6.68H41.47L46.49,6Zm-4.5-1.13h3.22l-.65-5.59Z"></path><path d="M66.91,25.3a12.81,12.81,0,0,1-3.9-.55,9,9,0,0,1-3-1.55,7.07,7.07,0,0,1-1.91-2.34,6.58,6.58,0,0,1-.66-2.92,6.81,6.81,0,0,1,.07-1l.06-.49h8.26V17a1.56,1.56,0,0,0,.68,1.36,2.87,2.87,0,0,0,1.72.47,4.85,4.85,0,0,0,2.11-.39c.57-.27.69-.57.74-.79a1,1,0,0,1,0-.17c0-.13,0-.42-.61-.68a21.16,21.16,0,0,0-3-.93c-1.18-.3-2.18-.57-3-.82A11.71,11.71,0,0,1,62.23,14a5.94,5.94,0,0,1-1.95-1.91,5.3,5.3,0,0,1-.76-2.88,8,8,0,0,1,.14-1.41A8.21,8.21,0,0,1,63.6,2a14.77,14.77,0,0,1,7.84-2,13.75,13.75,0,0,1,4.08.55A7.52,7.52,0,0,1,78.4,2.18,6.56,6.56,0,0,1,80,4.69a9.25,9.25,0,0,1,.51,3.15V8.4H72.27V7.84a1.12,1.12,0,0,0-.52-1.08,3.17,3.17,0,0,0-1.59-.33c-1.24,0-1.92.26-2,.79v.11l0,.12c0,.15.09.41.64.65a20.77,20.77,0,0,0,3,.94c1.19.32,2.18.61,3,.85A11.12,11.12,0,0,1,77,11,5.89,5.89,0,0,1,79,12.84a5.05,5.05,0,0,1,.76,2.78,7,7,0,0,1-.14,1.32,8.81,8.81,0,0,1-4.21,6.27A16,16,0,0,1,66.91,25.3Zm-8.32-7.68c0,.11,0,.22,0,.32a5.4,5.4,0,0,0,.55,2.41,5.85,5.85,0,0,0,1.6,2,8.3,8.3,0,0,0,2.62,1.35,11.87,11.87,0,0,0,3.56.5,14.9,14.9,0,0,0,7.87-1.93,7.65,7.65,0,0,0,3.69-5.51,5.69,5.69,0,0,0,.12-1.11A4,4,0,0,0,78,13.45a4.93,4.93,0,0,0-1.57-1.51,10.41,10.41,0,0,0-2.1-1c-.75-.24-1.72-.52-2.89-.83a21.75,21.75,0,0,1-3.19-1A1.88,1.88,0,0,1,67,7.39V7.32l0-.25c.2-1.18,1.27-1.78,3.17-1.78a4.2,4.2,0,0,1,2.17.5,2.13,2.13,0,0,1,1,1.48h6A7.88,7.88,0,0,0,79,5.08,5.41,5.41,0,0,0,77.61,3a6.36,6.36,0,0,0-2.44-1.37,12.38,12.38,0,0,0-3.73-.5A13.59,13.59,0,0,0,64.19,3,7,7,0,0,0,60.77,8a6.69,6.69,0,0,0-.12,1.21,4.18,4.18,0,0,0,.59,2.28A4.85,4.85,0,0,0,62.82,13,9.93,9.93,0,0,0,65,14c.75.24,1.72.51,2.89.8a22.6,22.6,0,0,1,3.12,1,1.85,1.85,0,0,1,1.3,1.73v.23l0,.08a2.23,2.23,0,0,1-1.37,1.67,6,6,0,0,1-2.6.5,4,4,0,0,1-2.37-.68,2.58,2.58,0,0,1-1.11-1.71Z"></path><path d="M94.55,24.7H85.87l3-16.93H82.11L83.36.61h22.2l-1.25,7.16H97.55Zm-7.32-1.14H93.6l3-16.93h6.76l.86-4.89H84.32l-.86,4.89h6.76Z"></path><path d="M123.88,24.7H103.57L107.82.61h19.86L126.52,7.1H115.34L115,9.25h9.47l-1.12,6.49h-9.47l-.44,2.46H125Zm-19-1.14h18l.75-4.22H112.05l.84-4.74h9.46l.73-4.22h-9.47L114.38,6h11.19l.76-4.22H108.77Z"></path><path d="M149.1,24.7h-8.67v-.76a4.21,4.21,0,0,1,0-.45,21.88,21.88,0,0,1,.36-3.47,9.85,9.85,0,0,0,.22-1.69c0-.91-.38-1.15-.51-1.23a4.73,4.73,0,0,0-2.47-.41h-1.81l-1.41,8h-8.67L130.36.61h11.31c3.42,0,5.82.41,7.34,1.25a4.53,4.53,0,0,1,2.41,4.25,10.06,10.06,0,0,1-.17,1.7,8.3,8.3,0,0,1-1.73,3.83,6.56,6.56,0,0,1-2.18,1.73,5.12,5.12,0,0,1,1.27.89,3.9,3.9,0,0,1,.87,2.85,13,13,0,0,1-.27,2.41c0,.28-.08.55-.13.79a20.32,20.32,0,0,0-.34,2.35.81.81,0,0,0,0,.2h.67Zm-7.56-1.14h6.31a1.51,1.51,0,0,1-.24-.9,16.31,16.31,0,0,1,.36-2.55q.06-.34.12-.78a12,12,0,0,0,.25-2.22,3,3,0,0,0-.53-2,6.34,6.34,0,0,0-2.17-1.21L144,13.23l1.68-.46a5.49,5.49,0,0,0,2.94-1.85,7.19,7.19,0,0,0,1.5-3.31,8.63,8.63,0,0,0,.15-1.5,3.43,3.43,0,0,0-1.83-3.26c-1.32-.74-3.61-1.11-6.79-1.11H131.31l-3.85,21.82h6.37l1.4-8H138a6,6,0,0,1,3.09.58,2.42,2.42,0,0,1,1,2.19,10.68,10.68,0,0,1-.23,1.89,20.42,20.42,0,0,0-.34,3.27Zm-2-11.9h-3.64l1-5.7h4a4,4,0,0,1,2.27.58,2.16,2.16,0,0,1,1,1.9,1.44,1.44,0,0,1,0,.32,1.19,1.19,0,0,0,0,.16V9a2.71,2.71,0,0,1-1.46,2.07A6.57,6.57,0,0,1,139.57,11.66Zm-2.29-1.14h2.29a5.69,5.69,0,0,0,2.52-.44A1.57,1.57,0,0,0,143,8.86a2.19,2.19,0,0,1,.05-.31.44.44,0,0,1,0-.13,1.07,1.07,0,0,0-.47-.94,3,3,0,0,0-1.64-.38h-3Z"></path><path d="M171.38,25.3a12.85,12.85,0,0,1-3.9-.55,9.1,9.1,0,0,1-3-1.55,7,7,0,0,1-1.9-2.34,6.59,6.59,0,0,1-.67-2.92,8.51,8.51,0,0,1,.07-1l.07-.49h8.25l0,.56A1.55,1.55,0,0,0,171,18.4a2.89,2.89,0,0,0,1.72.47,4.92,4.92,0,0,0,2.12-.39c.56-.27.69-.57.73-.79a.51.51,0,0,1,0-.17c0-.12,0-.42-.62-.68a20.49,20.49,0,0,0-2.94-.93c-1.19-.3-2.19-.57-3-.82A11.47,11.47,0,0,1,166.71,14a5.87,5.87,0,0,1-2-1.91A5.3,5.3,0,0,1,164,9.21a8,8,0,0,1,.14-1.41A8.24,8.24,0,0,1,168.07,2a14.79,14.79,0,0,1,7.84-2A13.75,13.75,0,0,1,180,.55a7.52,7.52,0,0,1,2.88,1.63,6.56,6.56,0,0,1,1.64,2.51A9.25,9.25,0,0,1,185,7.84V8.4h-8.27V7.84a1.12,1.12,0,0,0-.52-1.08,3.19,3.19,0,0,0-1.59-.33c-1.24,0-1.93.26-2,.79v.11l0,.12c0,.15.09.41.63.65a21.63,21.63,0,0,0,3,.94c1.19.32,2.18.61,2.95.85A11.2,11.2,0,0,1,181.5,11a6,6,0,0,1,1.93,1.87,5,5,0,0,1,.76,2.78,6.93,6.93,0,0,1-.13,1.32,8.8,8.8,0,0,1-4.22,6.27A16,16,0,0,1,171.38,25.3Zm-8.31-7.68c0,.11,0,.22,0,.32a5.39,5.39,0,0,0,.54,2.41,6.1,6.1,0,0,0,1.6,2,8.25,8.25,0,0,0,2.63,1.35,11.8,11.8,0,0,0,3.55.5,14.88,14.88,0,0,0,7.87-1.93,7.62,7.62,0,0,0,3.69-5.51,5.69,5.69,0,0,0,.12-1.11,3.89,3.89,0,0,0-.58-2.17,4.83,4.83,0,0,0-1.57-1.51,10.17,10.17,0,0,0-2.1-1c-.75-.24-1.72-.52-2.89-.83a22.16,22.16,0,0,1-3.19-1,1.88,1.88,0,0,1-1.31-1.75V7.32l0-.25c.2-1.18,1.27-1.78,3.18-1.78a4.25,4.25,0,0,1,2.17.5,2.12,2.12,0,0,1,1,1.48h6a7.54,7.54,0,0,0-.43-2.19A5.39,5.39,0,0,0,182.09,3a6.48,6.48,0,0,0-2.45-1.37,12.38,12.38,0,0,0-3.73-.5A13.55,13.55,0,0,0,168.67,3,7,7,0,0,0,165.25,8a6.69,6.69,0,0,0-.12,1.21,4.18,4.18,0,0,0,.58,2.28A4.88,4.88,0,0,0,167.3,13a9.86,9.86,0,0,0,2.12,1c.75.24,1.73.51,2.9.8a22.6,22.6,0,0,1,3.12,1,1.84,1.84,0,0,1,1.29,1.73v.23l0,.08a2.26,2.26,0,0,1-1.37,1.67,6.07,6.07,0,0,1-2.61.5,4,4,0,0,1-2.37-.68,2.57,2.57,0,0,1-1.1-1.71Z"></path></svg> 