<?xml version="1.0" encoding="UTF-8"?> <!-- Generator: Adobe Illustrator 26.0.2, SVG Export Plug-In . SVG Version: 6.00 Build 0) --> <svg xmlns="http://www.w3.org/2000/svg" xmlns:xlink="http://www.w3.org/1999/xlink" version="1.1" id="Layer_1" x="0px" y="0px" viewBox="0 0 630 94.2" style="enable-background:new 0 0 630 94.2;" xml:space="preserve"> <style type="text/css"> .st0{fill:none;stroke:#000000;stroke-width:4.22;stroke-miterlimit:6.57;} </style> <g> <path d="M213.9,37.9l5.9-33.5h26.1l-1.4,7.8h-15.1l-1.1,6.1h12l-1.3,7.8h-12l-2.1,11.8H213.9z"></path> <path d="M273.5,4.6c1.9,0.7,3.4,1.7,4.7,3c1.2,1.3,2.1,2.7,2.7,4.4s0.9,3.5,0.9,5.4c0,1.1-0.1,2.3-0.3,3.5 c-0.5,2.8-1.4,5.3-2.7,7.5c-1.3,2.2-2.8,4.1-4.7,5.7c-1.9,1.5-3.9,2.7-6.2,3.5c-2.3,0.8-4.7,1.2-7.1,1.2c-4.6,0-8.2-1.2-10.9-3.6 c-2.6-2.4-3.9-5.8-3.9-10.1c0-1.4,0.1-2.8,0.4-4.2c0.4-2.6,1.3-5,2.5-7.1c1.2-2.1,2.8-4,4.6-5.5s3.9-2.7,6.2-3.5 c2.3-0.8,4.7-1.2,7.3-1.2C269.4,3.5,271.6,3.8,273.5,4.6z M262.1,12.5c-0.9,0.5-1.7,1.3-2.4,2.2c-0.7,0.9-1.2,1.9-1.6,3 c-0.4,1.1-0.7,2.2-0.9,3.3c-0.2,1.1-0.3,2.2-0.3,3.2c0,1.9,0.4,3.5,1.2,4.7c0.8,1.2,2.1,1.8,4,1.8c2.3,0,4.1-0.9,5.4-2.6 c1.4-1.7,2.3-4.1,2.8-7c0.2-0.9,0.3-1.8,0.3-2.7c0-1.9-0.4-3.5-1.3-4.7c-0.9-1.2-2.2-1.8-4.1-1.8C264.1,11.7,263.1,11.9,262.1,12.5 z"></path> <path d="M283.7,37.9l5.9-33.5h11l-5.9,33.5H283.7z"></path> <path d="M301.8,37.9l5.9-33.5h11L314.2,30h15.1l-1.4,7.8H301.8z"></path> </g> <g> <path class="st0" d="M72.9,5c4.8,1.9,8.8,4.4,11.8,7.6c3.1,3.2,5.4,7,6.9,11.3c1.5,4.3,2.3,8.8,2.3,13.7c0,2.9-0.3,5.9-0.8,9 c-1.3,7-3.5,13.4-6.8,19.1c-3.2,5.7-7.2,10.5-12,14.4S64.3,87,58.5,89c-5.8,2-11.9,3-18.2,3c-11.8,0-21-3-27.7-9.1 c-6.7-6.1-10-14.6-10-25.7c0-3.5,0.4-7.1,1.1-10.8c1.1-6.6,3.2-12.7,6.3-18.1c3.1-5.4,7-10.1,11.7-14c4.7-3.9,9.9-6.9,15.8-8.9 c5.8-2.1,12-3.1,18.6-3.1C62.5,2.2,68.1,3.1,72.9,5z M44,25.1c-2.4,1.4-4.4,3.2-6.1,5.5c-1.7,2.3-3,4.8-4,7.5 c-1,2.7-1.8,5.5-2.4,8.5c-0.5,2.8-0.7,5.5-0.7,8.1c0,4.9,1,8.9,3,11.9c2,3,5.4,4.6,10.1,4.6c5.8,0,10.4-2.2,13.9-6.6 c3.5-4.4,5.9-10.4,7.2-17.9c0.5-2.4,0.7-4.7,0.7-7c0-4.9-1.1-8.9-3.3-12c-2.2-3.1-5.6-4.6-10.4-4.6C49.2,23,46.4,23.7,44,25.1z"></path> <path class="st0" d="M153.4,29.2c0-2.7-1-4.6-3-5.8c-1.7-1-4.1-1.5-7-1.5c-5.9,0-9.2,1.6-9.7,4.9c0,0.2,0,0.3,0,0.4l-0.1,0.5 c0,2,1.2,3.5,3.6,4.6c2.4,1.1,6.3,2.3,11.5,3.6c4.4,1.2,8,2.2,10.8,3.1c2.8,0.9,5.5,2.2,8.2,3.8c2.7,1.6,4.9,3.7,6.5,6.3 c1.7,2.6,2.5,5.6,2.5,9.2c0,1.4-0.2,2.9-0.5,4.5c-1.7,9.6-6.6,16.9-14.7,21.9c-8.1,5-18.2,7.5-30.3,7.5c-5.1,0-9.8-0.7-13.9-2 c-4.1-1.3-7.6-3.1-10.4-5.4c-2.8-2.3-5-5-6.5-8c-1.5-3-2.3-6.3-2.3-9.9c0-1,0.1-2.1,0.2-3.3h26.8c0.1,3,1.2,5.3,3.4,6.8 c2,1.4,4.5,2.1,7.6,2.1c3.6,0,6.5-0.6,8.8-1.7c2.3-1.1,3.6-2.6,3.9-4.6c0-0.2,0-0.3,0.1-0.5v-0.4c0-2-1.2-3.5-3.6-4.5 c-2.4-1-6.1-2.2-11.3-3.6c-4.4-1.1-8.1-2.1-10.9-3c-2.8-0.9-5.6-2.2-8.4-3.8c-2.7-1.7-4.9-3.8-6.6-6.4s-2.5-5.8-2.5-9.6 c0-1.5,0.2-3.1,0.5-4.9c1.5-8.8,6.1-15.5,13.7-20.2c7.6-4.7,17-7,28-7c5.6,0,10.4,0.7,14.5,2c4.1,1.3,7.4,3.2,9.9,5.6 c2.5,2.4,4.4,5.3,5.6,8.5c1.2,3.3,1.8,6.9,1.8,11H153.4z"></path> </g> <g> <path d="M215.7,58.2l-5.9,28.4h16.9l-0.8,3.6h-21.2l6.7-32H215.7z"></path> <path d="M240.6,58.2l-6.7,32h-4.3l6.7-32H240.6z"></path> <path d="M261.5,89.9c-1.7,0.6-3.4,0.9-5.1,0.9c-4.4,0-7.8-1.2-10.1-3.6s-3.6-5.9-3.6-10.3c0-2.6,0.4-5.1,1.2-7.4 c0.8-2.3,2-4.4,3.5-6.2s3.4-3.2,5.5-4.3c2.2-1.1,4.6-1.6,7.3-1.6c1.8,0,3.4,0.2,5,0.6c1.6,0.4,2.9,1.1,4.1,1.9s2.1,2,2.8,3.3 c0.7,1.3,1,2.9,1,4.8h-4.3c0-1.2-0.2-2.3-0.7-3.2c-0.5-0.9-1.1-1.6-1.9-2.2c-0.8-0.6-1.7-1-2.7-1.3c-1-0.3-2.1-0.4-3.3-0.4 c-2.2,0-4.2,0.5-5.8,1.4c-1.7,0.9-3,2.2-4.1,3.6c-1.1,1.5-1.9,3.2-2.5,5.1c-0.6,1.9-0.8,3.8-0.8,5.8c0,1.6,0.2,3,0.6,4.3 c0.4,1.3,1,2.4,1.7,3.3c0.8,0.9,1.8,1.6,2.9,2.1c1.2,0.5,2.6,0.8,4.2,0.8c1.7,0,3.2-0.3,4.5-0.8c1.3-0.5,2.4-1.2,3.3-2.1 c0.9-0.9,1.7-2,2.3-3.3c0.6-1.3,1.1-2.7,1.5-4.3h-10.2l0.7-3.6h13.9l-3.5,16.8h-2.7l-0.3-3.2C264.6,88.3,263.1,89.3,261.5,89.9z"></path> <path d="M286.2,58.2l-2.9,13.7h16.7l2.9-13.7h4.3l-6.7,32h-4.3l3.1-14.6h-16.7l-3.1,14.6h-4.3l6.7-32H286.2z"></path> <path d="M324.9,61.8l-6,28.4h-4.3l6-28.4h-10.7l0.8-3.6h25.8l-0.8,3.6H324.9z"></path> <path d="M370.3,90.1l-2-27.6h-0.1l-12.6,27.6H351l-2-32h4.2l1.1,26.9h0.1l12.3-26.9h4.8l1.8,27h0.1l11.6-27h4.4l-14.7,32H370.3z"></path> <path d="M398.1,58.2l-6.7,32h-4.3l6.7-32H398.1z"></path> <path d="M410.1,58.2l11.4,26.5h0.1l5.3-26.5h4.1l-6.8,32h-4.6l-11.3-26.3h-0.1l-5.4,26.3h-4.1l6.8-32H410.1z"></path> <path d="M449,58.2c4,0,7,1.1,9,3.3c2,2.2,3.1,5.2,3.1,9c0,3-0.4,5.7-1.3,8.2c-0.9,2.4-2.1,4.5-3.6,6.2c-1.6,1.7-3.4,3-5.6,4 c-2.2,0.9-4.6,1.4-7.3,1.4h-12.3l6.8-32H449z M443.4,86.6c2.3,0,4.2-0.5,5.9-1.4c1.7-0.9,3.1-2.1,4.2-3.6c1.1-1.5,2-3.2,2.5-5 c0.6-1.9,0.8-3.8,0.8-5.7c0-1.2-0.1-2.3-0.4-3.4c-0.3-1.1-0.7-2.1-1.4-2.9c-0.7-0.8-1.6-1.5-2.7-2c-1.1-0.5-2.6-0.8-4.4-0.8h-6.8 L436,86.6H443.4z"></path> <path d="M497.5,64.5c-0.3-0.9-0.8-1.5-1.5-2.1c-0.6-0.5-1.4-0.9-2.4-1.1c-0.9-0.2-1.9-0.3-3-0.3c-0.8,0-1.6,0.1-2.5,0.3 c-0.9,0.2-1.7,0.5-2.4,0.9c-0.7,0.4-1.3,1-1.8,1.6c-0.5,0.7-0.7,1.5-0.7,2.4c0,0.8,0.1,1.4,0.4,2c0.3,0.6,0.6,1,1.1,1.4 c0.5,0.4,1,0.7,1.7,1c0.6,0.3,1.3,0.5,2,0.7l4.3,1.2c1,0.3,1.9,0.6,2.9,1c0.9,0.4,1.7,0.9,2.5,1.6c0.7,0.6,1.3,1.5,1.7,2.4 s0.6,2.2,0.6,3.6c0,1.7-0.4,3.1-1.1,4.3c-0.8,1.2-1.7,2.2-2.9,3c-1.2,0.8-2.5,1.4-4,1.8c-1.5,0.4-2.9,0.6-4.4,0.6 c-1.9,0-3.7-0.2-5.3-0.6c-1.6-0.4-3-1.1-4.1-2s-2-2.1-2.6-3.5c-0.6-1.4-0.8-3.1-0.6-5.1h4.3c-0.1,1.4,0.1,2.6,0.5,3.6 c0.4,1,1,1.8,1.7,2.4c0.8,0.6,1.7,1,2.8,1.3s2.3,0.4,3.5,0.4c1,0,2-0.1,2.9-0.4s1.8-0.6,2.6-1.1c0.7-0.5,1.3-1.1,1.8-1.9 c0.5-0.8,0.7-1.7,0.7-2.8c0-0.8-0.1-1.5-0.4-2.1c-0.3-0.6-0.7-1.1-1.2-1.5c-0.5-0.4-1.1-0.7-1.8-1s-1.4-0.5-2.2-0.7l-4.3-1.2 c-1-0.3-1.9-0.6-2.7-1.1c-0.9-0.4-1.6-1-2.3-1.6c-0.7-0.6-1.2-1.4-1.6-2.3c-0.4-0.9-0.6-1.9-0.6-3.1c0-1.6,0.3-2.9,1-4.1 s1.6-2.1,2.7-2.9c1.1-0.8,2.3-1.4,3.7-1.7c1.4-0.4,2.8-0.6,4.2-0.6c1.6,0,3.1,0.2,4.5,0.6c1.4,0.4,2.7,1,3.7,1.8 c1.1,0.8,1.9,1.9,2.5,3.2c0.6,1.3,0.9,2.8,0.8,4.6H498C498,66.4,497.8,65.3,497.5,64.5z"></path> <path d="M532.9,58.2l-0.7,3.6h-17.8l-2.1,10.2h16.6l-0.7,3.6h-16.6l-2.3,11.1h18l-0.8,3.6h-22.3l6.8-32H532.9z"></path> <path d="M550.5,58.2c1.3,0,2.6,0.1,3.9,0.4c1.3,0.3,2.4,0.7,3.4,1.3s1.8,1.5,2.4,2.5s0.9,2.4,0.9,3.9c0,1.1-0.2,2.1-0.5,3.1 c-0.4,1-0.9,1.8-1.5,2.6s-1.4,1.4-2.3,1.9c-0.9,0.5-1.9,0.8-2.9,1V75c0.7,0.2,1.3,0.5,1.7,1c0.5,0.4,0.8,1,1.1,1.6 c0.3,0.6,0.4,1.3,0.5,2c0.1,0.7,0.1,1.5,0,2.3c-0.1,0.7-0.1,1.4-0.3,2.1c-0.1,0.7-0.2,1.4-0.3,2.1c-0.1,0.7-0.1,1.4,0,2 c0.1,0.7,0.3,1.3,0.6,1.9h-4.4c-0.2-0.6-0.3-1.5-0.4-2.6c0-1.2,0.1-2.6,0.4-4.2c0.2-1.4,0.3-2.6,0.2-3.5c-0.1-0.9-0.3-1.6-0.6-2 c-0.3-0.5-0.7-0.8-1.2-1c-0.5-0.2-1-0.3-1.4-0.3H548h-9.4l-2.9,13.7h-4.3l6.8-32H550.5z M548.9,72.9c1.7,0,3-0.2,4.1-0.7 c1-0.4,1.8-1,2.4-1.6c0.6-0.6,0.9-1.3,1.1-2.1s0.3-1.4,0.3-1.9c0-1-0.2-1.8-0.5-2.4s-0.8-1.1-1.4-1.5c-0.6-0.4-1.2-0.6-2-0.7 c-0.7-0.1-1.5-0.2-2.3-0.2h-8.8l-2.4,11.1H548.9z"></path> <path d="M573.1,58.2l-6.7,32h-4.3l6.7-32H573.1z"></path> <path d="M602.5,58.2l-0.7,3.6H584l-2.1,10.2h16.6l-0.7,3.6h-16.6l-2.3,11.1h18l-0.8,3.6h-22.3l6.8-32H602.5z"></path> <path d="M623.5,64.5c-0.3-0.9-0.8-1.5-1.5-2.1c-0.6-0.5-1.4-0.9-2.4-1.1c-0.9-0.2-1.9-0.3-3-0.3c-0.8,0-1.6,0.1-2.5,0.3 c-0.9,0.2-1.7,0.5-2.4,0.9c-0.7,0.4-1.3,1-1.8,1.6c-0.5,0.7-0.7,1.5-0.7,2.4c0,0.8,0.1,1.4,0.4,2c0.3,0.6,0.6,1,1.1,1.4 c0.5,0.4,1,0.7,1.7,1c0.6,0.3,1.3,0.5,2,0.7l4.3,1.2c1,0.3,1.9,0.6,2.9,1c0.9,0.4,1.7,0.9,2.5,1.6c0.7,0.6,1.3,1.5,1.7,2.4 s0.6,2.2,0.6,3.6c0,1.7-0.4,3.1-1.1,4.3c-0.8,1.2-1.7,2.2-2.9,3c-1.2,0.8-2.5,1.4-4,1.8c-1.5,0.4-2.9,0.6-4.4,0.6 c-1.9,0-3.7-0.2-5.3-0.6c-1.6-0.4-3-1.1-4.1-2s-2-2.1-2.6-3.5c-0.6-1.4-0.8-3.1-0.6-5.1h4.3c-0.1,1.4,0.1,2.6,0.5,3.6 c0.4,1,1,1.8,1.7,2.4c0.8,0.6,1.7,1,2.8,1.3s2.3,0.4,3.5,0.4c1,0,2-0.1,2.9-0.4s1.8-0.6,2.6-1.1c0.7-0.5,1.3-1.1,1.8-1.9 c0.5-0.8,0.7-1.7,0.7-2.8c0-0.8-0.1-1.5-0.4-2.1c-0.3-0.6-0.7-1.1-1.2-1.5c-0.5-0.4-1.1-0.7-1.8-1s-1.4-0.5-2.2-0.7l-4.3-1.2 c-1-0.3-1.9-0.6-2.7-1.1c-0.9-0.4-1.6-1-2.3-1.6c-0.7-0.6-1.2-1.4-1.6-2.3c-0.4-0.9-0.6-1.9-0.6-3.1c0-1.6,0.3-2.9,1-4.1 s1.6-2.1,2.7-2.9c1.1-0.8,2.3-1.4,3.7-1.7c1.4-0.4,2.8-0.6,4.2-0.6c1.6,0,3.1,0.2,4.5,0.6c1.4,0.4,2.7,1,3.7,1.8 c1.1,0.8,1.9,1.9,2.5,3.2c0.6,1.3,0.9,2.8,0.8,4.6H624C624,66.4,623.8,65.3,623.5,64.5z"></path> </g> </svg> 