<?xml version="1.0" encoding="UTF-8"?> <svg xmlns="http://www.w3.org/2000/svg" id="Layer_1" data-name="Layer 1" viewBox="0 0 593.67 94.17"><defs><style>.cls-1{fill:none;stroke:#000;stroke-miterlimit:6.57;stroke-width:4.22px;}</style></defs><path d="M242.73,58.12,242,61.71H225.14L223,71.9h14.81L237,75.49h-14.8l-3.06,14.67H215l6.69-32Z"></path><path d="M259.83,58.12a20.59,20.59,0,0,1,3.92.38,9.9,9.9,0,0,1,3.39,1.32,7,7,0,0,1,2.36,2.52,8,8,0,0,1,.87,4,8.9,8.9,0,0,1-.54,3.07A9.26,9.26,0,0,1,268.35,72a8.05,8.05,0,0,1-2.26,1.93,8.34,8.34,0,0,1-2.94,1V75a4.19,4.19,0,0,1,1.73,1A4.61,4.61,0,0,1,266,77.57a7.25,7.25,0,0,1,.5,2,11.44,11.44,0,0,1,0,2.34q-.09,1.08-.27,2.13c-.12.7-.2,1.41-.26,2.11a9.55,9.55,0,0,0,0,2,5,5,0,0,0,.58,1.93H262a9.11,9.11,0,0,1-.36-2.65,20,20,0,0,1,.45-4.22,13.45,13.45,0,0,0,.2-3.47,4.59,4.59,0,0,0-.65-2,2.6,2.6,0,0,0-1.22-1,4.71,4.71,0,0,0-1.43-.32H247.84L245,90.16h-4.26l6.78-32Zm-1.62,14.76a10.23,10.23,0,0,0,4.06-.67,6.59,6.59,0,0,0,2.4-1.64,5.12,5.12,0,0,0,1.15-2.06,7.92,7.92,0,0,0,.29-2,4.89,4.89,0,0,0-.54-2.43,4.16,4.16,0,0,0-1.41-1.48,5.68,5.68,0,0,0-2-.74,14,14,0,0,0-2.33-.2H251l-2.38,11.17Z"></path><path d="M300.31,58.12l-.72,3.59H281.77L279.62,71.9h16.6l-.72,3.59H278.86l-2.34,11.08h18l-.81,3.59h-22.3l6.78-32Z"></path><path d="M327.73,58.12,327,61.71H309.19L307,71.9h16.6l-.72,3.59h-16.6l-2.34,11.08h18l-.81,3.59h-22.3l6.78-32Z"></path><path d="M345.41,58.12a20.59,20.59,0,0,1,3.92.38,9.7,9.7,0,0,1,3.39,1.32,7,7,0,0,1,2.36,2.52,8,8,0,0,1,.87,4,8.9,8.9,0,0,1-.54,3.07A9.26,9.26,0,0,1,353.93,72a8.05,8.05,0,0,1-2.26,1.93,8.14,8.14,0,0,1-2.94,1V75a4.19,4.19,0,0,1,1.73,1,4.65,4.65,0,0,1,1.07,1.59,7.25,7.25,0,0,1,.5,2A12.13,12.13,0,0,1,352,82c-.06.72-.15,1.43-.26,2.13s-.21,1.41-.27,2.11a11.13,11.13,0,0,0,0,2,5,5,0,0,0,.58,1.93h-4.44a9.11,9.11,0,0,1-.36-2.65,20,20,0,0,1,.45-4.22,13,13,0,0,0,.2-3.47,4.59,4.59,0,0,0-.65-2,2.6,2.6,0,0,0-1.22-1,4.71,4.71,0,0,0-1.43-.32H333.43L330.55,90.2h-4.26l6.78-32Zm-1.62,14.76a10.23,10.23,0,0,0,4.06-.67,6.59,6.59,0,0,0,2.4-1.64,5.12,5.12,0,0,0,1.15-2.06,7.92,7.92,0,0,0,.29-2,4.89,4.89,0,0,0-.54-2.43,4.16,4.16,0,0,0-1.41-1.48,5.68,5.68,0,0,0-2-.74,14,14,0,0,0-2.33-.2h-8.84l-2.38,11.17Z"></path><path d="M368,58.12l-6.74,32H357l6.73-32Z"></path><path d="M386.65,58.12q6,0,9,3.27t3.08,9a24.27,24.27,0,0,1-1.31,8.19,18.3,18.3,0,0,1-3.63,6.24,15.85,15.85,0,0,1-5.61,4A18.39,18.39,0,0,1,381,90.16H368.7l6.78-32ZM381,86.57A12.3,12.3,0,0,0,387,85.2a12.92,12.92,0,0,0,4.22-3.59,15.38,15.38,0,0,0,2.51-5,20.28,20.28,0,0,0,.83-5.74,15.63,15.63,0,0,0-.38-3.41,7.27,7.27,0,0,0-1.37-2.92,6.88,6.88,0,0,0-2.71-2,10.91,10.91,0,0,0-4.38-.76h-6.82L373.6,86.64Z"></path><path d="M429.1,58.12l-.72,3.59H410.57L408.41,71.9H425l-.72,3.59H407.65l-2.33,11.08h18l-.81,3.59h-22.3l6.77-32Z"></path><path d="M462.65,64.42a5.07,5.07,0,0,0-1.48-2.06,5.75,5.75,0,0,0-2.36-1.1,13.56,13.56,0,0,0-3.05-.31,10.83,10.83,0,0,0-2.47.29,8.34,8.34,0,0,0-2.4.92,5.84,5.84,0,0,0-1.82,1.61,4,4,0,0,0-.72,2.43,4.32,4.32,0,0,0,1.51,3.44,6.12,6.12,0,0,0,1.66,1,17.65,17.65,0,0,0,2,.72l4.31,1.16a22.14,22.14,0,0,1,2.87,1,9.41,9.41,0,0,1,2.47,1.57,7.19,7.19,0,0,1,1.73,2.45,9.27,9.27,0,0,1,.65,3.64,8,8,0,0,1-1.15,4.33,9.78,9.78,0,0,1-2.94,3,13.31,13.31,0,0,1-4,1.78,17.5,17.5,0,0,1-4.38.58,20.55,20.55,0,0,1-5.29-.65,11.16,11.16,0,0,1-4.11-2,8.5,8.5,0,0,1-2.56-3.48,11.17,11.17,0,0,1-.65-5.09h4.26a8.79,8.79,0,0,0,.5,3.63A5.46,5.46,0,0,0,447,85.67,7,7,0,0,0,449.75,87a15.06,15.06,0,0,0,3.54.38,12.14,12.14,0,0,0,2.94-.36,7.86,7.86,0,0,0,2.58-1.1,5.9,5.9,0,0,0,1.82-1.9,5.32,5.32,0,0,0,.69-2.78,4.45,4.45,0,0,0-.45-2.09,4.19,4.19,0,0,0-1.23-1.48,7,7,0,0,0-1.82-1,20.94,20.94,0,0,0-2.2-.72l-4.35-1.17a15.77,15.77,0,0,1-2.74-1,8.68,8.68,0,0,1-2.28-1.62,7.11,7.11,0,0,1-1.58-2.29,7.51,7.51,0,0,1-.58-3.11,7.93,7.93,0,0,1,1-4.07,9.57,9.57,0,0,1,2.67-2.89,12,12,0,0,1,3.73-1.75,15.6,15.6,0,0,1,4.24-.58,16.39,16.39,0,0,1,4.51.6A11.39,11.39,0,0,1,464,59.8a8.55,8.55,0,0,1,2.55,3.2,9.81,9.81,0,0,1,.83,4.63h-4.26A8.16,8.16,0,0,0,462.65,64.42Z"></path><path d="M498.08,58.12l-.72,3.59H479.54L477.39,71.9H494l-.71,3.59H476.63l-2.34,11.08h18l-.8,3.59H469.22l6.78-32Z"></path><path d="M515.76,58.12a20.69,20.69,0,0,1,3.93.38,9.77,9.77,0,0,1,3.38,1.32,6.88,6.88,0,0,1,2.36,2.52,7.92,7.92,0,0,1,.88,4,8.9,8.9,0,0,1-.54,3.07A9.26,9.26,0,0,1,524.29,72,8.46,8.46,0,0,1,522,73.92a8.14,8.14,0,0,1-2.94,1V75a4.19,4.19,0,0,1,1.73,1,4.82,4.82,0,0,1,1.08,1.59,7.6,7.6,0,0,1,.49,2,11.44,11.44,0,0,1,0,2.34q-.09,1.08-.27,2.13c-.12.7-.21,1.41-.27,2.11a11.13,11.13,0,0,0,0,2,5,5,0,0,0,.58,1.93H518a9.11,9.11,0,0,1-.36-2.65,20,20,0,0,1,.45-4.22,12.62,12.62,0,0,0,.2-3.47,4.59,4.59,0,0,0-.65-2,2.58,2.58,0,0,0-1.21-1,4.77,4.77,0,0,0-1.44-.32H503.78l-2.87,13.69h-4.27l6.78-32Zm-1.62,14.76a10.46,10.46,0,0,0,4.07-.67,6.59,6.59,0,0,0,2.4-1.64,5,5,0,0,0,1.14-2.06,7.5,7.5,0,0,0,.29-2,4.89,4.89,0,0,0-.54-2.43,3.93,3.93,0,0,0-1.41-1.48,5.68,5.68,0,0,0-2-.74,14,14,0,0,0-2.33-.2h-8.84l-2.38,11.17Z"></path><path d="M538.38,58.12l-6.73,32h-4.27l6.73-32Z"></path><path d="M567.86,58.12l-.72,3.59H549.33L547.17,71.9h16.61l-.72,3.59H546.41l-2.33,11.08h18l-.81,3.59H539l6.77-32Z"></path><path d="M588.93,64.42a5.07,5.07,0,0,0-1.48-2.06,5.75,5.75,0,0,0-2.36-1.1A13.93,13.93,0,0,0,582,61a10.83,10.83,0,0,0-2.47.29,8.34,8.34,0,0,0-2.4.92,5.7,5.7,0,0,0-1.81,1.61,4,4,0,0,0-.72,2.43,4.29,4.29,0,0,0,1.5,3.43,6.38,6.38,0,0,0,1.66,1c.65.27,1.32.51,2,.72l4.31,1.16a20.74,20.74,0,0,1,2.87,1,9.41,9.41,0,0,1,2.47,1.57,6.92,6.92,0,0,1,1.73,2.45,9.27,9.27,0,0,1,.65,3.64,8.05,8.05,0,0,1-1.14,4.33,10,10,0,0,1-2.94,3,13.42,13.42,0,0,1-4,1.78,17.5,17.5,0,0,1-4.38.58,20.55,20.55,0,0,1-5.29-.65,11.32,11.32,0,0,1-4.11-2,8.48,8.48,0,0,1-2.55-3.48,11,11,0,0,1-.66-5.09H571a9,9,0,0,0,.49,3.63,5.48,5.48,0,0,0,1.73,2.38A6.88,6.88,0,0,0,576,87a15.06,15.06,0,0,0,3.54.38,12.14,12.14,0,0,0,2.94-.36,7.86,7.86,0,0,0,2.58-1.1,5.61,5.61,0,0,0,1.82-1.9,5.42,5.42,0,0,0,.7-2.78,4.45,4.45,0,0,0-.45-2.09,4.33,4.33,0,0,0-1.24-1.48,7,7,0,0,0-1.81-1,20.94,20.94,0,0,0-2.2-.72l-4.36-1.17a15.66,15.66,0,0,1-2.73-1,8.57,8.57,0,0,1-2.29-1.62,7,7,0,0,1-1.5-2.4,7.69,7.69,0,0,1-.59-3.11,7.83,7.83,0,0,1,1-4.07,9.22,9.22,0,0,1,2.67-2.89,11.75,11.75,0,0,1,3.72-1.75,15.6,15.6,0,0,1,4.24-.58,16.39,16.39,0,0,1,4.51.6,11.5,11.5,0,0,1,3.75,1.84,8.63,8.63,0,0,1,2.54,3.2,10,10,0,0,1,.83,4.63H589.4A7.81,7.81,0,0,0,588.93,64.42Z"></path><path class="cls-1" d="M8.16,89.54l15-84.89H64.05q15.8,0,23.76,6t8,16.8a31.36,31.36,0,0,1-.59,5.89q-2.48,14.16-12.56,22T54.74,63.13h-14L36,89.54ZM55.68,43.33A14.86,14.86,0,0,0,64.29,41c2.27-1.57,3.73-4.09,4.36-7.55a3.38,3.38,0,0,1,.12-.82v-.83a5.6,5.6,0,0,0-1.24-3.71,7.83,7.83,0,0,0-3.24-2.24,18.53,18.53,0,0,0-4.19-1.06,35.3,35.3,0,0,0-4.78-.3h-7.9l-3.3,18.87Z"></path><path class="cls-1" d="M149.65,29.3a6.22,6.22,0,0,0-3-5.78,13.65,13.65,0,0,0-7-1.53q-8.84,0-9.67,4.83v.35l-.11.48c0,2,1.19,3.47,3.59,4.53a78.34,78.34,0,0,0,11.5,3.6q6.6,1.77,10.79,3.12A39.66,39.66,0,0,1,164,42.68a19.8,19.8,0,0,1,6.49,6.25A16.45,16.45,0,0,1,173,58.06a23.15,23.15,0,0,1-.47,4.48A30.45,30.45,0,0,1,157.9,84.36q-12.15,7.42-30.18,7.43a45.46,45.46,0,0,1-13.8-2,31.38,31.38,0,0,1-10.37-5.37,23.49,23.49,0,0,1-6.49-8,22,22,0,0,1-2.24-9.85,24.65,24.65,0,0,1,.24-3.3H121.7a7.85,7.85,0,0,0,3.42,6.72,12.58,12.58,0,0,0,7.55,2.12,20.06,20.06,0,0,0,8.72-1.65q3.42-1.65,3.89-4.6a1.06,1.06,0,0,1,.12-.47v-.35q0-3-3.54-4.48a84.78,84.78,0,0,0-11.2-3.54q-6.6-1.65-10.84-3a38.57,38.57,0,0,1-8.32-3.83A19.9,19.9,0,0,1,105,43.92a17.47,17.47,0,0,1-2.48-9.55,26.68,26.68,0,0,1,.48-4.84,28.25,28.25,0,0,1,13.61-20.1q11.39-7,27.89-7a47.46,47.46,0,0,1,14.44,2,25.17,25.17,0,0,1,9.85,5.54,21.93,21.93,0,0,1,5.54,8.49,31.89,31.89,0,0,1,1.77,10.91Z"></path><path d="M217.26,36.72,223,4.41h15.58q6,0,9,2.26a7.54,7.54,0,0,1,3,6.4,11.72,11.72,0,0,1-.22,2.24,13,13,0,0,1-4.78,8.37q-3.84,3-10.62,3h-5.34l-1.79,10Zm18.09-17.59a5.64,5.64,0,0,0,3.28-.9,4.2,4.2,0,0,0,1.66-2.87,1.33,1.33,0,0,1,0-.32v-.31a2.07,2.07,0,0,0-.47-1.41,2.91,2.91,0,0,0-1.23-.86,7.08,7.08,0,0,0-1.6-.4,14.31,14.31,0,0,0-1.81-.11h-3L231,19.13Z"></path><path d="M262.42,25.46l-2,11.26H249.85l5.7-32.31h15.26q7,0,9.94,1.66a5.62,5.62,0,0,1,3,5.29,13,13,0,0,1-.23,2.25,11,11,0,0,1-2.26,5,8.72,8.72,0,0,1-4.56,2.87A9.84,9.84,0,0,1,280,23.39a4.82,4.82,0,0,1,1,3.46,17.62,17.62,0,0,1-.36,3.23c-.06.42-.12.79-.18,1.12a28.55,28.55,0,0,0-.49,3.46c0,.72.27,1.08.8,1.08l-.18,1H269.87v-.31a5,5,0,0,1-.05-.58,30.38,30.38,0,0,1,.5-4.76,14.38,14.38,0,0,0,.31-2.52,2.65,2.65,0,0,0-1.08-2.4,7.79,7.79,0,0,0-3.9-.69Zm1.25-7.09h4.18a8.59,8.59,0,0,0,3.92-.72,3,3,0,0,0,1.64-2.34,1.82,1.82,0,0,1,0-.35,2.72,2.72,0,0,0,0-.32,2.25,2.25,0,0,0-1-2,4.9,4.9,0,0,0-2.76-.67H264.8Z"></path><path d="M312.91,4.61A12.09,12.09,0,0,1,317.4,7.5a11.78,11.78,0,0,1,2.6,4.27,15.5,15.5,0,0,1,.86,5.2,19.36,19.36,0,0,1-.32,3.42A22.45,22.45,0,0,1,318,27.61a19.52,19.52,0,0,1-4.53,5.46,19.24,19.24,0,0,1-6,3.36,21,21,0,0,1-6.89,1.15q-6.69,0-10.48-3.46t-3.8-9.74a21.54,21.54,0,0,1,.41-4.08,20.46,20.46,0,0,1,2.4-6.87,19.52,19.52,0,0,1,4.42-5.32,19.06,19.06,0,0,1,6-3.39,21.07,21.07,0,0,1,7.05-1.17A17.71,17.71,0,0,1,312.91,4.61ZM302,12.24a7.31,7.31,0,0,0-2.31,2.09,11.81,11.81,0,0,0-1.53,2.85,19,19,0,0,0-.89,3.21,18.44,18.44,0,0,0-.27,3.05A8.06,8.06,0,0,0,298.12,28,4.26,4.26,0,0,0,302,29.68a6.35,6.35,0,0,0,5.25-2.52A15.07,15.07,0,0,0,310,20.39a13.47,13.47,0,0,0,.27-2.65A7.66,7.66,0,0,0,309,13.2a4.48,4.48,0,0,0-3.92-1.75A6.11,6.11,0,0,0,302,12.24Z"></path><path d="M353.8,36.81H347l.13-3.18a14.4,14.4,0,0,1-4.35,2.85,15.36,15.36,0,0,1-6.06,1.1,16.42,16.42,0,0,1-5.16-.79,11.77,11.77,0,0,1-4.18-2.38,10.74,10.74,0,0,1-2.78-4,14.47,14.47,0,0,1-1-5.55A22.81,22.81,0,0,1,324,21a23.34,23.34,0,0,1,2.4-7.07,19.73,19.73,0,0,1,4.36-5.52,19.18,19.18,0,0,1,6-3.57,20.42,20.42,0,0,1,7.23-1.26q6,0,9.6,3.08t3.59,8.91H347.07c-.3-2.72-1.87-4.09-4.72-4.09a6.16,6.16,0,0,0-5,2.54,15.21,15.21,0,0,0-2.77,6.93,19,19,0,0,0-.26,2.92,6.59,6.59,0,0,0,1.27,4.27,5.21,5.21,0,0,0,4.25,1.57,7.06,7.06,0,0,0,3.54-1.06A5.57,5.57,0,0,0,345.86,26h-4.67l1.25-7h14.5Z"></path><path d="M372.11,25.46l-2,11.26H359.55l5.7-32.31h15.26c4.63,0,7.95.55,9.94,1.66a5.61,5.61,0,0,1,3,5.29,12.9,12.9,0,0,1-.22,2.25,11,11,0,0,1-2.27,5,8.66,8.66,0,0,1-4.55,2.87,9.94,9.94,0,0,1,3.32,1.88,4.82,4.82,0,0,1,1,3.46,17.62,17.62,0,0,1-.36,3.23c-.06.42-.12.79-.18,1.12a29.51,29.51,0,0,0-.5,3.46q0,1.08.81,1.08l-.18,1H379.56v-.31a4.68,4.68,0,0,1,0-.58,30.17,30.17,0,0,1,.49-4.76,13.63,13.63,0,0,0,.32-2.52,2.65,2.65,0,0,0-1.08-2.4,7.81,7.81,0,0,0-3.91-.69Zm1.26-7.09h4.17a8.6,8.6,0,0,0,3.93-.72,3.06,3.06,0,0,0,1.64-2.34,1.7,1.7,0,0,1,0-.35c0-.18.05-.29.05-.32a2.27,2.27,0,0,0-1-2,4.9,4.9,0,0,0-2.76-.67h-4.94Z"></path><path d="M395.14,36.72l5.7-32.31h26.34L425.84,12H410.08l-.8,4.62h13.33l-1.31,7.54H408l-.89,5.07h16.38l-1.35,7.54Z"></path><path d="M448.15,13.79a2.37,2.37,0,0,0-1.13-2.2,5.14,5.14,0,0,0-2.64-.59c-2.25,0-3.48.62-3.68,1.85V13l-.05.18A1.91,1.91,0,0,0,442,14.89a30.49,30.49,0,0,0,4.38,1.37c1.67.45,3,.84,4.1,1.19a15,15,0,0,1,3.12,1.43,7.6,7.6,0,0,1,2.47,2.38,6.25,6.25,0,0,1,.94,3.48,8.73,8.73,0,0,1-.18,1.71,11.6,11.6,0,0,1-5.56,8.3,21.7,21.7,0,0,1-11.49,2.83,17.38,17.38,0,0,1-5.25-.74,12,12,0,0,1-3.95-2.05,8.82,8.82,0,0,1-2.47-3,8.32,8.32,0,0,1-.86-3.74,9.57,9.57,0,0,1,.09-1.26h10.15a3,3,0,0,0,1.3,2.56,4.8,4.8,0,0,0,2.87.81A7.59,7.59,0,0,0,445,29.5a2.38,2.38,0,0,0,1.49-1.75.39.39,0,0,1,0-.18v-.14a1.86,1.86,0,0,0-1.35-1.7,31.87,31.87,0,0,0-4.26-1.35c-1.68-.42-3.05-.8-4.13-1.14a14.73,14.73,0,0,1-3.16-1.46,7.55,7.55,0,0,1-2.5-2.43,6.69,6.69,0,0,1-.94-3.63,10.3,10.3,0,0,1,.18-1.84,10.75,10.75,0,0,1,5.19-7.65,19.74,19.74,0,0,1,10.61-2.68,18.26,18.26,0,0,1,5.5.74,9.71,9.71,0,0,1,3.75,2.11,8.43,8.43,0,0,1,2.11,3.24,12.08,12.08,0,0,1,.67,4.15Z"></path><path d="M480.55,13.79a2.36,2.36,0,0,0-1.12-2.2,5.18,5.18,0,0,0-2.65-.59c-2.24,0-3.47.62-3.68,1.85V13l0,.18a1.9,1.9,0,0,0,1.36,1.73,31.36,31.36,0,0,0,4.38,1.37c1.68.45,3,.84,4.11,1.19A15,15,0,0,1,486,18.88a7.7,7.7,0,0,1,2.47,2.38,6.33,6.33,0,0,1,.94,3.48,8.73,8.73,0,0,1-.18,1.71,11.61,11.61,0,0,1-5.57,8.3,21.7,21.7,0,0,1-11.49,2.83,17.48,17.48,0,0,1-5.25-.74A12.09,12.09,0,0,1,463,34.79a8.82,8.82,0,0,1-2.47-3,8.31,8.31,0,0,1-.85-3.74,9.57,9.57,0,0,1,.09-1.26h10.14a3,3,0,0,0,1.3,2.56,4.81,4.81,0,0,0,2.88.81,7.65,7.65,0,0,0,3.32-.63,2.36,2.36,0,0,0,1.48-1.75.41.41,0,0,1,.05-.18v-.14a1.86,1.86,0,0,0-1.35-1.7,32.37,32.37,0,0,0-4.26-1.35c-1.68-.42-3.06-.8-4.13-1.14A14.8,14.8,0,0,1,466,21.78a7.61,7.61,0,0,1-2.49-2.43,6.6,6.6,0,0,1-.94-3.63,10.3,10.3,0,0,1,.18-1.84A10.71,10.71,0,0,1,468,6.23a19.8,19.8,0,0,1,10.62-2.68,18.19,18.19,0,0,1,5.49.74,9.64,9.64,0,0,1,3.75,2.11,8.32,8.32,0,0,1,2.11,3.24,12.08,12.08,0,0,1,.68,4.15Z"></path><path d="M492.35,36.72l5.7-32.31h10.6L503,36.72Z"></path><path d="M537.28,4.61a12,12,0,0,1,4.49,2.89,11.8,11.8,0,0,1,2.61,4.27,15.75,15.75,0,0,1,.85,5.2,19.36,19.36,0,0,1-.32,3.42,22.68,22.68,0,0,1-2.55,7.22,19.55,19.55,0,0,1-4.54,5.46,19.13,19.13,0,0,1-6,3.36,21,21,0,0,1-6.89,1.15q-6.69,0-10.48-3.46t-3.79-9.74a21.51,21.51,0,0,1,.4-4.08,20.46,20.46,0,0,1,2.4-6.87,19.52,19.52,0,0,1,4.42-5.32,19.18,19.18,0,0,1,6-3.39,21.11,21.11,0,0,1,7-1.17A17.71,17.71,0,0,1,537.28,4.61Zm-10.93,7.63A7.31,7.31,0,0,0,524,14.33a11.78,11.78,0,0,0-1.52,2.85,19,19,0,0,0-.9,3.21,18.44,18.44,0,0,0-.27,3.05A8.06,8.06,0,0,0,522.49,28a4.28,4.28,0,0,0,3.84,1.73,6.32,6.32,0,0,0,5.25-2.52,15.07,15.07,0,0,0,2.74-6.77,13.47,13.47,0,0,0,.27-2.65,7.73,7.73,0,0,0-1.23-4.54,4.51,4.51,0,0,0-3.93-1.75A6.14,6.14,0,0,0,526.35,12.24Z"></path><path d="M571,22.05l.89-7.36,1.8-10.28h10.14l-5.7,32.31h-9.92l-8.44-17.59-.89,7.36L557,36.72H546.89l5.7-32.31h9.92Z"></path></svg> 