<?xml version="1.0" encoding="UTF-8"?> <svg xmlns="http://www.w3.org/2000/svg" id="Layer_1" data-name="Layer 1" viewBox="0 0 593.67 94.17"><defs><style>.cls-1{fill:none;stroke:#000;stroke-miterlimit:6.57;stroke-width:4.22px;}</style></defs><path class="cls-1" d="M35.74,60,30.52,89.8h-28L17.59,4.37H57.93q18.39,0,26.29,4.39t7.89,14a33.7,33.7,0,0,1-.6,5.93,28.76,28.76,0,0,1-6,13.29,22.83,22.83,0,0,1-12,7.6q6.17,2.37,8.78,5t2.61,9.14a47,47,0,0,1-1,8.54q-.24,1.67-.48,3a76.16,76.16,0,0,0-1.3,9.13q0,2.85,2.13,2.85L83.8,89.8H55.44V89a12.69,12.69,0,0,1-.12-1.54,80.6,80.6,0,0,1,1.31-12.58,36,36,0,0,0,.83-6.64c0-3-1-5.12-2.85-6.35S49.27,60,44.29,60Zm3.32-18.75h11q6.76,0,10.38-1.9a8,8,0,0,0,4.33-6.17,5.07,5.07,0,0,1,.12-1c.08-.47.12-.75.12-.83a6,6,0,0,0-2.67-5.34,13,13,0,0,0-7.3-1.78H42Z"></path><path class="cls-1" d="M151.08,29.17a6.27,6.27,0,0,0-3-5.82,13.78,13.78,0,0,0-7-1.54q-8.9,0-9.73,4.86V27l-.12.48c0,2,1.21,3.5,3.62,4.56a79,79,0,0,0,11.57,3.62q6.65,1.79,10.86,3.15a39.64,39.64,0,0,1,8.25,3.79,19.92,19.92,0,0,1,6.52,6.29,16.54,16.54,0,0,1,2.5,9.2,22.79,22.79,0,0,1-.48,4.51,30.65,30.65,0,0,1-14.71,21.95Q147.17,92.07,129,92.06a45.63,45.63,0,0,1-13.88-2,31.75,31.75,0,0,1-10.45-5.4,23.68,23.68,0,0,1-6.52-8,22,22,0,0,1-2.26-9.91,25.06,25.06,0,0,1,.24-3.32H123a7.88,7.88,0,0,0,3.44,6.76A12.64,12.64,0,0,0,134,72.36a20.16,20.16,0,0,0,8.78-1.66c2.3-1.11,3.6-2.65,3.92-4.63a1,1,0,0,1,.12-.47v-.36q0-3-3.56-4.51A85.43,85.43,0,0,0,132,57.17c-4.43-1.11-8.07-2.11-10.92-3a38.33,38.33,0,0,1-8.37-3.85,20,20,0,0,1-6.58-6.41,17.55,17.55,0,0,1-2.49-9.61,27,27,0,0,1,.47-4.87A28.41,28.41,0,0,1,117.8,9.17q11.45-7,28.06-7.06a47.76,47.76,0,0,1,14.54,2,25.12,25.12,0,0,1,9.9,5.58,22,22,0,0,1,5.58,8.54,32,32,0,0,1,1.78,11Z"></path><path d="M241.47,16.73v-.67a4.54,4.54,0,0,0-1.25-3.41,5,5,0,0,0-3.59-1.21,6.08,6.08,0,0,0-4.83,2.4,14.82,14.82,0,0,0-2.8,7,21.38,21.38,0,0,0-.32,3.37,6.17,6.17,0,0,0,1.17,4c.78,1,2.11,1.46,4,1.46a5.7,5.7,0,0,0,4-1.48,8.85,8.85,0,0,0,2.36-4H250.4A18.06,18.06,0,0,1,243.83,34a18.21,18.21,0,0,1-11.2,3.57q-6.91,0-10.7-3.48t-3.79-9.63a23.1,23.1,0,0,1,.36-3.95,21.61,21.61,0,0,1,2.44-7,19.88,19.88,0,0,1,4.38-5.38,18.65,18.65,0,0,1,12.25-4.58q6.92,0,10.45,3.07t3.55,8.73c0,.12,0,.35,0,.68v.71Z"></path><path d="M264.85,25.44l-2,11.26H252.29L258,4.39h15.26c4.63,0,7.95.56,9.94,1.66a5.62,5.62,0,0,1,3,5.3,12.79,12.79,0,0,1-.22,2.24,11,11,0,0,1-2.27,5,8.59,8.59,0,0,1-4.56,2.87,9.9,9.9,0,0,1,3.33,1.88,4.88,4.88,0,0,1,1,3.46,17.53,17.53,0,0,1-.36,3.23c-.06.42-.12.8-.18,1.12a28.55,28.55,0,0,0-.49,3.46q0,1.08.81,1.08l-.18,1H272.3v-.31a4.68,4.68,0,0,1,0-.58,30.17,30.17,0,0,1,.49-4.76,13.64,13.64,0,0,0,.32-2.51A2.65,2.65,0,0,0,272,26.13a7.81,7.81,0,0,0-3.91-.69Zm1.26-7.09h4.17a8.6,8.6,0,0,0,3.93-.72,3.06,3.06,0,0,0,1.64-2.33,1.86,1.86,0,0,1,0-.36c0-.18.05-.29.05-.32a2.28,2.28,0,0,0-1-2,5,5,0,0,0-2.76-.67h-4.94Z"></path><path d="M315.34,4.59a12.11,12.11,0,0,1,4.49,2.9,12,12,0,0,1,2.6,4.26,15.56,15.56,0,0,1,.85,5.21,19.22,19.22,0,0,1-.31,3.41,22.45,22.45,0,0,1-2.56,7.22,19.13,19.13,0,0,1-10.52,8.82A21,21,0,0,1,303,37.56q-6.69,0-10.48-3.46t-3.79-9.74a21.67,21.67,0,0,1,.4-4.08,20.62,20.62,0,0,1,2.4-6.87A19.83,19.83,0,0,1,296,8.09a19,19,0,0,1,6-3.38A21.07,21.07,0,0,1,309,3.54,17.72,17.72,0,0,1,315.34,4.59Zm-10.93,7.63a7.43,7.43,0,0,0-2.31,2.09,11.81,11.81,0,0,0-1.52,2.85,19,19,0,0,0-.9,3.21,18.53,18.53,0,0,0-.27,3.05,8,8,0,0,0,1.14,4.51,4.28,4.28,0,0,0,3.84,1.73,6.35,6.35,0,0,0,5.25-2.52,15.07,15.07,0,0,0,2.74-6.77,13.47,13.47,0,0,0,.27-2.65,7.63,7.63,0,0,0-1.24-4.53,4.45,4.45,0,0,0-3.92-1.75A6.13,6.13,0,0,0,304.41,12.22Z"></path><path d="M345.86,13.77a2.38,2.38,0,0,0-1.12-2.2,5.21,5.21,0,0,0-2.65-.58c-2.25,0-3.47.61-3.68,1.84V13l-.05.18a1.9,1.9,0,0,0,1.37,1.73,29.25,29.25,0,0,0,4.38,1.37c1.67.45,3,.85,4.1,1.19a14.35,14.35,0,0,1,3.12,1.44,7.47,7.47,0,0,1,2.47,2.37,6.27,6.27,0,0,1,.94,3.48,8.73,8.73,0,0,1-.18,1.71,11.57,11.57,0,0,1-5.56,8.3,21.7,21.7,0,0,1-11.49,2.83,17.38,17.38,0,0,1-5.25-.74,12.09,12.09,0,0,1-3.95-2,8.88,8.88,0,0,1-2.47-3A8.38,8.38,0,0,1,325,28a9.57,9.57,0,0,1,.09-1.26h10.14a3,3,0,0,0,1.3,2.56,4.8,4.8,0,0,0,2.87.81,7.67,7.67,0,0,0,3.33-.63,2.39,2.39,0,0,0,1.48-1.75.39.39,0,0,1,0-.18v-.14a1.86,1.86,0,0,0-1.34-1.7,32.12,32.12,0,0,0-4.27-1.35c-1.67-.42-3.05-.8-4.13-1.14a15,15,0,0,1-3.16-1.46,7.68,7.68,0,0,1-2.49-2.42,6.64,6.64,0,0,1-.94-3.64,10.3,10.3,0,0,1,.18-1.84,10.71,10.71,0,0,1,5.18-7.65,19.85,19.85,0,0,1,10.61-2.67,18.21,18.21,0,0,1,5.5.74,9.58,9.58,0,0,1,3.75,2.11,8.39,8.39,0,0,1,2.11,3.23,12.12,12.12,0,0,1,.67,4.15Z"></path><path d="M378.26,13.77a2.38,2.38,0,0,0-1.12-2.2,5.21,5.21,0,0,0-2.65-.58c-2.25,0-3.47.61-3.68,1.84V13l-.05.18a1.9,1.9,0,0,0,1.37,1.73,29.25,29.25,0,0,0,4.38,1.37c1.67.45,3,.85,4.1,1.19a14.14,14.14,0,0,1,3.12,1.44,7.47,7.47,0,0,1,2.47,2.37,6.27,6.27,0,0,1,.94,3.48,8.73,8.73,0,0,1-.18,1.71,11.57,11.57,0,0,1-5.56,8.3,21.7,21.7,0,0,1-11.49,2.83,17.43,17.43,0,0,1-5.25-.74,12.09,12.09,0,0,1-4-2,8.88,8.88,0,0,1-2.47-3,8.38,8.38,0,0,1-.85-3.75,9.57,9.57,0,0,1,.09-1.26h10.14a3,3,0,0,0,1.3,2.56,4.81,4.81,0,0,0,2.88.81,7.65,7.65,0,0,0,3.32-.63,2.39,2.39,0,0,0,1.48-1.75.39.39,0,0,1,0-.18v-.14a1.86,1.86,0,0,0-1.34-1.7A32.12,32.12,0,0,0,371,24.36c-1.67-.42-3-.8-4.13-1.14a15,15,0,0,1-3.16-1.46,7.68,7.68,0,0,1-2.49-2.42,6.64,6.64,0,0,1-.94-3.64,10.3,10.3,0,0,1,.18-1.84,10.71,10.71,0,0,1,5.18-7.65,19.85,19.85,0,0,1,10.61-2.67,18.21,18.21,0,0,1,5.5.74,9.58,9.58,0,0,1,3.75,2.11,8.28,8.28,0,0,1,2.11,3.23,12.12,12.12,0,0,1,.67,4.15Z"></path><path d="M432.47,4.59A12.19,12.19,0,0,1,437,7.49a12,12,0,0,1,2.6,4.26,15.56,15.56,0,0,1,.85,5.21,19.22,19.22,0,0,1-.31,3.41,22.45,22.45,0,0,1-2.56,7.22A19.13,19.13,0,0,1,427,36.41a21,21,0,0,1-6.89,1.15q-6.69,0-10.48-3.46t-3.79-9.74a21.67,21.67,0,0,1,.4-4.08,20.62,20.62,0,0,1,2.4-6.87,19.83,19.83,0,0,1,4.42-5.32,19,19,0,0,1,6-3.38,21,21,0,0,1,7.05-1.17A17.76,17.76,0,0,1,432.47,4.59Zm-10.93,7.63a7.43,7.43,0,0,0-2.31,2.09,12.2,12.2,0,0,0-1.53,2.85,19,19,0,0,0-.89,3.21,18.53,18.53,0,0,0-.27,3.05,8,8,0,0,0,1.14,4.51,4.26,4.26,0,0,0,3.84,1.73,6.35,6.35,0,0,0,5.25-2.52,15.07,15.07,0,0,0,2.74-6.77,13.47,13.47,0,0,0,.27-2.65,7.7,7.7,0,0,0-1.24-4.53,4.45,4.45,0,0,0-3.92-1.75A6.11,6.11,0,0,0,421.54,12.22Z"></path><path d="M445.66,4.39h10.68l1.89,21.5,9.65-21.5h10.68L461.64,36.7H451Z"></path><path d="M477.3,36.7,483,4.39h26.34L508,11.93H492.24l-.8,4.62h13.33l-1.31,7.54H490.14l-.9,5.07h16.38l-1.35,7.54Z"></path><path d="M521.59,25.44l-2,11.26H509l5.7-32.31H530c4.63,0,8,.56,9.94,1.66a5.62,5.62,0,0,1,3,5.3,12.79,12.79,0,0,1-.22,2.24,11,11,0,0,1-2.27,5,8.6,8.6,0,0,1-4.55,2.87,9.94,9.94,0,0,1,3.32,1.88,4.88,4.88,0,0,1,1,3.46,17.53,17.53,0,0,1-.36,3.23c-.06.42-.12.8-.18,1.12a28.55,28.55,0,0,0-.49,3.46q0,1.08.81,1.08l-.18,1H529v-.31a4.68,4.68,0,0,1,0-.58,30.17,30.17,0,0,1,.49-4.76,13.64,13.64,0,0,0,.32-2.51,2.65,2.65,0,0,0-1.08-2.41,7.81,7.81,0,0,0-3.91-.69Zm1.26-7.09H527a8.6,8.6,0,0,0,3.93-.72,3.06,3.06,0,0,0,1.64-2.33,1.86,1.86,0,0,1,0-.36c0-.18,0-.29,0-.32a2.28,2.28,0,0,0-1-2,5,5,0,0,0-2.76-.67H524Z"></path><path d="M242.73,58.12,242,61.71H225.14L223,71.9h14.81l-.77,3.59h-14.8l-3.06,14.67H215l6.69-32Z"></path><path d="M259.83,58.12a20.28,20.28,0,0,1,3.92.38,9.88,9.88,0,0,1,3.39,1.32,7,7,0,0,1,2.36,2.52,8,8,0,0,1,.87,4,8.78,8.78,0,0,1-.54,3.07A9.07,9.07,0,0,1,268.35,72a8.1,8.1,0,0,1-2.26,1.93,8.3,8.3,0,0,1-2.94,1V75a4.23,4.23,0,0,1,1.73,1A4.69,4.69,0,0,1,266,77.57a7.26,7.26,0,0,1,.5,2,11.49,11.49,0,0,1,0,2.34q-.09,1.08-.27,2.13c-.12.7-.2,1.41-.26,2.11a9.93,9.93,0,0,0,0,2,5.11,5.11,0,0,0,.58,1.93H262a9.18,9.18,0,0,1-.36-2.65,19.51,19.51,0,0,1,.45-4.22,13.38,13.38,0,0,0,.2-3.47,4.63,4.63,0,0,0-.65-2,2.61,2.61,0,0,0-1.22-1,4.85,4.85,0,0,0-1.43-.32H247.84L245,90.16h-4.26l6.78-32Zm-1.62,14.76a10.26,10.26,0,0,0,4.06-.67,6.59,6.59,0,0,0,2.4-1.64,5.12,5.12,0,0,0,1.15-2.06,8,8,0,0,0,.29-2,4.86,4.86,0,0,0-.54-2.43,4.09,4.09,0,0,0-1.41-1.48,5.64,5.64,0,0,0-2-.74,13.65,13.65,0,0,0-2.33-.2H251l-2.38,11.17Z"></path><path d="M300.31,58.12l-.72,3.59H281.77L279.62,71.9h16.6l-.72,3.59H278.86l-2.34,11.08h18l-.81,3.59h-22.3l6.78-32Z"></path><path d="M327.73,58.12,327,61.71H309.19L307,71.9h16.6l-.72,3.59H306.28l-2.34,11.08h18l-.81,3.59h-22.3l6.78-32Z"></path><path d="M345.41,58.12a20.28,20.28,0,0,1,3.92.38,9.8,9.8,0,0,1,3.39,1.32,7,7,0,0,1,2.36,2.52,8,8,0,0,1,.87,4,8.78,8.78,0,0,1-.54,3.07A9.07,9.07,0,0,1,353.93,72a8.1,8.1,0,0,1-2.26,1.93,8.24,8.24,0,0,1-2.94,1V75a4.23,4.23,0,0,1,1.73,1,4.69,4.69,0,0,1,1.07,1.59,7.26,7.26,0,0,1,.5,2A11.49,11.49,0,0,1,352,82c-.06.72-.15,1.43-.26,2.13s-.21,1.41-.27,2.11a11.58,11.58,0,0,0,0,2,5.11,5.11,0,0,0,.58,1.93h-4.44a9.18,9.18,0,0,1-.36-2.65,19.51,19.51,0,0,1,.45-4.22,13,13,0,0,0,.2-3.47,4.63,4.63,0,0,0-.65-2,2.61,2.61,0,0,0-1.22-1,4.85,4.85,0,0,0-1.43-.32H333.43l-2.88,13.69h-4.26l6.78-32Zm-1.62,14.76a10.26,10.26,0,0,0,4.06-.67,6.51,6.51,0,0,0,2.4-1.64,5.12,5.12,0,0,0,1.15-2.06,8,8,0,0,0,.29-2,4.86,4.86,0,0,0-.54-2.43,4.09,4.09,0,0,0-1.41-1.48,5.64,5.64,0,0,0-2-.74,13.65,13.65,0,0,0-2.33-.2h-8.84l-2.38,11.17Z"></path><path d="M368,58.12l-6.74,32H357l6.73-32Z"></path><path d="M386.65,58.12q6,0,9,3.27t3.08,9a24.26,24.26,0,0,1-1.31,8.19,18.29,18.29,0,0,1-3.63,6.24,15.88,15.88,0,0,1-5.61,4A18.4,18.4,0,0,1,381,90.16h-12.3l6.78-32ZM381,86.57a12.25,12.25,0,0,0,5.95-1.37,12.88,12.88,0,0,0,4.22-3.59,15.43,15.43,0,0,0,2.51-5,20,20,0,0,0,.83-5.74,15.43,15.43,0,0,0-.38-3.41,7.23,7.23,0,0,0-1.37-2.92,6.92,6.92,0,0,0-2.71-2,10.89,10.89,0,0,0-4.38-.76h-6.82l-5.25,24.86Z"></path><path d="M429.1,58.12l-.72,3.59H410.57L408.41,71.9H425l-.72,3.59H407.65l-2.33,11.08h18l-.81,3.59h-22.3l6.77-32Z"></path><path d="M462.65,64.42a5.09,5.09,0,0,0-1.48-2.06,5.73,5.73,0,0,0-2.36-1.1,13.82,13.82,0,0,0-3.05-.31,11,11,0,0,0-2.47.29,8.36,8.36,0,0,0-2.4.92,5.89,5.89,0,0,0-1.82,1.61,4,4,0,0,0-.72,2.43,4.5,4.5,0,0,0,.41,2,4.32,4.32,0,0,0,1.1,1.44,6,6,0,0,0,1.66,1,18.76,18.76,0,0,0,2,.72l4.31,1.16a21.67,21.67,0,0,1,2.87,1,9.36,9.36,0,0,1,2.47,1.57,7.13,7.13,0,0,1,1.73,2.45,9.12,9.12,0,0,1,.65,3.64,7.93,7.93,0,0,1-1.15,4.33,9.78,9.78,0,0,1-2.94,3,13.12,13.12,0,0,1-4,1.78,17.58,17.58,0,0,1-4.38.58,20.5,20.5,0,0,1-5.29-.65,11.11,11.11,0,0,1-4.11-2,8.6,8.6,0,0,1-2.56-3.48,11.16,11.16,0,0,1-.65-5.09h4.26a8.84,8.84,0,0,0,.5,3.63A5.42,5.42,0,0,0,447,85.67,6.9,6.9,0,0,0,449.75,87a15,15,0,0,0,3.54.38,12.2,12.2,0,0,0,2.94-.36,7.89,7.89,0,0,0,2.58-1.1,5.8,5.8,0,0,0,1.82-1.9,5.38,5.38,0,0,0,.69-2.78,4.51,4.51,0,0,0-.45-2.09,4.28,4.28,0,0,0-1.23-1.48,7.08,7.08,0,0,0-1.82-1,21,21,0,0,0-2.2-.72l-4.35-1.17a15.84,15.84,0,0,1-2.74-1,8.72,8.72,0,0,1-2.28-1.62,7.15,7.15,0,0,1-1.58-2.29,7.64,7.64,0,0,1-.58-3.11,7.89,7.89,0,0,1,1-4.07,9.57,9.57,0,0,1,2.67-2.89,12,12,0,0,1,3.73-1.75,15.6,15.6,0,0,1,4.24-.58,16.6,16.6,0,0,1,4.51.6A11.32,11.32,0,0,1,464,59.8,8.57,8.57,0,0,1,466.55,63a9.82,9.82,0,0,1,.83,4.63h-4.26A8.09,8.09,0,0,0,462.65,64.42Z"></path><path d="M498.08,58.12l-.72,3.59H479.54L477.39,71.9H494l-.71,3.59H476.63l-2.34,11.08h18l-.8,3.59H469.22l6.78-32Z"></path><path d="M515.76,58.12a20.38,20.38,0,0,1,3.93.38,9.83,9.83,0,0,1,3.38,1.32,6.89,6.89,0,0,1,2.36,2.52,8,8,0,0,1,.88,4,8.78,8.78,0,0,1-.54,3.07A9.55,9.55,0,0,1,524.29,72,8.29,8.29,0,0,1,522,73.92a8.17,8.17,0,0,1-2.94,1V75a4.23,4.23,0,0,1,1.73,1,4.87,4.87,0,0,1,1.08,1.59,7.62,7.62,0,0,1,.49,2,11.47,11.47,0,0,1,0,2.34q-.09,1.08-.27,2.13c-.12.7-.21,1.41-.27,2.11a11.58,11.58,0,0,0,0,2,5.11,5.11,0,0,0,.58,1.93H518a9.18,9.18,0,0,1-.36-2.65,19.51,19.51,0,0,1,.45-4.22,12.54,12.54,0,0,0,.2-3.47,4.5,4.5,0,0,0-.65-2,2.58,2.58,0,0,0-1.21-1,5,5,0,0,0-1.44-.32H503.78l-2.87,13.69h-4.27l6.78-32Zm-1.62,14.76a10.35,10.35,0,0,0,4.07-.67,6.68,6.68,0,0,0,2.4-1.64,5.09,5.09,0,0,0,1.14-2.06,7.55,7.55,0,0,0,.29-2,4.86,4.86,0,0,0-.54-2.43,4,4,0,0,0-1.41-1.48,5.57,5.57,0,0,0-2-.74,13.47,13.47,0,0,0-2.33-.2h-8.84l-2.38,11.17Z"></path><path d="M538.38,58.12l-6.73,32h-4.27l6.73-32Z"></path><path d="M567.86,58.12l-.72,3.59H549.33L547.17,71.9h16.61l-.72,3.59H546.41l-2.33,11.08h18l-.81,3.59H539l6.77-32Z"></path><path d="M588.93,64.42a5,5,0,0,0-1.48-2.06,5.67,5.67,0,0,0-2.36-1.1A13.75,13.75,0,0,0,582,61a11,11,0,0,0-2.47.29,8.59,8.59,0,0,0-2.4.92,5.74,5.74,0,0,0-1.81,1.61,4,4,0,0,0-.72,2.43,4.27,4.27,0,0,0,1.5,3.43,6.34,6.34,0,0,0,1.66,1,20.39,20.39,0,0,0,2,.72l4.31,1.16a21.18,21.18,0,0,1,2.87,1,9.36,9.36,0,0,1,2.47,1.57,7,7,0,0,1,1.73,2.45,9.12,9.12,0,0,1,.65,3.64,8,8,0,0,1-1.14,4.33,10,10,0,0,1-2.94,3,13.28,13.28,0,0,1-4,1.78,17.58,17.58,0,0,1-4.38.58,20.5,20.5,0,0,1-5.29-.65,11.19,11.19,0,0,1-4.11-2,8.49,8.49,0,0,1-2.55-3.48,11,11,0,0,1-.66-5.09h4.27a8.85,8.85,0,0,0,.49,3.63,5.5,5.5,0,0,0,1.73,2.38A6.9,6.9,0,0,0,576,87a15.13,15.13,0,0,0,3.54.38,12.2,12.2,0,0,0,2.94-.36,7.71,7.71,0,0,0,2.58-1.1,5.7,5.7,0,0,0,1.82-1.9,5.39,5.39,0,0,0,.7-2.78,4.51,4.51,0,0,0-.45-2.09,4.31,4.31,0,0,0-1.24-1.48,7.19,7.19,0,0,0-1.81-1,21,21,0,0,0-2.2-.72l-4.36-1.17a15.73,15.73,0,0,1-2.73-1,8.77,8.77,0,0,1-2.29-1.62A7.13,7.13,0,0,1,571,69.76a7.64,7.64,0,0,1-.59-3.11,7.8,7.8,0,0,1,1-4.07,9.33,9.33,0,0,1,2.67-2.89,11.81,11.81,0,0,1,3.72-1.75,15.65,15.65,0,0,1,4.24-.58,16.54,16.54,0,0,1,4.51.6,11.32,11.32,0,0,1,3.75,1.84A8.59,8.59,0,0,1,592.84,63a10,10,0,0,1,.83,4.63H589.4A7.91,7.91,0,0,0,588.93,64.42Z"></path></svg> 