<?xml version="1.0" encoding="UTF-8"?> <!-- Generator: Adobe Illustrator 26.0.2, SVG Export Plug-In . SVG Version: 6.00 Build 0) --> <svg xmlns="http://www.w3.org/2000/svg" xmlns:xlink="http://www.w3.org/1999/xlink" version="1.1" id="Layer_1" x="0px" y="0px" viewBox="0 0 662.9 94.2" style="enable-background:new 0 0 662.9 94.2;" xml:space="preserve"> <path d="M315.5,16.7v-0.7c0.1-1.3-0.4-2.5-1.2-3.4c-1-0.9-2.3-1.3-3.6-1.2c-1.9,0-3.7,0.9-4.8,2.4c-1.5,2.1-2.5,4.5-2.8,7 c-0.2,1.1-0.3,2.2-0.3,3.4c-0.1,1.4,0.3,2.8,1.2,4c0.8,1,2.1,1.5,4,1.5c1.5,0,2.9-0.5,4-1.5c1.1-1.1,1.9-2.5,2.4-4h10.2 c-1,3.9-3.3,7.4-6.6,9.8c-3.2,2.4-7.2,3.7-11.2,3.6c-4.6,0-8.2-1.2-10.7-3.5s-3.8-5.5-3.8-9.6c0-1.3,0.1-2.6,0.4-4 c0.4-2.5,1.2-4.8,2.4-7c1.1-2,2.6-3.9,4.4-5.4c3.4-3,7.7-4.6,12.2-4.6c4.6,0,8.1,1,10.5,3.1s3.5,5,3.5,8.7c0,0.1,0,0.4,0,0.7v0.7 L315.5,16.7z"></path> <path d="M338.9,25.4l-2,11.3h-10.6l5.7-32.3h15.3c4.6,0,8,0.6,9.9,1.7c2,1,3.1,3.1,3,5.3c0,0.8-0.1,1.5-0.2,2.2 c-0.3,1.8-1.1,3.6-2.3,5c-1.2,1.4-2.8,2.4-4.6,2.9c1.2,0.4,2.4,1,3.3,1.9c0.8,1,1.1,2.2,1,3.5c0,1.1-0.1,2.2-0.4,3.2 c-0.1,0.4-0.1,0.8-0.2,1.1c-0.2,1.1-0.4,2.3-0.5,3.5c0,0.7,0.3,1.1,0.8,1.1l-0.2,1h-10.8v-0.3c0-0.2,0-0.4,0-0.6 c0-1.6,0.2-3.2,0.5-4.8c0.2-0.8,0.3-1.7,0.3-2.5c0.1-0.9-0.3-1.9-1.1-2.4c-1.2-0.6-2.6-0.8-3.9-0.7L338.9,25.4z M340.2,18.4h4.2 c1.3,0.1,2.7-0.2,3.9-0.7c0.9-0.5,1.5-1.3,1.6-2.3c0-0.1,0-0.2,0-0.4c0-0.2,0-0.3,0-0.3c0-0.8-0.3-1.6-1-2c-0.8-0.5-1.8-0.7-2.8-0.7 h-4.9L340.2,18.4z"></path> <path d="M389.4,4.6c1.7,0.6,3.2,1.6,4.5,2.9c1.2,1.2,2,2.7,2.6,4.3c0.6,1.7,0.9,3.4,0.9,5.2c0,1.1-0.1,2.3-0.3,3.4 c-0.4,2.5-1.3,5-2.6,7.2c-2.3,4.1-6,7.3-10.5,8.8c-2.2,0.8-4.5,1.2-6.9,1.2c-4.5,0-8-1.2-10.5-3.5c-2.5-2.3-3.8-5.6-3.8-9.7 c0-1.4,0.1-2.7,0.4-4.1c0.4-2.4,1.2-4.7,2.4-6.9c1.2-2,2.7-3.8,4.5-5.3c1.8-1.5,3.8-2.6,6-3.4c2.3-0.8,4.6-1.2,7-1.2 C385.2,3.5,387.4,3.9,389.4,4.6z M378.5,12.2c-0.9,0.5-1.7,1.2-2.3,2.1c-0.6,0.9-1.1,1.8-1.5,2.8c-0.4,1-0.7,2.1-0.9,3.2 c-0.2,1-0.3,2-0.3,3c-0.1,1.6,0.3,3.2,1.1,4.5c0.9,1.2,2.3,1.9,3.8,1.7c2.1,0.1,4-0.9,5.2-2.5c1.5-2,2.4-4.3,2.7-6.8 c0.2-0.9,0.3-1.8,0.3-2.6c0.1-1.6-0.4-3.2-1.2-4.5c-0.9-1.2-2.4-1.9-3.9-1.8C380.5,11.4,379.4,11.7,378.5,12.2z"></path> <path d="M419.9,13.8c0.1-0.9-0.4-1.7-1.1-2.2c-0.8-0.4-1.7-0.6-2.6-0.6c-2.2,0-3.5,0.6-3.7,1.8V13l0,0.2c0,0.8,0.6,1.5,1.4,1.7 c1.4,0.6,2.9,1,4.4,1.4c1.7,0.5,3,0.9,4.1,1.2c1.1,0.4,2.1,0.8,3.1,1.4c1,0.6,1.8,1.4,2.5,2.4c0.6,1,1,2.3,0.9,3.5 c0,0.6-0.1,1.1-0.2,1.7c-0.5,3.5-2.5,6.5-5.6,8.3c-3.5,2-7.5,3-11.5,2.8c-1.8,0-3.5-0.2-5.2-0.7c-1.4-0.4-2.8-1.1-4-2 c-1-0.8-1.9-1.8-2.5-3c-0.6-1.2-0.9-2.5-0.8-3.9c0-0.4,0-0.8,0.1-1.3h10.1c0,1,0.5,2,1.3,2.6c0.8,0.6,1.9,0.9,2.9,0.8 c1.1,0,2.3-0.2,3.3-0.6c0.8-0.3,1.3-1,1.5-1.8c0-0.1,0-0.1,0-0.2v-0.1c0-0.8-0.6-1.5-1.3-1.7c-1.4-0.5-2.8-1-4.3-1.4 c-1.7-0.4-3-0.8-4.1-1.1c-1.1-0.4-2.2-0.9-3.2-1.5c-1-0.6-1.9-1.4-2.5-2.4c-0.7-1.1-1-2.4-0.9-3.6c0-0.6,0.1-1.2,0.2-1.8 c0.5-3.2,2.4-6,5.2-7.7c3.2-1.9,6.9-2.8,10.6-2.7c1.9,0,3.7,0.2,5.5,0.7c1.4,0.4,2.7,1.1,3.8,2.1c0.9,0.9,1.7,2,2.1,3.2 c0.5,1.3,0.7,2.7,0.7,4.1L419.9,13.8z"></path> <path d="M452.3,13.8c0.1-0.9-0.4-1.7-1.1-2.2c-0.8-0.4-1.7-0.6-2.6-0.6c-2.2,0-3.5,0.6-3.7,1.8V13l0,0.2c0,0.8,0.6,1.5,1.4,1.7 c1.4,0.6,2.9,1,4.4,1.4c1.7,0.5,3,0.9,4.1,1.2c1.1,0.4,2.1,0.8,3.1,1.4c1,0.6,1.8,1.4,2.5,2.4c0.6,1,1,2.3,0.9,3.5 c0,0.6-0.1,1.1-0.2,1.7c-0.5,3.5-2.5,6.5-5.6,8.3c-3.5,2-7.5,3-11.5,2.8c-1.8,0-3.5-0.2-5.2-0.7c-1.4-0.4-2.8-1.1-4-2 c-1-0.8-1.9-1.8-2.5-3c-0.6-1.2-0.9-2.5-0.9-3.8c0-0.4,0-0.8,0.1-1.3h10.1c0,1,0.5,2,1.3,2.6c0.8,0.6,1.9,0.9,2.9,0.8 c1.1,0,2.3-0.2,3.3-0.6c0.8-0.3,1.3-1,1.5-1.8c0-0.1,0-0.1,0-0.2v-0.1c0-0.8-0.6-1.5-1.3-1.7c-1.4-0.6-2.8-1.1-4.2-1.5 c-1.7-0.4-3-0.8-4.1-1.1c-1.1-0.4-2.2-0.9-3.2-1.5c-1-0.6-1.9-1.4-2.5-2.4c-0.7-1.1-1-2.4-0.9-3.6c0-0.6,0.1-1.2,0.2-1.8 c0.5-3.2,2.4-6,5.2-7.7c3.2-1.9,6.9-2.8,10.6-2.7c1.9,0,3.7,0.2,5.5,0.7c1.4,0.4,2.7,1.1,3.8,2.1c0.9,0.9,1.7,2,2.1,3.2 c0.5,1.3,0.7,2.7,0.7,4.1H452.3z"></path> <path d="M506.5,4.6c1.7,0.6,3.3,1.6,4.5,2.9c1.2,1.2,2,2.7,2.6,4.3c0.6,1.7,0.9,3.4,0.8,5.2c0,1.1-0.1,2.3-0.3,3.4 c-0.4,2.5-1.3,5-2.6,7.2c-2.3,4.2-6.1,7.3-10.6,8.8c-2.2,0.8-4.5,1.2-6.9,1.2c-4.5,0-8-1.2-10.5-3.5c-2.5-2.3-3.8-5.6-3.8-9.7 c0-1.4,0.1-2.7,0.4-4.1c0.4-2.4,1.2-4.7,2.4-6.9c1.2-2,2.6-3.8,4.4-5.3c1.8-1.5,3.8-2.6,6-3.4c2.3-0.8,4.7-1.2,7-1.2 C502.3,3.5,504.5,3.9,506.5,4.6z M495.6,12.2c-0.9,0.5-1.7,1.2-2.3,2.1c-0.6,0.9-1.1,1.8-1.5,2.8c-0.4,1-0.7,2.1-0.9,3.2 c-0.2,1-0.3,2-0.3,3c-0.1,1.6,0.3,3.2,1.1,4.5c0.9,1.2,2.3,1.9,3.8,1.7c2.1,0.1,4-0.9,5.2-2.5c1.5-2,2.4-4.3,2.7-6.8 c0.2-0.9,0.3-1.8,0.3-2.6c0.1-1.6-0.4-3.2-1.2-4.5c-0.9-1.2-2.4-1.9-3.9-1.8C497.6,11.4,496.5,11.7,495.6,12.2z"></path> <path d="M519.7,4.4h10.7l1.9,21.5L542,4.4h10.7l-16.9,32.3h-10.6L519.7,4.4z"></path> <path d="M551.4,36.7l5.7-32.3h26.3l-1.3,7.5h-15.8l-0.8,4.6h13.3l-1.3,7.5h-13.3l-0.9,5.1h16.4l-1.4,7.5H551.4z"></path> <path d="M595.7,25.4l-2,11.3h-10.6l5.7-32.3h15.3c4.6,0,8,0.6,9.9,1.7c2,1,3.1,3.1,3,5.3c0,0.8-0.1,1.5-0.2,2.2 c-0.3,1.8-1.1,3.6-2.3,5c-1.2,1.4-2.8,2.4-4.5,2.9c1.2,0.4,2.3,1,3.3,1.9c0.8,1,1.1,2.2,1,3.5c0,1.1-0.1,2.2-0.4,3.2 c-0.1,0.4-0.1,0.8-0.2,1.1c-0.2,1.1-0.4,2.3-0.5,3.5c0,0.7,0.3,1.1,0.8,1.1l-0.2,1h-10.8v-0.3c0-0.2,0-0.4,0-0.6 c0-1.6,0.2-3.2,0.5-4.8c0.2-0.8,0.3-1.7,0.3-2.5c0.1-0.9-0.3-1.9-1.1-2.4c-1.2-0.6-2.6-0.8-3.9-0.7L595.7,25.4z M596.9,18.4h4.1 c1.3,0.1,2.7-0.2,3.9-0.7c0.9-0.5,1.5-1.3,1.6-2.3c0-0.1,0-0.2,0-0.4c0-0.2,0-0.3,0-0.3c0-0.8-0.3-1.6-1-2c-0.8-0.5-1.8-0.7-2.8-0.7 h-4.8L596.9,18.4z"></path> <path d="M310.8,58.1l-0.7,3.6h-16.9l-2.1,10.2h14.8l-0.8,3.6h-14.8l-3.1,14.7h-4.2l6.7-32L310.8,58.1z"></path> <path d="M327.9,58.1c1.3,0,2.6,0.1,3.9,0.4c1.2,0.2,2.4,0.7,3.4,1.3c1,0.6,1.8,1.5,2.4,2.5c0.6,1.2,0.9,2.6,0.9,4 c0,1-0.2,2.1-0.5,3.1c-0.3,0.9-0.8,1.8-1.5,2.6c-0.6,0.8-1.4,1.4-2.3,1.9c-0.9,0.5-1.9,0.9-2.9,1V75c0.6,0.2,1.2,0.5,1.7,1 c0.5,0.4,0.9,1,1.1,1.6c0.3,0.6,0.4,1.3,0.5,2c0.1,0.8,0.1,1.6,0,2.3c-0.1,0.7-0.1,1.4-0.3,2.1s-0.2,1.4-0.3,2.1 c-0.1,0.7-0.1,1.3,0,2c0.1,0.7,0.3,1.3,0.6,1.9h-4.5c-0.2-0.9-0.4-1.8-0.4-2.7c0-1.4,0.1-2.8,0.5-4.2c0.2-1.1,0.3-2.3,0.2-3.5 c-0.1-0.7-0.3-1.4-0.6-2c-0.3-0.5-0.7-0.8-1.2-1c-0.5-0.2-0.9-0.3-1.4-0.3h-11.2l-2.8,13.7h-4.3l6.8-32L327.9,58.1z M326.3,72.9 c1.4,0.1,2.8-0.2,4.1-0.7c0.9-0.4,1.7-0.9,2.4-1.6c0.5-0.6,0.9-1.3,1.1-2.1c0.2-0.7,0.3-1.3,0.3-2c0-0.8-0.2-1.7-0.5-2.4 c-0.3-0.6-0.8-1.1-1.4-1.5c-0.6-0.4-1.3-0.6-2-0.7c-0.8-0.1-1.5-0.2-2.3-0.2h-8.8l-2.4,11.2L326.3,72.9z"></path> <path d="M368.4,58.1l-0.7,3.6h-17.8l-2.1,10.2h16.6l-0.7,3.6h-16.6l-2.3,11.1h18l-0.8,3.6h-22.3l6.8-32L368.4,58.1z"></path> <path d="M395.8,58.1l-0.7,3.6h-17.8l-2.2,10.2h16.6l-0.7,3.6h-16.6L372,86.6h18l-0.8,3.6h-22.3l6.8-32L395.8,58.1z"></path> <path d="M413.5,58.1c1.3,0,2.6,0.1,3.9,0.4c1.2,0.2,2.4,0.7,3.4,1.3c1,0.6,1.8,1.5,2.4,2.5c0.6,1.2,0.9,2.6,0.9,4 c0,1-0.2,2.1-0.5,3.1c-0.3,0.9-0.8,1.8-1.5,2.6c-0.6,0.8-1.4,1.4-2.3,1.9c-0.9,0.5-1.9,0.9-2.9,1V75c0.6,0.2,1.2,0.5,1.7,1 c0.5,0.5,0.8,1,1.1,1.6c0.3,0.6,0.4,1.3,0.5,2c0.1,0.8,0.1,1.6,0,2.4c-0.1,0.7-0.1,1.4-0.3,2.1s-0.2,1.4-0.3,2.1 c-0.1,0.7-0.1,1.3,0,2c0.1,0.7,0.3,1.3,0.6,1.9h-4.4c-0.2-0.9-0.4-1.8-0.4-2.7c0-1.4,0.1-2.8,0.5-4.2c0.2-1.1,0.3-2.3,0.2-3.5 c-0.1-0.7-0.3-1.4-0.6-2c-0.3-0.5-0.7-0.8-1.2-1c-0.5-0.2-0.9-0.3-1.4-0.3h-11.2l-2.9,13.7h-4.3l6.8-32L413.5,58.1z M411.9,72.9 c1.4,0.1,2.8-0.2,4.1-0.7c0.9-0.4,1.7-0.9,2.4-1.6c0.5-0.6,0.9-1.3,1.1-2.1c0.2-0.7,0.3-1.3,0.3-2c0-0.8-0.2-1.7-0.5-2.4 c-0.3-0.6-0.8-1.1-1.4-1.5c-0.6-0.4-1.3-0.6-2-0.7c-0.8-0.1-1.5-0.2-2.3-0.2h-8.8l-2.4,11.2L411.9,72.9z"></path> <path d="M436.1,58.1l-6.7,32h-4.3l6.7-32L436.1,58.1z"></path> <path d="M454.7,58.1c4,0,7,1.1,9,3.3c2,2.2,3,5.2,3.1,9c0,2.8-0.4,5.6-1.3,8.2c-0.8,2.3-2,4.4-3.6,6.2c-1.6,1.7-3.5,3.1-5.6,4 c-2.3,0.9-4.7,1.4-7.2,1.3h-12.3l6.8-32L454.7,58.1z M449.1,86.6c2.1,0.1,4.1-0.4,6-1.4c1.7-0.9,3.1-2.1,4.2-3.6 c1.1-1.5,2-3.2,2.5-5c0.6-1.9,0.8-3.8,0.8-5.7c0-1.1-0.1-2.3-0.4-3.4c-0.2-1.1-0.7-2.1-1.4-2.9c-0.7-0.9-1.7-1.6-2.7-2 c-1.4-0.6-2.9-0.8-4.4-0.8h-6.8l-5.2,24.9L449.1,86.6z"></path> <path d="M497.2,58.1l-0.7,3.6h-17.8l-2.2,10.2h16.6l-0.7,3.6h-16.6l-2.3,11.1h18l-0.8,3.6h-22.3l6.8-32L497.2,58.1z"></path> <path d="M530.7,64.4c-0.3-0.8-0.8-1.5-1.5-2.1c-0.7-0.5-1.5-0.9-2.4-1.1c-1-0.2-2-0.3-3-0.3c-0.8,0-1.7,0.1-2.5,0.3 c-0.8,0.2-1.7,0.5-2.4,0.9c-0.7,0.4-1.3,1-1.8,1.6c-0.5,0.7-0.7,1.6-0.7,2.4c0,0.7,0.1,1.4,0.4,2c0.3,0.6,0.6,1,1.1,1.4 c0.5,0.4,1.1,0.8,1.7,1c0.7,0.3,1.3,0.5,2,0.7l4.3,1.2c1,0.3,1.9,0.6,2.9,1c0.9,0.4,1.7,0.9,2.5,1.6c0.7,0.7,1.3,1.5,1.7,2.4 c0.5,1.2,0.7,2.4,0.6,3.6c0,1.5-0.4,3-1.1,4.3c-0.8,1.2-1.8,2.2-2.9,3c-1.2,0.8-2.6,1.4-4,1.8c-1.4,0.4-2.9,0.6-4.4,0.6 c-1.8,0-3.6-0.2-5.3-0.7c-1.5-0.4-2.9-1.1-4.1-2c-1.1-0.9-2-2.1-2.6-3.5c-0.6-1.6-0.8-3.4-0.6-5.1h4.3c-0.1,1.2,0.1,2.5,0.5,3.6 c0.4,0.9,1,1.8,1.8,2.4c0.8,0.6,1.7,1.1,2.8,1.3c1.2,0.3,2.3,0.4,3.5,0.4c1,0,2-0.1,2.9-0.4c0.9-0.2,1.8-0.6,2.6-1.1 c0.7-0.5,1.4-1.1,1.8-1.9c0.5-0.8,0.7-1.8,0.7-2.8c0-0.7-0.1-1.4-0.5-2.1c-0.3-0.6-0.7-1.1-1.2-1.5c-0.6-0.4-1.2-0.8-1.8-1 c-0.7-0.3-1.5-0.5-2.2-0.7l-4.3-1.2c-0.9-0.2-1.9-0.6-2.7-1c-0.8-0.4-1.6-1-2.3-1.6c-0.7-0.7-1.2-1.4-1.6-2.3c-0.4-1-0.6-2-0.6-3.1 c0-1.4,0.3-2.8,1-4.1c0.7-1.1,1.6-2.1,2.7-2.9c1.1-0.8,2.4-1.4,3.7-1.8c1.4-0.4,2.8-0.6,4.2-0.6c1.5,0,3,0.2,4.5,0.6 c1.3,0.3,2.6,0.9,3.8,1.7c1.1,0.8,2,1.9,2.5,3.2c0.6,1.5,0.9,3,0.8,4.6h-4.3C531.3,66.5,531.1,65.4,530.7,64.4z"></path> <path d="M566.2,58.1l-0.7,3.6h-17.8l-2.1,10.2h16.6l-0.7,3.6h-16.7l-2.3,11.1h18l-0.8,3.6h-22.3l6.8-32L566.2,58.1z"></path> <path d="M583.8,58.1c1.3,0,2.6,0.1,3.9,0.4c1.2,0.2,2.3,0.7,3.4,1.3c1,0.6,1.8,1.5,2.4,2.5c0.6,1.2,0.9,2.6,0.9,4 c0,1-0.2,2.1-0.5,3.1c-0.4,0.9-0.9,1.8-1.5,2.6c-0.6,0.8-1.4,1.4-2.3,1.9c-0.9,0.5-1.9,0.9-2.9,1V75c0.6,0.2,1.2,0.5,1.7,1 c0.5,0.5,0.8,1,1.1,1.6c0.3,0.6,0.4,1.3,0.5,2c0.1,0.8,0.1,1.6,0,2.3c-0.1,0.7-0.2,1.4-0.3,2.1s-0.2,1.4-0.3,2.1 c-0.1,0.7-0.1,1.3,0,2c0.1,0.7,0.3,1.3,0.6,1.9h-4.4c-0.2-0.9-0.4-1.8-0.4-2.7c0-1.4,0.1-2.8,0.5-4.2c0.2-1.1,0.3-2.3,0.2-3.5 c-0.1-0.7-0.3-1.4-0.7-2c-0.3-0.5-0.7-0.8-1.2-1c-0.5-0.2-0.9-0.3-1.4-0.3h-11.2L569,90.1h-4.3l6.8-32L583.8,58.1z M582.2,72.9 c1.4,0.1,2.8-0.2,4.1-0.7c0.9-0.4,1.7-0.9,2.4-1.6c0.5-0.6,0.9-1.3,1.1-2.1c0.2-0.7,0.3-1.3,0.3-2c0-0.8-0.2-1.7-0.5-2.4 c-0.3-0.6-0.8-1.1-1.4-1.5c-0.6-0.4-1.3-0.6-2-0.7c-0.8-0.1-1.5-0.2-2.3-0.2H575l-2.4,11.2L582.2,72.9z"></path> <path d="M606.5,58.1l-6.7,32h-4.3l6.7-32L606.5,58.1z"></path> <path d="M635.9,58.1l-0.7,3.6h-17.8l-2.2,10.2h16.6l-0.7,3.6h-16.7l-2.3,11.1h18l-0.8,3.6h-22.3l6.8-32L635.9,58.1z"></path> <path d="M657,64.4c-0.3-0.8-0.8-1.5-1.5-2.1c-0.7-0.5-1.5-0.9-2.4-1.1c-1-0.2-2.1-0.3-3.1-0.3c-0.8,0-1.7,0.1-2.5,0.3 c-0.8,0.2-1.7,0.5-2.4,0.9c-0.7,0.4-1.3,1-1.8,1.6c-0.5,0.7-0.7,1.6-0.7,2.4c-0.1,1.3,0.5,2.6,1.5,3.4c0.5,0.4,1.1,0.8,1.7,1 c0.7,0.3,1.3,0.5,2,0.7l4.3,1.2c1,0.3,1.9,0.6,2.9,1c0.9,0.4,1.7,0.9,2.5,1.6c0.7,0.7,1.3,1.5,1.7,2.4c0.5,1.2,0.7,2.4,0.7,3.6 c0,1.5-0.4,3-1.1,4.3c-0.8,1.2-1.8,2.2-2.9,3c-1.2,0.8-2.6,1.4-4,1.8c-1.4,0.4-2.9,0.6-4.4,0.6c-1.8,0-3.6-0.2-5.3-0.7 c-1.5-0.4-2.9-1.1-4.1-2c-1.1-0.9-2-2.1-2.5-3.5c-0.6-1.6-0.8-3.4-0.7-5.1h4.3c-0.1,1.2,0.1,2.5,0.5,3.6c0.3,0.9,0.9,1.8,1.7,2.4 c0.8,0.6,1.8,1.1,2.8,1.3c1.2,0.3,2.3,0.4,3.5,0.4c1,0,2-0.1,2.9-0.4c0.9-0.2,1.8-0.6,2.6-1.1c0.7-0.5,1.4-1.1,1.8-1.9 c0.5-0.8,0.7-1.8,0.7-2.8c0-0.7-0.1-1.4-0.5-2.1c-0.3-0.6-0.7-1.1-1.2-1.5c-0.6-0.4-1.2-0.8-1.8-1c-0.7-0.3-1.5-0.5-2.2-0.7 l-4.4-1.2c-0.9-0.2-1.9-0.6-2.7-1c-0.8-0.4-1.6-1-2.3-1.6c-0.7-0.7-1.2-1.5-1.5-2.4c-0.4-1-0.6-2-0.6-3.1c0-1.4,0.3-2.8,1-4.1 c0.7-1.1,1.6-2.1,2.7-2.9c1.1-0.8,2.4-1.4,3.7-1.8c1.4-0.4,2.8-0.6,4.2-0.6c1.5,0,3,0.2,4.5,0.6c1.4,0.4,2.6,1,3.8,1.8 c1.1,0.8,2,1.9,2.5,3.2c0.6,1.5,0.9,3,0.8,4.6h-4.3C657.5,66.5,657.4,65.4,657,64.4z"></path> <g> <path d="M62.5,24.8c0,0-0.2-0.2-0.3-0.2c-2-1.3-4.7-2-8.1-2l-13,0c-0.7,0-1.4,0.5-1.5,1.3l-2.9,16.9c-0.1,0.4,0,0.9,0.3,1.2 c0.1,0.1,0.2,0.2,0.3,0.2c0.3,0.2,0.6,0.3,0.9,0.3l11,0c4.8,0,8.4-0.7,11-2.1c2.8-1.5,4.5-3.9,5.1-7.5c0-0.2,0-0.4,0.1-0.7 c0.1-0.6,0.1-0.9,0.1-1.1C65.5,28.4,64.5,26.3,62.5,24.8z M62.4,31.7c-0.1,0.5-0.2,0.9-0.1,1c-0.4,2.4-1.5,4-3.5,5 c-2.2,1.1-5.4,1.7-9.6,1.7l-9.2,0l2.4-13.8l11.7,0c2.7,0,4.9,0.5,6.4,1.5l1.1-1.1l-0.9,1.2c1.2,0.9,1.8,2.2,1.8,3.8 C62.5,31.2,62.5,31.4,62.4,31.7z"></path> <path d="M83.8,7.3c-5.5-3.1-14.3-4.6-26.9-4.5l-40.2,0c-0.7,0-1.4,0.5-1.5,1.3l-14.9,85c-0.1,0.4,0,0.9,0.3,1.2 c0.1,0.1,0.2,0.2,0.3,0.2c0.3,0.2,0.6,0.3,0.9,0.3l27.9,0c0.7,0,1.4-0.5,1.5-1.3l5-28.4l7.2,0c5.8,0,8.3,0.9,9.7,1.7 c1.3,1,1.9,2.6,1.9,4.9c0,1.5-0.3,3.6-0.8,6.4c-0.9,5.3-1.3,9.6-1.3,12.8c0,0.4,0,1,0.1,1.5l0,0.8c0,0.4,0.2,0.8,0.4,1.1 c0.3,0.3,0.7,0.4,1.1,0.4l28.2,0c0.7,0,1.4-0.5,1.5-1.2l0.5-2.6c0.1-0.4-0.2-0.9-0.5-1.3c-0.3-0.4-0.9-0.6-1.3-0.6 c-0.1-0.1-0.3-0.4-0.3-1.2c0-0.8,0.2-2.9,1.3-8.8c0.2-0.9,0.3-1.9,0.5-2.9c0.7-3.4,1-6.3,1-8.8c0-4.8-1-8.1-3-10.2 c-1.3-1.3-3.2-2.5-5.6-3.7c3.6-1.6,6.6-3.8,9-6.8c3.2-3.9,5.3-8.6,6.3-13.9c0.4-2.3,0.6-4.4,0.6-6.2C92.5,15.7,89.6,10.5,83.8,7.3z M88.9,28.2c-0.9,4.9-2.8,9.1-5.6,12.6c-2.8,3.4-6.6,5.8-11.2,7.1c-0.6,0.2-1.1,0.7-1.1,1.4c0,0.7,0.4,1.3,1,1.5 c3.9,1.5,6.6,3,8.2,4.6c1.4,1.4,2.2,4.1,2.2,8c0,2.2-0.3,5-0.9,8.3c-0.2,1.1-0.3,2-0.5,2.9c-0.9,5-1.3,8.1-1.3,9.4 c0,1.9,0.6,3.2,1.8,3.9l-25.4,0c0-0.3-0.1-0.6,0-0.8c0-3.1,0.4-7.2,1.3-12.2c0.6-2.9,0.9-5.2,0.8-6.9c0-3.3-1.1-5.8-3.2-7.4 c0,0-0.3-0.2-0.3-0.2c-2.1-1.4-5.8-2.1-11.1-2.1l-8.5,0c-0.7,0-1.4,0.5-1.5,1.3l-5,28.4l-24.8,0l14.4-82l38.9,0 c11.9,0,20.4,1.4,25.4,4.2c4.7,2.6,7.1,6.8,7.1,12.6C89.4,24.2,89.2,26.1,88.9,28.2z"></path> <path d="M169.8,8.4c-2.7-2.6-6.2-4.5-10.5-5.9c-4.2-1.3-9.2-2-14.9-2c-11.3,0-20.9,2.5-28.7,7.3c-8,4.9-12.8,12-14.3,21.2 c-0.3,1.8-0.5,3.5-0.5,5.1c0,4.1,0.9,7.5,2.7,10.4c1.8,2.8,4.2,5.1,7.1,6.9c2.8,1.7,5.7,3,8.7,4c2.8,0.9,6.5,1.9,10.9,3 c5,1.3,8.7,2.5,11,3.5c1.8,0.8,2.6,1.8,2.6,3.1c0,0,0,0,0,0.1c-0.1,0.2-0.1,0.4-0.1,0.5c-0.2,1.5-1.2,2.6-3,3.5 c-2.1,1-4.8,1.5-8.1,1.5c-2.7,0-5-0.6-6.9-2c-1.7-1.2-2.5-3-2.6-5.4c0-0.8-0.7-1.5-1.5-1.5l-26.7,0c-0.8,0-1.4,0.6-1.5,1.3 c-0.2,1.3-0.2,2.4-0.2,3.5c0,3.8,0.8,7.3,2.4,10.5c1.6,3.2,3.9,6.1,6.9,8.5c0.4,0.3,0.7,0.6,1.1,0.8c2.8,2,6,3.6,9.8,4.8 c4.2,1.3,9,2,14.3,2c12.3,0,22.7-2.6,31-7.7c8.4-5.2,13.6-12.9,15.3-22.9c0.3-1.7,0.5-3.3,0.5-4.8c0-3.8-0.9-7.2-2.7-10 c-1.8-2.7-4.1-5-7-6.7c-2.8-1.7-5.6-3-8.5-3.9c-2.8-0.9-6.4-2-10.9-3.1c-5.1-1.3-8.9-2.5-11.3-3.5c-1.7-0.8-2.6-1.7-2.7-3l0.1-0.3 c0-0.1,0-0.3,0-0.5c0.4-2.4,3.2-3.6,8.2-3.6c2.6,0,4.7,0.4,6.2,1.3c1.5,0.9,2.2,2.3,2.2,4.5c0,0.8,0.7,1.5,1.5,1.5l26.5,0 c0.4,0,0.8-0.2,1.1-0.4c0.3-0.3,0.5-0.7,0.5-1.1c0-4.2-0.6-8-1.9-11.4C174.5,14,172.5,10.9,169.8,8.4z M151.1,27.4 c-0.3-2.5-1.5-4.3-3.6-5.6c-2-1.2-4.6-1.7-7.8-1.7c-6.7,0-10.5,2.1-11.2,6.1c0,0.1,0,0.3,0,0.4l-0.1,0.3c0,0.1,0,0.3,0,0.4 c0,2.6,1.6,4.6,4.5,5.9c2.5,1.1,6.4,2.3,11.7,3.7c4.4,1.2,8,2.2,10.7,3.1c2.7,0.9,5.3,2.1,7.9,3.6c2.4,1.5,4.5,3.4,6,5.8 c1.5,2.3,2.2,5.1,2.3,8.3c0,1.3-0.1,2.7-0.4,4.2c-1.6,9.1-6.3,16.1-13.9,20.8c-7.8,4.8-17.7,7.2-29.4,7.2c-4.9,0-9.4-0.6-13.4-1.9 c-3.9-1.2-7.2-2.9-9.9-5.1c-2.7-2.1-4.7-4.7-6.1-7.5c-1.4-2.8-2.1-5.9-2.1-9.2c0-0.6,0-1.2,0.1-1.8l23.9,0c0.4,2.7,1.7,4.8,3.9,6.4 c0,0,0,0,0,0c2.2,1.6,5.1,2.4,8.4,2.4c3.8,0,6.9-0.6,9.4-1.8c2.7-1.3,4.3-3.3,4.7-5.8c0.1-0.2,0.2-0.8,0.2-1c0-2.6-1.5-4.6-4.5-5.9 c-2.4-1.1-6.3-2.3-11.5-3.6c-4.4-1.1-8-2.1-10.8-3c-2.7-0.9-5.4-2.1-8-3.7c-2.5-1.5-4.5-3.5-6.1-5.9c-1.5-2.3-2.3-5.3-2.3-8.7 c0-1.4,0.2-2.9,0.5-4.6c1.4-8.4,5.7-14.6,12.9-19.1c7.3-4.5,16.4-6.8,27.1-6.8c5.4,0,10.1,0.6,14,1.9c3.8,1.2,6.9,3,9.3,5.2 c2.3,2.2,4.1,4.9,5.2,7.9c1,2.7,1.5,5.7,1.7,8.9L151.1,27.4z"></path> <polygon points="186.6,31.8 186.1,35 186.2,35 186.8,31.8 "></polygon> <polygon points="188.4,31.9 187.8,35 188.1,35 188.7,31.9 "></polygon> <polygon points="190.2,31.9 189.6,35.1 190.1,35.1 190.6,31.9 "></polygon> <polygon points="184.2,35 184.3,35 184.9,31.8 184.8,31.8 "></polygon> <polygon points="192,31.9 191.4,35.1 192,35.1 192.5,31.9 "></polygon> <polygon points="200.2,32 199.1,32 198.5,35.1 199.6,35.2 "></polygon> <polygon points="198.3,32 197.3,31.9 196.7,35.1 197.7,35.1 "></polygon> <path d="M179.9,58.9c0,0.2,0,0.4,0,0.7l0.2-1.4l-0.1,0L179.9,58.9z"></path> <polygon points="196.4,31.9 195.5,31.9 195,35.1 195.8,35.1 "></polygon> <polygon points="194.5,31.9 193.8,31.9 193.2,35.1 193.9,35.1 "></polygon> <polygon points="186.7,61.4 187.3,61.4 187.9,58.2 187.3,58.2 "></polygon> <polygon points="195.6,61.4 196.9,61.4 197.4,58.2 196.2,58.2 "></polygon> <polygon points="195.5,58.2 194.4,58.2 193.8,61.4 194.9,61.4 "></polygon> <path d="M263.1,33.6c-0.8-0.8-1.8-1.3-3-1.4L234,32.1l4.6-25.7c0.1-1.2-0.2-2.3-0.9-3.3c-0.8-0.9-2-1.4-3.1-1.4l-21.3-0.1 c-1.9,0-3.7,1.4-4.1,3.3L204.4,32l-1.7,0l-0.6,3.2l5,0l5.4-29.7c0.1-0.3,0.4-0.7,0.9-0.7l21.4,0.1c0.2,0,0.5,0.1,0.6,0.2 c0.2,0.2,0.2,0.5,0.2,0.7l-5.3,29.4l29.8,0.1c0.3,0,0.6,0.1,0.7,0.3c0.1,0.2,0.2,0.4,0.2,0.6l-3.8,21.4c-0.1,0.4-0.4,0.7-0.8,0.7 l-30.2-0.1l-5.6,30.8c-0.1,0.4-0.4,0.7-0.8,0.7l-21.4-0.1c-0.2,0-0.4-0.1-0.5-0.1l-0.2-0.2c-0.2-0.2-0.2-0.4-0.2-0.7l5.6-30.5l-5,0 l-0.6,3.2l1.8,0l-4.9,26.8l0,0.1c-0.1,1.1,0.2,2.3,0.9,3.1c0.2,0.3,0.5,0.5,0.8,0.7c0.6,0.5,1.5,0.8,2.4,0.8l21.4,0.1l0,0 c1.9,0,3.6-1.4,4-3.3l5.1-28.2l27.5,0.1c2,0,3.7-1.4,4-3.3L264,37C264.2,35.9,263.9,34.6,263.1,33.6z"></path> <polygon points="192.1,61.4 193,61.4 193.6,58.2 192.6,58.2 "></polygon> <polygon points="181.4,61.3 181.5,61.3 182.1,58.1 181.9,58.1 "></polygon> <polygon points="202.1,32 200.9,32 200.3,35.2 201.6,35.2 "></polygon> <polygon points="184.9,61.4 185.4,61.4 185.9,58.2 185.5,58.2 "></polygon> <polygon points="183.2,61.3 183.4,61.3 184,58.2 183.7,58.2 "></polygon> <polygon points="190.3,61.4 191.1,61.4 191.7,58.2 190.8,58.2 "></polygon> <polygon points="188.5,61.4 189.2,61.4 189.8,58.2 189.1,58.2 "></polygon> </g> </svg> 