<?xml version="1.0" encoding="UTF-8"?> <svg xmlns="http://www.w3.org/2000/svg" id="Layer_1" data-name="Layer 1" viewBox="0 0 593.7 94.2"><defs><style>.cls-1{fill:none;stroke:#000;stroke-miterlimit:6.57;stroke-width:4.22px;}</style></defs><path class="cls-1" d="M75.32,57.09h.24L94.42,4.32h27L85.17,89.7H57.66L56.59,40.13h-.24L37.85,89.7H10.34L4.17,4.32h27l.36,52.77h.23L51.25,4.32H74.38Z"></path><path class="cls-1" d="M115.88,89.7,130.94,4.32h66.41l-3.56,19.92H155.37l-2.73,15.54h30.6L179.8,59.7H149.2l-5.33,30Z"></path><path class="cls-1" d="M249.64,29.1a6.27,6.27,0,0,0-3-5.81,13.81,13.81,0,0,0-7-1.54q-8.9,0-9.72,4.86V27l-.12.47q0,3,3.61,4.57A79.81,79.81,0,0,0,245,35.63q6.63,1.77,10.85,3.14a39.8,39.8,0,0,1,8.24,3.79,19.92,19.92,0,0,1,6.52,6.29A16.56,16.56,0,0,1,273.12,58a23.42,23.42,0,0,1-.47,4.5,30.63,30.63,0,0,1-14.71,21.94Q245.73,91.95,227.58,92a45.88,45.88,0,0,1-13.87-2,32,32,0,0,1-10.44-5.4,23.75,23.75,0,0,1-6.52-8,22.13,22.13,0,0,1-2.25-9.9,24.82,24.82,0,0,1,.24-3.32h26.8A7.85,7.85,0,0,0,225,70.13a12.59,12.59,0,0,0,7.58,2.14,20.16,20.16,0,0,0,8.78-1.66c2.29-1.11,3.6-2.65,3.91-4.63a1.06,1.06,0,0,1,.12-.47v-.36c0-2-1.18-3.47-3.56-4.5a83.68,83.68,0,0,0-11.26-3.56q-6.65-1.67-10.91-3a38.78,38.78,0,0,1-8.36-3.86,20,20,0,0,1-6.58-6.4,17.55,17.55,0,0,1-2.49-9.61,27.85,27.85,0,0,1,.47-4.86,28.42,28.42,0,0,1,13.7-20.22q11.44-7,28-7A48,48,0,0,1,259,4a25.36,25.36,0,0,1,9.9,5.58,22.05,22.05,0,0,1,5.58,8.53,32.28,32.28,0,0,1,1.77,11Z"></path><path d="M325.18,25.1h.09l7.4-20.72h10.62L329,37.9h-10.8l-.42-19.46h-.09L310.46,37.9H299.67L297.24,4.38h10.62L308,25.1h.09l7.64-20.72h9.07Z"></path><path d="M341.19,37.9,347.1,4.38h11L352.18,37.9Z"></path><path d="M383.93,22.68l.93-7.64,1.86-10.66h10.52L391.33,37.9H381l-8.75-18.25-.93,7.64L369.49,37.9H359l5.92-33.52h10.28Z"></path><path d="M430.2,38h-7.08l.14-3.3a14.66,14.66,0,0,1-4.51,3,15.88,15.88,0,0,1-6.29,1.14,17,17,0,0,1-5.35-.82,12,12,0,0,1-4.33-2.47,11.15,11.15,0,0,1-2.89-4.14,15.09,15.09,0,0,1-1-5.75,23.54,23.54,0,0,1,.37-4.05,24.32,24.32,0,0,1,2.49-7.33,20.55,20.55,0,0,1,4.52-5.73,19.78,19.78,0,0,1,6.21-3.7A21.27,21.27,0,0,1,420,3.5q6.24,0,10,3.19t3.72,9.24H423.22q-.47-4.25-4.89-4.24a6.41,6.41,0,0,0-5.24,2.63,15.93,15.93,0,0,0-2.86,7.19,18.24,18.24,0,0,0-.28,3A6.76,6.76,0,0,0,411.28,29c.88,1.09,2.35,1.63,4.39,1.63a7.38,7.38,0,0,0,3.68-1.09A5.83,5.83,0,0,0,422,26.73h-4.84l1.3-7.26h15Z"></path><path d="M317.49,58.16l-.76,3.59H300.06L298,71.93h14.67l-.76,3.6H297.21l-3,14.67H290l6.62-32Z"></path><path d="M318.06,69.49a19.35,19.35,0,0,1,3.45-6.22A16.54,16.54,0,0,1,327,59a16.33,16.33,0,0,1,7.29-1.6,13.53,13.53,0,0,1,5.54,1.1,12.34,12.34,0,0,1,4.17,3A13.14,13.14,0,0,1,346.63,66a16.94,16.94,0,0,1,.91,5.57,22.56,22.56,0,0,1-1.18,7.27A19.45,19.45,0,0,1,343,85a16.48,16.48,0,0,1-5.38,4.29,15.73,15.73,0,0,1-7.13,1.59q-6.54,0-10.07-3.66t-3.54-10.34A22.87,22.87,0,0,1,318.06,69.49Zm3.6,11.69a9.12,9.12,0,0,0,1.74,3.3,7.86,7.86,0,0,0,2.91,2.13,10.37,10.37,0,0,0,4.16.76A10.84,10.84,0,0,0,336,86a13,13,0,0,0,4-3.63,16.55,16.55,0,0,0,2.44-5.07,20.31,20.31,0,0,0,.83-5.7,14.71,14.71,0,0,0-.58-4.18A9.66,9.66,0,0,0,341,64.06,8.26,8.26,0,0,0,334.29,61a11.49,11.49,0,0,0-5.8,1.42,12.92,12.92,0,0,0-4.11,3.66,16,16,0,0,0-2.47,5.09,20.63,20.63,0,0,0-.82,5.77A15,15,0,0,0,321.66,81.18Z"></path><path d="M360.12,58.16l-6.67,32h-4.22l6.67-32Z"></path><path d="M371.63,58.16l-5.86,28.45h16.76l-.76,3.59h-21l6.67-32Z"></path><path d="M420.12,64.46a5.07,5.07,0,0,0-1.47-2.06,5.64,5.64,0,0,0-2.34-1.1,13.45,13.45,0,0,0-3-.32,10.77,10.77,0,0,0-2.44.3,8.24,8.24,0,0,0-2.38.92,5.58,5.58,0,0,0-1.8,1.61,4,4,0,0,0-.71,2.43,4.5,4.5,0,0,0,.4,2,4.4,4.4,0,0,0,1.09,1.44,5.91,5.91,0,0,0,1.64,1,19.17,19.17,0,0,0,2,.72l4.27,1.16a21.4,21.4,0,0,1,2.85,1,9.36,9.36,0,0,1,2.44,1.57,7.09,7.09,0,0,1,1.71,2.45,9.1,9.1,0,0,1,.65,3.63,8,8,0,0,1-1.14,4.34,9.69,9.69,0,0,1-2.91,3,12.7,12.7,0,0,1-4,1.77,16.77,16.77,0,0,1-4.33.59,20.18,20.18,0,0,1-5.25-.65,11.08,11.08,0,0,1-4.07-2,8.54,8.54,0,0,1-2.53-3.48,11.16,11.16,0,0,1-.64-5.09h4.22a8.88,8.88,0,0,0,.49,3.63,5.44,5.44,0,0,0,1.71,2.38A6.9,6.9,0,0,0,407.33,87a14.9,14.9,0,0,0,3.52.38,12.08,12.08,0,0,0,2.91-.36,7.94,7.94,0,0,0,2.55-1.1,5.77,5.77,0,0,0,1.81-1.9,5.49,5.49,0,0,0,.68-2.79,4.49,4.49,0,0,0-.44-2.08,4.27,4.27,0,0,0-1.22-1.48,7.12,7.12,0,0,0-1.8-1,21.42,21.42,0,0,0-2.18-.72l-4.31-1.17a15.63,15.63,0,0,1-2.72-1.05,8.85,8.85,0,0,1-2.26-1.62,7.1,7.1,0,0,1-1.56-2.29,7.65,7.65,0,0,1-.58-3.12,7.85,7.85,0,0,1,1-4.06,9.64,9.64,0,0,1,2.65-2.89A11.65,11.65,0,0,1,409.09,58a15.38,15.38,0,0,1,4.2-.59,16.31,16.31,0,0,1,4.47.61,10.93,10.93,0,0,1,3.71,1.84A8.42,8.42,0,0,1,424,63a10,10,0,0,1,.83,4.63h-4.23A8.1,8.1,0,0,0,420.12,64.46Z"></path><path d="M455.21,58.16l-.71,3.59H436.85l-2.13,10.18h16.45l-.71,3.6H434l-2.31,11.08h17.87l-.8,3.59H426.63l6.71-32Z"></path><path d="M472.73,58.16a20,20,0,0,1,3.89.38A9.6,9.6,0,0,1,480,59.86a6.89,6.89,0,0,1,2.33,2.52,8,8,0,0,1,.87,3.95,8.78,8.78,0,0,1-.54,3.07A9.06,9.06,0,0,1,481.18,72,7.74,7.74,0,0,1,478.93,74a7.85,7.85,0,0,1-2.91,1V75a4.15,4.15,0,0,1,1.71,1,4.69,4.69,0,0,1,1.07,1.59,7.62,7.62,0,0,1,.49,2,12.23,12.23,0,0,1,0,2.34q-.09,1.08-.27,2.13c-.12.7-.21,1.41-.27,2.11a11.58,11.58,0,0,0,0,2,5.11,5.11,0,0,0,.58,1.93h-4.4a9.18,9.18,0,0,1-.36-2.65,19.51,19.51,0,0,1,.45-4.22,13,13,0,0,0,.2-3.47,4.63,4.63,0,0,0-.65-2,2.51,2.51,0,0,0-1.2-1,4.85,4.85,0,0,0-1.42-.32H460.86L458,90.2h-4.23l6.71-32Zm-1.6,14.76a10.08,10.08,0,0,0,4-.67,6.63,6.63,0,0,0,2.38-1.64,5.22,5.22,0,0,0,1.14-2.06,8,8,0,0,0,.29-2,4.84,4.84,0,0,0-.54-2.42,4,4,0,0,0-1.4-1.48,5.53,5.53,0,0,0-2-.74,12.41,12.41,0,0,0-2.31-.2H464l-2.35,11.17Z"></path><path d="M495.14,58.16l-6.67,32h-4.22l6.66-32Z"></path><path d="M524.35,58.16l-.72,3.59H506l-2.13,10.18H520.3l-.71,3.6h-16.5l-2.31,11.08h17.88l-.8,3.59h-22.1l6.71-32Z"></path><path d="M545.22,64.46a5,5,0,0,0-1.47-2.06,5.66,5.66,0,0,0-2.33-1.1,13.61,13.61,0,0,0-3-.32,10.77,10.77,0,0,0-2.44.3,8.35,8.35,0,0,0-2.38.92,5.58,5.58,0,0,0-1.8,1.61,4,4,0,0,0-.71,2.43,4.3,4.3,0,0,0,1.49,3.43,6.06,6.06,0,0,0,1.64,1,18.58,18.58,0,0,0,2,.72l4.26,1.16a21.4,21.4,0,0,1,2.85,1,9.19,9.19,0,0,1,2.44,1.57,7,7,0,0,1,1.72,2.45,9.11,9.11,0,0,1,.64,3.63A8.11,8.11,0,0,1,547,85.56a9.83,9.83,0,0,1-2.92,3,12.75,12.75,0,0,1-4,1.77,16.91,16.91,0,0,1-4.34.59,20.18,20.18,0,0,1-5.25-.65,11,11,0,0,1-4.06-2,8.56,8.56,0,0,1-2.54-3.48,11.16,11.16,0,0,1-.64-5.09h4.22a9,9,0,0,0,.49,3.63,5.6,5.6,0,0,0,1.71,2.38A6.88,6.88,0,0,0,532.44,87a14.75,14.75,0,0,0,3.51.38,12,12,0,0,0,2.91-.36,8,8,0,0,0,2.56-1.1,5.75,5.75,0,0,0,1.8-1.9,5.4,5.4,0,0,0,.69-2.79,4.49,4.49,0,0,0-.45-2.08,4.17,4.17,0,0,0-1.22-1.48,7.12,7.12,0,0,0-1.8-1,20.63,20.63,0,0,0-2.18-.72L534,74.76a15.53,15.53,0,0,1-2.71-1.05A8.9,8.9,0,0,1,529,72.09a7.26,7.26,0,0,1-1.56-2.29,8.59,8.59,0,0,1,.45-7.18,9.48,9.48,0,0,1,2.64-2.89A11.65,11.65,0,0,1,534.19,58a15.38,15.38,0,0,1,4.2-.59,16.31,16.31,0,0,1,4.47.61,10.84,10.84,0,0,1,3.71,1.84A8.54,8.54,0,0,1,549.09,63a10.08,10.08,0,0,1,.82,4.63h-4.23A8.1,8.1,0,0,0,545.22,64.46Z"></path></svg> 