<?xml version="1.0" encoding="UTF-8"?> <!-- Generator: Adobe Illustrator 26.0.2, SVG Export Plug-In . SVG Version: 6.00 Build 0) --> <svg xmlns="http://www.w3.org/2000/svg" xmlns:xlink="http://www.w3.org/1999/xlink" version="1.1" id="Layer_1" x="0px" y="0px" viewBox="0 0 593.7 94.2" style="enable-background:new 0 0 593.7 94.2;" xml:space="preserve"> <style type="text/css"> .st0{fill:none;stroke:#000000;stroke-width:4.22;stroke-miterlimit:6.57;} </style> <path d="M236.7,58.1l-0.7,3.6h-16.9L217,71.9h14.8l-0.8,3.6h-14.8l-3.1,14.7H209l6.7-32L236.7,58.1z"></path> <path d="M253.8,58.1c1.3,0,2.6,0.1,3.9,0.4c1.2,0.2,2.4,0.7,3.4,1.3c1,0.6,1.8,1.5,2.4,2.5c0.6,1.2,0.9,2.6,0.9,4 c0,1-0.2,2.1-0.5,3.1c-0.3,0.9-0.8,1.8-1.5,2.6c-0.6,0.8-1.4,1.4-2.3,1.9c-0.9,0.5-1.9,0.9-2.9,1V75c0.6,0.2,1.2,0.5,1.7,1 c0.5,0.4,0.9,1,1.1,1.6c0.3,0.6,0.4,1.3,0.5,2c0.1,0.8,0.1,1.6,0,2.3c-0.1,0.7-0.1,1.4-0.3,2.1s-0.2,1.4-0.3,2.1 c-0.1,0.7-0.1,1.3,0,2c0.1,0.7,0.3,1.3,0.6,1.9H256c-0.2-0.9-0.4-1.8-0.4-2.7c0-1.4,0.1-2.8,0.5-4.2c0.2-1.1,0.3-2.3,0.2-3.5 c-0.1-0.7-0.3-1.4-0.6-2c-0.3-0.5-0.7-0.8-1.2-1c-0.5-0.2-0.9-0.3-1.4-0.3h-11.2L239,90.2h-4.3l6.8-32L253.8,58.1z M252.2,72.9 c1.4,0.1,2.8-0.2,4.1-0.7c0.9-0.4,1.7-0.9,2.4-1.6c0.5-0.6,0.9-1.3,1.1-2.1c0.2-0.7,0.3-1.3,0.3-2c0-0.8-0.2-1.7-0.5-2.4 c-0.3-0.6-0.8-1.1-1.4-1.5c-0.6-0.4-1.3-0.6-2-0.7c-0.8-0.1-1.5-0.2-2.3-0.2H245l-2.4,11.2L252.2,72.9z"></path> <path d="M294.3,58.1l-0.7,3.6h-17.8l-2.1,10.2h16.6l-0.7,3.6h-16.6l-2.3,11.1h18l-0.8,3.6h-22.3l6.8-32L294.3,58.1z"></path> <path d="M321.7,58.1l-0.7,3.6h-17.8L301,71.9h16.6l-0.7,3.6h-16.6l-2.3,11.1h18l-0.8,3.6h-22.3l6.8-32L321.7,58.1z"></path> <path d="M339.4,58.1c1.3,0,2.6,0.1,3.9,0.4c1.2,0.2,2.4,0.7,3.4,1.3c1,0.6,1.8,1.5,2.4,2.5c0.6,1.2,0.9,2.6,0.9,4 c0,1-0.2,2.1-0.5,3.1c-0.3,0.9-0.8,1.8-1.5,2.6c-0.6,0.8-1.4,1.4-2.3,1.9c-0.9,0.5-1.9,0.9-2.9,1V75c0.6,0.2,1.2,0.5,1.7,1 c0.5,0.5,0.8,1,1.1,1.6c0.3,0.6,0.4,1.3,0.5,2c0.1,0.8,0.1,1.6,0,2.4c-0.1,0.7-0.1,1.4-0.3,2.1s-0.2,1.4-0.3,2.1 c-0.1,0.7-0.1,1.3,0,2c0.1,0.7,0.3,1.3,0.6,1.9h-4.4c-0.2-0.9-0.4-1.8-0.4-2.7c0-1.4,0.1-2.8,0.5-4.2c0.2-1.1,0.3-2.3,0.2-3.5 c-0.1-0.7-0.3-1.4-0.6-2c-0.3-0.5-0.7-0.8-1.2-1c-0.5-0.2-0.9-0.3-1.4-0.3h-11.2l-2.9,13.7h-4.3l6.8-32L339.4,58.1z M337.8,72.9 c1.4,0.1,2.8-0.2,4.1-0.7c0.9-0.4,1.7-0.9,2.4-1.6c0.5-0.6,0.9-1.3,1.1-2.1c0.2-0.7,0.3-1.3,0.3-2c0-0.8-0.2-1.7-0.5-2.4 c-0.3-0.6-0.8-1.1-1.4-1.5c-0.6-0.4-1.3-0.6-2-0.7c-0.8-0.1-1.5-0.2-2.3-0.2h-8.8l-2.4,11.2L337.8,72.9z"></path> <path d="M362,58.1l-6.7,32H351l6.7-32L362,58.1z"></path> <path d="M380.6,58.1c4,0,7,1.1,9,3.3c2,2.2,3,5.2,3.1,9c0,2.8-0.4,5.6-1.3,8.2c-0.8,2.3-2,4.4-3.6,6.2c-1.6,1.7-3.5,3.1-5.6,4 c-2.3,0.9-4.7,1.4-7.2,1.3h-12.3l6.8-32L380.6,58.1z M375,86.6c2.1,0.1,4.1-0.4,6-1.4c1.7-0.9,3.1-2.1,4.2-3.6c1.1-1.5,2-3.2,2.5-5 c0.6-1.9,0.8-3.8,0.8-5.7c0-1.1-0.1-2.3-0.4-3.4c-0.2-1.1-0.7-2.1-1.4-2.9c-0.7-0.9-1.7-1.6-2.7-2c-1.4-0.6-2.9-0.8-4.4-0.8h-6.8 l-5.2,24.9L375,86.6z"></path> <path d="M423.1,58.1l-0.7,3.6h-17.8l-2.2,10.2H419l-0.7,3.6h-16.6l-2.3,11.1h18l-0.8,3.6h-22.3l6.8-32L423.1,58.1z"></path> <path d="M456.6,64.4c-0.3-0.8-0.8-1.5-1.5-2.1c-0.7-0.5-1.5-0.9-2.4-1.1c-1-0.2-2-0.3-3-0.3c-0.8,0-1.7,0.1-2.5,0.3 c-0.8,0.2-1.7,0.5-2.4,0.9c-0.7,0.4-1.3,1-1.8,1.6c-0.5,0.7-0.7,1.6-0.7,2.4c0,0.7,0.1,1.4,0.4,2c0.3,0.6,0.6,1,1.1,1.4 c0.5,0.4,1.1,0.8,1.7,1c0.7,0.3,1.3,0.5,2,0.7l4.3,1.2c1,0.3,1.9,0.6,2.9,1c0.9,0.4,1.7,0.9,2.5,1.6c0.7,0.7,1.3,1.5,1.7,2.4 c0.5,1.2,0.7,2.4,0.6,3.6c0,1.5-0.4,3-1.1,4.3c-0.8,1.2-1.8,2.2-2.9,3c-1.2,0.8-2.6,1.4-4,1.8c-1.4,0.4-2.9,0.6-4.4,0.6 c-1.8,0-3.6-0.2-5.3-0.7c-1.5-0.4-2.9-1.1-4.1-2c-1.1-0.9-2-2.1-2.6-3.5c-0.6-1.6-0.8-3.4-0.6-5.1h4.3c-0.1,1.2,0.1,2.5,0.5,3.6 c0.4,0.9,1,1.8,1.8,2.4c0.8,0.6,1.7,1.1,2.8,1.3c1.2,0.3,2.3,0.4,3.5,0.4c1,0,2-0.1,2.9-0.4c0.9-0.2,1.8-0.6,2.6-1.1 c0.7-0.5,1.4-1.1,1.8-1.9c0.5-0.8,0.7-1.8,0.7-2.8c0-0.7-0.1-1.4-0.5-2.1c-0.3-0.6-0.7-1.1-1.2-1.5c-0.6-0.4-1.2-0.8-1.8-1 c-0.7-0.3-1.5-0.5-2.2-0.7l-4.4-1.2c-0.9-0.2-1.9-0.6-2.7-1c-0.8-0.4-1.6-1-2.3-1.6c-0.7-0.7-1.2-1.4-1.6-2.3c-0.4-1-0.6-2-0.6-3.1 c0-1.4,0.3-2.8,1-4.1c0.7-1.1,1.6-2.1,2.7-2.9c1.1-0.8,2.4-1.4,3.7-1.8c1.4-0.4,2.8-0.6,4.2-0.6c1.5,0,3,0.2,4.5,0.6 c1.3,0.3,2.6,0.9,3.8,1.7c1.1,0.8,2,1.9,2.5,3.2c0.6,1.5,0.9,3,0.8,4.6h-4.3C457.2,66.5,457,65.4,456.6,64.4z"></path> <path d="M492.1,58.1l-0.7,3.6h-17.8l-2.1,10.2H488l-0.7,3.6h-16.7l-2.3,11.1h18l-0.8,3.6h-22.3l6.8-32L492.1,58.1z"></path> <path d="M509.8,58.1c1.3,0,2.6,0.1,3.9,0.4c1.2,0.2,2.3,0.7,3.4,1.3c1,0.6,1.8,1.5,2.4,2.5c0.6,1.2,0.9,2.6,0.9,4 c0,1-0.2,2.1-0.5,3.1c-0.4,0.9-0.9,1.8-1.5,2.6c-0.6,0.8-1.4,1.4-2.3,1.9c-0.9,0.5-1.9,0.9-2.9,1V75c0.6,0.2,1.2,0.5,1.7,1 c0.5,0.5,0.8,1,1.1,1.6c0.3,0.6,0.4,1.3,0.5,2c0.1,0.8,0.1,1.6,0,2.3c-0.1,0.7-0.2,1.4-0.3,2.1s-0.2,1.4-0.3,2.1 c-0.1,0.7-0.1,1.3,0,2c0.1,0.7,0.3,1.3,0.6,1.9H512c-0.2-0.9-0.4-1.8-0.4-2.7c0-1.4,0.1-2.8,0.5-4.2c0.2-1.1,0.3-2.3,0.2-3.5 c-0.1-0.7-0.3-1.4-0.7-2c-0.3-0.5-0.7-0.8-1.2-1c-0.5-0.2-0.9-0.3-1.4-0.3h-11.2l-2.9,13.7h-4.3l6.8-32L509.8,58.1z M508.1,72.9 c1.4,0.1,2.8-0.2,4.1-0.7c0.9-0.4,1.7-0.9,2.4-1.6c0.5-0.6,0.9-1.3,1.1-2.1c0.2-0.7,0.3-1.3,0.3-2c0-0.8-0.2-1.7-0.5-2.4 c-0.3-0.6-0.8-1.1-1.4-1.5c-0.6-0.4-1.3-0.6-2-0.7c-0.8-0.1-1.5-0.2-2.3-0.2h-8.8l-2.4,11.2L508.1,72.9z"></path> <path d="M532.4,58.1l-6.7,32h-4.3l6.7-32L532.4,58.1z"></path> <path d="M561.9,58.1l-0.7,3.6h-17.8l-2.2,10.2h16.6l-0.7,3.6h-16.7l-2.3,11.1h18l-0.8,3.6H533l6.8-32L561.9,58.1z"></path> <path d="M582.9,64.4c-0.3-0.8-0.8-1.5-1.5-2.1c-0.7-0.5-1.5-0.9-2.4-1.1c-1-0.2-2.1-0.3-3.1-0.3c-0.8,0-1.7,0.1-2.5,0.3 c-0.8,0.2-1.7,0.5-2.4,0.9c-0.7,0.4-1.3,1-1.8,1.6c-0.5,0.7-0.7,1.6-0.7,2.4c-0.1,1.3,0.5,2.6,1.5,3.4c0.5,0.4,1.1,0.8,1.7,1 c0.7,0.3,1.3,0.5,2,0.7l4.3,1.2c1,0.3,1.9,0.6,2.9,1c0.9,0.4,1.7,0.9,2.5,1.6c0.7,0.7,1.3,1.5,1.7,2.4c0.5,1.2,0.7,2.4,0.7,3.6 c0,1.5-0.4,3-1.1,4.3c-0.8,1.2-1.8,2.2-2.9,3c-1.2,0.8-2.6,1.4-4,1.8c-1.4,0.4-2.9,0.6-4.4,0.6c-1.8,0-3.6-0.2-5.3-0.7 c-1.5-0.4-2.9-1.1-4.1-2c-1.1-0.9-2-2.1-2.5-3.5c-0.6-1.6-0.8-3.4-0.7-5.1h4.3c-0.1,1.2,0.1,2.5,0.5,3.6c0.3,0.9,0.9,1.8,1.7,2.4 c0.8,0.6,1.8,1.1,2.8,1.3c1.2,0.3,2.3,0.4,3.5,0.4c1,0,2-0.1,2.9-0.4c0.9-0.2,1.8-0.6,2.6-1.1c0.7-0.5,1.4-1.1,1.8-1.9 c0.5-0.8,0.7-1.8,0.7-2.8c0-0.7-0.1-1.4-0.5-2.1c-0.3-0.6-0.7-1.1-1.2-1.5c-0.6-0.4-1.2-0.8-1.8-1c-0.7-0.3-1.5-0.5-2.2-0.7 l-4.4-1.2c-0.9-0.2-1.9-0.6-2.7-1c-0.8-0.4-1.6-1-2.3-1.6c-0.7-0.7-1.2-1.5-1.5-2.4c-0.4-1-0.6-2-0.6-3.1c0-1.4,0.3-2.8,1-4.1 c0.7-1.1,1.6-2.1,2.7-2.9c1.1-0.8,2.4-1.4,3.7-1.8c1.4-0.4,2.8-0.6,4.2-0.6c1.5,0,3,0.2,4.5,0.6c1.4,0.4,2.6,1,3.8,1.8 c1.1,0.8,2,1.9,2.5,3.2c0.6,1.5,0.9,3,0.8,4.6h-4.3C583.5,66.5,583.3,65.4,582.9,64.4z"></path> <g> <path d="M244.5,25.1L244.5,25.1L252,4.4h10.6l-14.2,33.5h-10.8l-0.4-19.4H237l-7.3,19.4H219l-2.4-33.5h10.6l0.1,20.7h0.1L235,4.4 h9.1L244.5,25.1z"></path> <path d="M257.5,37.9l17.9-33.5h11.2l6.1,33.5h-10.9l-0.5-4.4h-10.9l-2,4.4H257.5z M279.1,14.5l-5.5,12h6.9L279.1,14.5z"></path> <path d="M300.1,4.4h11.1l2,22.3l10-22.3h11.1l-17.5,33.5h-11L300.1,4.4z"></path> <path d="M332.9,37.9l5.9-33.5h27.3l-1.4,7.8h-16.3l-0.8,4.8h13.8l-1.3,7.8h-13.8l-0.9,5.3h17l-1.4,7.8H332.9z"></path> </g> <g> <path class="st0" d="M74.1,57.2h0.2L93.2,4.4h27L83.9,89.7H56.4l-1.1-49.5h-0.2L36.7,89.7H9.2L3,4.4h27l0.4,52.7h0.2L50,4.4h23.1 L74.1,57.2z"></path> <path class="st0" d="M169.2,29.2c0-2.7-1-4.6-3-5.8c-1.7-1-4.1-1.5-7-1.5c-5.9,0-9.2,1.6-9.7,4.9c0,0.2,0,0.3,0,0.4l-0.1,0.5 c0,2,1.2,3.5,3.6,4.6c2.4,1.1,6.3,2.3,11.5,3.6c4.4,1.2,8,2.2,10.8,3.1c2.8,0.9,5.5,2.2,8.2,3.8c2.7,1.6,4.9,3.7,6.5,6.3 c1.7,2.6,2.5,5.6,2.5,9.2c0,1.4-0.2,2.9-0.5,4.5c-1.7,9.6-6.6,16.9-14.7,21.9c-8.1,5-18.2,7.5-30.3,7.5c-5.1,0-9.8-0.7-13.9-2 c-4.1-1.3-7.6-3.1-10.4-5.4c-2.8-2.3-5-5-6.5-8c-1.5-3-2.3-6.3-2.3-9.9c0-1,0.1-2.1,0.2-3.3h26.8c0.1,3,1.2,5.3,3.4,6.8 c2,1.4,4.5,2.1,7.6,2.1c3.6,0,6.5-0.6,8.8-1.7c2.3-1.1,3.6-2.6,3.9-4.6c0-0.2,0-0.3,0.1-0.5v-0.4c0-2-1.2-3.5-3.6-4.5 c-2.4-1-6.1-2.2-11.3-3.6c-4.4-1.1-8.1-2.1-10.9-3c-2.8-0.9-5.6-2.2-8.4-3.8c-2.7-1.7-4.9-3.8-6.6-6.4s-2.5-5.8-2.5-9.6 c0-1.5,0.2-3.1,0.5-4.9c1.5-8.8,6.1-15.5,13.7-20.2c7.6-4.7,17-7,28-7c5.6,0,10.4,0.7,14.5,2c4.1,1.3,7.4,3.2,9.9,5.6 c2.5,2.4,4.4,5.3,5.6,8.5c1.2,3.3,1.8,6.9,1.8,11H169.2z"></path> </g> </svg> 